<?xml version="1.0" encoding="utf-8"?>
<!-- Generator: Adobe Illustrator 26.0.2, SVG Export Plug-In . SVG Version: 6.00 Build 0)  -->
<svg version="1.1" id="Layer_1" xmlns="http://www.w3.org/2000/svg" xmlns:xlink="http://www.w3.org/1999/xlink" x="0px" y="0px"
	 viewBox="0 0 2000 2000" style="enable-background:new 0 0 2000 2000;" xml:space="preserve">
<style type="text/css">
	.st0{fill:#FFFFFF;}
	.st1{fill:#02133B;}
	.st2{fill:#F14146;}
	.st3{fill:#F7AE38;}
	.st4{fill:#3A81E1;}
</style>
<path class="st0" d="M1749.7,310.8H149.5v1347.6h1600.1V310.8z"/>
<path class="st1" d="M1750.1,1660.1H149.5c-0.5,0-1-0.2-1.4-0.6c-0.4-0.4-0.6-0.9-0.6-1.4V310.8c0-0.5,0.2-1,0.6-1.4
	c0.4-0.4,0.9-0.6,1.4-0.6h1600.5c0.5,0,1,0.2,1.4,0.6c0.4,0.4,0.6,0.9,0.6,1.4v1347.3c0,0.5-0.2,1-0.6,1.4
	C1751.1,1659.9,1750.6,1660.1,1750.1,1660.1z M151.5,1656.2h1596.6V312.7H151.5V1656.2z"/>
<path class="st1" d="M1750.1,394.2H149.5c-0.5,0-1-0.2-1.4-0.6c-0.4-0.4-0.6-0.9-0.6-1.4c0.1-0.5,0.3-0.9,0.7-1.3
	c0.3-0.3,0.8-0.6,1.3-0.7h1600.5c0.5,0.1,0.9,0.3,1.3,0.7c0.3,0.3,0.6,0.8,0.7,1.3c0,0.5-0.2,1-0.6,1.4
	C1751.1,394,1750.6,394.2,1750.1,394.2z"/>
<path class="st1" d="M588.8,1619.4H213.5c-0.5,0-1-0.2-1.4-0.6c-0.4-0.4-0.6-0.9-0.6-1.4V451.2c0-0.5,0.2-1,0.6-1.4
	c0.4-0.4,0.9-0.6,1.4-0.6h375.3c0.5,0,1,0.2,1.4,0.6c0.4,0.4,0.6,0.9,0.6,1.4v1166.3c0,0.5-0.2,1-0.6,1.4
	C589.8,1619.2,589.3,1619.4,588.8,1619.4z M215.4,1615.5h371.4V453.1H215.4V1615.5z"/>
<path class="st2" d="M1423.2,348c23.6,0,42.7-19.1,42.7-42.6s-19.1-42.6-42.7-42.6c-23.6,0-42.6,19.1-42.6,42.6
	S1399.6,348,1423.2,348z"/>
<path class="st1" d="M1400.7,359.7c-8.7,0-17.2-2.6-24.4-7.4c-7.2-4.8-12.9-11.7-16.3-19.7c-2.3-5.3-3.5-11.1-3.6-16.9
	c-0.1-5.8,1-11.6,3.2-17c2.2-5.4,5.4-10.3,9.4-14.5c4.1-4.2,8.9-7.5,14.3-9.8c10.8-4.7,23.1-4.8,34.1-0.5
	c11,4.4,19.8,12.9,24.5,23.7c2.3,5.4,3.5,11.1,3.5,17c0.1,5.8-1.1,11.6-3.3,17c-2.2,5.4-5.4,10.3-9.5,14.5c-4.1,4.1-9,7.4-14.4,9.7
	C1412.7,358.4,1406.8,359.7,1400.7,359.7z M1400.7,274.4c-5.5,0-10.9,1.2-15.9,3.5c-4.9,2-9.4,5-13.1,8.8c-3.7,3.8-6.7,8.3-8.6,13.3
	c-2.9,7.5-3.6,15.6-1.9,23.5c1.7,7.9,5.7,15,11.4,20.6s13.1,9.4,20.9,10.8c7.9,1.5,16,0.6,23.4-2.6c4.9-2.1,9.3-5.2,12.9-9
	c3.7-3.8,6.6-8.3,8.5-13.2c2-4.9,2.9-10.2,2.8-15.5c-0.1-5.3-1.2-10.5-3.4-15.4c-3.1-7.3-8.2-13.6-14.9-18
	C1416.4,276.7,1408.7,274.4,1400.7,274.4z"/>
<path class="st1" d="M1780.3,229.8l-1.9-0.8l-14.7-23.3c-0.3-0.5-0.3-1-0.2-1.5c0.1-0.5,0.5-0.9,1-1.2c0.5-0.3,1-0.3,1.5-0.2
	c0.5,0.1,0.9,0.5,1.2,0.9l14.7,22.9c0.4,1.2,0.4,2.3-0.8,2.7L1780.3,229.8z"/>
<path class="st3" d="M538.4,227.8l17.1-78.7l56.2,55.4L538.4,227.8z"/>
<path class="st1" d="M506.6,229.8h-1.6c-0.3-0.2-0.5-0.5-0.5-0.9c-0.1-0.4,0-0.7,0.2-1l16.7-79.1c0.4-0.8,0.8-1.6,1.6-1.6
	c0.3-0.2,0.7-0.2,1-0.2s0.7,0.3,0.9,0.5l56.2,55.8c0.3,0.2,0.5,0.4,0.6,0.7c0.1,0.3,0.2,0.6,0.1,0.9c-0.3,0.7-0.9,1.2-1.6,1.6
	L507,229.8H506.6z M524.5,153l-15.5,72.1l67.1-21.3L524.5,153z"/>
<path class="st2" d="M58.8,814.1c10.1,0,18.2-8.2,18.2-18.2s-8.2-18.2-18.2-18.2s-18.2,8.2-18.2,18.2S48.7,814.1,58.8,814.1z"/>
<path class="st1" d="M46.8,816c-2.6,0-5.2-0.5-7.7-1.5c-2.4-1-4.6-2.5-6.5-4.4c-1.8-1.9-3.3-4.1-4.3-6.5c-1-2.4-1.4-5.1-1.4-7.7
	c0-4,1.2-7.9,3.4-11.2c2.2-3.3,5.4-5.9,9.1-7.4c3.7-1.5,7.8-1.9,11.7-1.1c3.9,0.8,7.5,2.8,10.3,5.6c2.8,2.9,4.7,6.5,5.4,10.4
	c0.7,3.9,0.3,8-1.3,11.7c-1.6,3.7-4.2,6.8-7.6,9C54.7,815,50.8,816.1,46.8,816z M46.8,779.6c-4.3,0-8.5,1.7-11.5,4.8
	c-3.1,3.1-4.8,7.2-4.8,11.5c0,4.3,1.7,8.5,4.8,11.5c3.1,3.1,7.2,4.8,11.5,4.8s8.5-1.7,11.5-4.8c3.1-3.1,4.8-7.2,4.8-11.5
	c0-4.3-1.7-8.5-4.8-11.5C55.2,781.3,51.1,779.6,46.8,779.6z"/>
<path class="st4" d="M872.5,1085.6l-45.5-26.2l-26.2,45.6l45.5,26.2L872.5,1085.6z"/>
<path class="st1" d="M859.8,1128.1h-0.8l-45.4-26c-1.2-0.8-1.6-1.9-0.8-2.7l26-45.4c0.3-0.4,0.8-0.6,1.2-0.8c0.5-0.1,1-0.1,1.5,0
	l45.4,26.4l1.2,1.2c0,0.2,0,0.4-0.1,0.6c-0.1,0.2-0.2,0.4-0.3,0.5l-26,45.8L859.8,1128.1z M817.2,1099.4l41.9,24l24.4-41.9
	l-41.9-24.4L817.2,1099.4z"/>
<path class="st1" d="M1680.3,582.2c-0.3,0-0.6-0.1-0.9-0.2c-0.3-0.1-0.5-0.3-0.7-0.6c-0.3-0.4-0.4-0.9-0.4-1.4
	c0.1-0.5,0.3-1,0.8-1.3l107.8-67.5c0.4-0.3,0.9-0.4,1.4-0.4c0.5,0.1,1,0.3,1.3,0.8c0.2,0.5,0.2,1,0.1,1.5c-0.1,0.5-0.4,0.9-0.9,1.2
	l-107.4,67.5L1680.3,582.2z"/>
<path class="st1" d="M193.3,1256.8h-0.8l-82.2-49.6c-0.5-0.2-0.8-0.7-0.9-1.2c-0.1-0.5-0.1-1.1,0.2-1.5c0.3-0.5,0.7-0.8,1.2-0.9
	c0.5-0.2,1.1-0.1,1.5,0.2l82.2,49.6c0.4,0.3,0.7,0.8,0.8,1.3c0.1,0.5-0.1,1-0.4,1.4L193.3,1256.8z"/>
<path class="st4" d="M213.5,1777.2h-0.8c-0.5-0.2-0.9-0.7-1.1-1.2c-0.2-0.5-0.2-1.1-0.1-1.6l10.5-31.8c0.2-0.5,0.5-0.8,0.9-1
	c0.4-0.2,0.9-0.3,1.4-0.1c0.3,0,0.5,0.1,0.7,0.3c0.2,0.2,0.4,0.3,0.5,0.6c0.1,0.2,0.2,0.5,0.2,0.7c0,0.3-0.1,0.5-0.2,0.7l-10.1,31.8
	c-0.1,0.4-0.3,0.8-0.7,1.1C214.4,1777,214,1777.2,213.5,1777.2z"/>
<path class="st4" d="M267.4,519.4h174.1c20.2,0,39.5,8,53.7,22.3c14.3,14.3,22.3,33.6,22.3,53.7v241.6H267.4V519.4z"/>
<path class="st1" d="M434.1,563.6h-83.4c-0.5,0-1-0.2-1.4-0.6c-0.4-0.4-0.6-0.9-0.6-1.4c0-0.5,0.2-1,0.6-1.4
	c0.4-0.4,0.9-0.6,1.4-0.6h83.4c0.5,0,1,0.2,1.4,0.6c0.4,0.4,0.6,0.9,0.6,1.4c0,0.5-0.2,1-0.6,1.4
	C435.1,563.4,434.6,563.6,434.1,563.6z"/>
<path class="st2" d="M341.4,584.9h-35.3v35.4h35.3V584.9z"/>
<path class="st1" d="M341.4,696.2h-35.3c-0.5,0-1-0.2-1.4-0.6c-0.4-0.4-0.6-0.9-0.6-1.4V659c0-0.5,0.2-1,0.6-1.4
	c0.4-0.4,0.9-0.6,1.4-0.6h35.3c0.5,0,1,0.2,1.4,0.6c0.4,0.4,0.6,0.9,0.6,1.4v35.3c0,0.5-0.2,1-0.6,1.4
	C342.5,696,342,696.2,341.4,696.2z M308.1,692.3h31.4v-31.4h-31.4V692.3z"/>
<path class="st3" d="M341.4,735.4h-35.3v35.4h35.3V735.4z"/>
<path class="st1" d="M472.9,604.3H360.8c-0.5,0-1-0.2-1.4-0.6c-0.4-0.4-0.6-0.9-0.6-1.4c0-0.5,0.2-1,0.6-1.4
	c0.4-0.4,0.9-0.6,1.4-0.6h112.1c0.5,0.1,0.9,0.3,1.3,0.7c0.3,0.3,0.6,0.8,0.7,1.3c0,0.5-0.2,1-0.6,1.4
	C473.9,604.1,473.4,604.3,472.9,604.3z"/>
<path class="st1" d="M474.4,680.3H362.4c-0.5,0-1-0.2-1.4-0.6c-0.4-0.4-0.6-0.9-0.6-1.4c0-0.5,0.2-1,0.6-1.4
	c0.4-0.4,0.9-0.6,1.4-0.6h112.1c0.5,0,1,0.2,1.4,0.6c0.4,0.4,0.6,0.9,0.6,1.4c0,0.5-0.2,1-0.6,1.4
	C475.4,680.1,475,680.3,474.4,680.3z"/>
<path class="st1" d="M474.4,754.7H362.4c-0.5,0-1-0.2-1.4-0.6c-0.4-0.4-0.6-0.9-0.6-1.4s0.2-1,0.6-1.4c0.4-0.4,0.9-0.6,1.4-0.6
	h112.1c0.5,0.1,0.9,0.3,1.3,0.7c0.3,0.3,0.6,0.8,0.7,1.3c0,0.5-0.2,1-0.6,1.4C475.4,754.5,475,754.7,474.4,754.7z"/>
<path class="st1" d="M514,580.3h-54.3c-0.5,0-1-0.2-1.4-0.6c-0.4-0.4-0.6-0.9-0.6-1.4v-56.6c0-0.5,0.2-1,0.6-1.4
	c0.4-0.4,0.9-0.6,1.4-0.6c0.5,0,1,0.2,1.4,0.6c0.4,0.4,0.6,0.9,0.6,1.4v54.7H514c0.5,0,1,0.2,1.4,0.6c0.4,0.4,0.6,0.9,0.6,1.4
	c0,0.5-0.2,1-0.6,1.4C515,580.1,514.5,580.3,514,580.3z"/>
<path class="st1" d="M332.1,1449.6c-0.5,0-1-0.2-1.4-0.6c-0.4-0.4-0.6-0.8-0.6-1.4v-146.9c0-0.5,0.2-1,0.6-1.4
	c0.4-0.4,0.9-0.6,1.4-0.6s1,0.2,1.4,0.6c0.4,0.4,0.6,0.9,0.6,1.4v146.9c0,0.5-0.2,1-0.6,1.4C333.1,1449.3,332.7,1449.6,332.1,1449.6
	z"/>
<path class="st1" d="M450,1449.6c-0.5,0-1-0.2-1.4-0.6c-0.4-0.4-0.6-0.8-0.6-1.4v-146.9c0-0.5,0.2-1,0.6-1.4
	c0.4-0.4,0.9-0.6,1.4-0.6c0.5,0,1,0.2,1.4,0.6c0.4,0.4,0.6,0.9,0.6,1.4v146.9c0,0.5-0.2,1-0.6,1.4
	C451,1449.3,450.5,1449.6,450,1449.6z"/>
<path class="st1" d="M461.3,1313.8H287.6c-0.5,0-1-0.2-1.4-0.6c-0.4-0.4-0.6-0.9-0.6-1.4s0.2-1,0.6-1.4c0.4-0.4,0.9-0.6,1.4-0.6
	h173.7c0.5,0,1,0.2,1.4,0.6c0.4,0.4,0.6,0.9,0.6,1.4s-0.2,1-0.6,1.4C462.3,1313.6,461.8,1313.8,461.3,1313.8z"/>
<path class="st1" d="M461.3,1343.7l-173.7-1.5c-0.5,0-1-0.2-1.4-0.6c-0.4-0.4-0.6-0.8-0.6-1.4c0-0.5,0.2-1,0.6-1.4
	c0.4-0.4,0.9-0.6,1.4-0.6l173.7,1.5c0.5,0,1,0.2,1.4,0.6c0.4,0.4,0.6,0.9,0.6,1.4c0,0.5-0.2,1-0.6,1.4
	C462.3,1343.5,461.8,1343.7,461.3,1343.7z"/>
<path class="st1" d="M474.8,1427.4H287.6c-0.5,0-1-0.2-1.4-0.6c-0.4-0.4-0.6-0.8-0.6-1.4c0-0.5,0.2-1,0.6-1.4
	c0.4-0.4,0.9-0.6,1.4-0.6h187.3c0.5,0,1,0.2,1.4,0.6c0.4,0.4,0.6,0.9,0.6,1.4c0,0.5-0.2,1-0.6,1.4
	C475.8,1427.2,475.3,1427.4,474.8,1427.4z"/>
<path class="st1" d="M333.3,1427.4h-0.8c-0.5-0.2-0.9-0.6-1.1-1.1c-0.2-0.5-0.2-1.1-0.1-1.6l43-113.6c0-0.2,0.1-0.5,0.3-0.7
	c0.1-0.2,0.3-0.4,0.6-0.5c0.2-0.1,0.5-0.2,0.7-0.2c0.3,0,0.5,0.1,0.7,0.2c0.3,0.1,0.5,0.2,0.7,0.4c0.2,0.2,0.4,0.4,0.5,0.7
	c0.1,0.3,0.2,0.5,0.2,0.8s-0.1,0.6-0.2,0.8l-42.6,113.6c-0.2,0.4-0.4,0.7-0.8,0.9C334.1,1427.4,333.7,1427.5,333.3,1427.4z"/>
<path class="st1" d="M404.3,1383.2h-27.9l-1.9-0.8c-0.2-0.3-0.3-0.6-0.3-1s0.1-0.7,0.3-1l14.7-36.5c0.2-0.3,0.5-0.6,0.8-0.8
	c0.3-0.2,0.7-0.3,1.1-0.3s0.8,0.1,1.1,0.3c0.3,0.2,0.6,0.4,0.8,0.8l12.8,36.5c0.2,0.3,0.3,0.6,0.3,1c0,0.3-0.1,0.7-0.3,1
	L404.3,1383.2z M379.1,1379.4h22.5l-10.5-29.1L379.1,1379.4z"/>
<path class="st1" d="M362.4,1427.4h-1.2c-0.4-0.2-0.7-0.6-0.8-1c-0.1-0.4-0.1-0.9,0-1.3l11.2-22.5c0-0.8,0.8-1.2,1.6-1.2h36.8
	c0.3,0,0.7,0.2,0.9,0.4c0.3,0.2,0.5,0.5,0.6,0.8l11.6,22.5c0.2,0.4,0.2,0.9,0,1.3c-0.1,0.4-0.4,0.8-0.8,1c-0.2,0.2-0.4,0.4-0.7,0.5
	c-0.3,0.1-0.6,0.1-0.9,0c-0.3-0.1-0.5-0.2-0.7-0.5c-0.2-0.2-0.3-0.5-0.4-0.8l-11.2-21.3h-34.1l-10.5,21.3c-0.2,0.2-0.4,0.4-0.7,0.6
	C363,1427.4,362.7,1427.4,362.4,1427.4z"/>
<path class="st1" d="M503.5,1449.6H281.4c-0.5,0-1-0.2-1.4-0.6c-0.4-0.4-0.6-0.8-0.6-1.4v-146.9c0-0.5,0.2-1,0.6-1.4
	c0.4-0.4,0.9-0.6,1.4-0.6h222.2c0.5,0,1,0.2,1.4,0.6c0.4,0.4,0.6,0.9,0.6,1.4v146.9c0,0.5-0.2,1-0.6,1.4
	C504.5,1449.3,504,1449.6,503.5,1449.6z M283.3,1445.7h218.3v-143.1H283.3V1445.7z"/>
<path class="st1" d="M807.5,853.6c-0.5,0-1-0.2-1.4-0.6c-0.4-0.4-0.6-0.9-0.6-1.4V466.3c0.1-0.5,0.3-0.9,0.7-1.3
	c0.3-0.3,0.8-0.6,1.3-0.7c0.5,0,1,0.2,1.4,0.6c0.4,0.4,0.6,0.9,0.6,1.4v385.4c0,0.5-0.2,1-0.6,1.4
	C808.5,853.4,808,853.6,807.5,853.6z"/>
<path class="st1" d="M807.5,559.3c-0.5,0-1-0.2-1.4-0.6c-0.4-0.4-0.6-0.9-0.6-1.4c0.1-0.5,0.3-0.9,0.7-1.3c0.3-0.3,0.8-0.6,1.3-0.7
	l481.2-1.6c0.5,0,1,0.2,1.4,0.6s0.6,0.9,0.6,1.4c0,0.5-0.2,1-0.6,1.4c-0.4,0.4-0.9,0.6-1.4,0.6L807.5,559.3z"/>
<path class="st1" d="M1091.3,628.7c-0.5,0-1-0.2-1.4-0.6c-0.4-0.4-0.6-0.9-0.6-1.4V484.1c0-0.5,0.2-1,0.6-1.4
	c0.4-0.4,0.9-0.6,1.4-0.6c0.5,0,1,0.2,1.4,0.6c0.4,0.4,0.6,0.9,0.6,1.4v142.7c-0.1,0.5-0.3,0.9-0.7,1.3
	C1092.2,628.4,1091.8,628.7,1091.3,628.7z"/>
<path class="st0" d="M1184,436.8H998.6V484H1184V436.8z"/>
<path class="st1" d="M1183.6,486.1H998.6c-0.5,0-1-0.2-1.4-0.6c-0.4-0.4-0.6-0.9-0.6-1.4v-47.3c0-0.5,0.2-1,0.6-1.4
	c0.4-0.4,0.9-0.6,1.4-0.6h184.9c0.5,0,1,0.2,1.4,0.6c0.4,0.4,0.6,0.9,0.6,1.4v47.3c0,0.5-0.2,1-0.6,1.4
	C1184.6,485.9,1184.1,486.1,1183.6,486.1z M1000.6,482.2h181.1v-43.4h-181.1V482.2z"/>
<path class="st1" d="M1167.7,629.5h-152.8c-9,0-16.3,7.3-16.3,16.3v14.7c0,9,7.3,16.3,16.3,16.3h152.8c9,0,16.3-7.3,16.3-16.3v-14.7
	C1184,636.8,1176.7,629.5,1167.7,629.5z"/>
<path class="st3" d="M900.5,629.5H715.2v47.2h185.3V629.5z"/>
<path class="st0" d="M878.8,436.8H736.9c-12,0-21.7,9.7-21.7,21.7v3.8c0,12,9.7,21.7,21.7,21.7h141.9c12,0,21.7-9.7,21.7-21.7v-3.8
	C900.5,446.5,890.8,436.8,878.8,436.8z"/>
<path class="st1" d="M878.4,486.1H736.9c-3.1,0-6.2-0.6-9.1-1.8s-5.5-3-7.7-5.2c-2.2-2.2-3.9-4.9-5.1-7.8c-1.2-2.9-1.7-6-1.7-9.2
	v-3.5c0-6.3,2.5-12.3,6.9-16.7c4.4-4.4,10.5-6.9,16.7-6.9h141.5c6.3,0,12.3,2.5,16.7,6.9c4.4,4.4,6.9,10.5,6.9,16.7v3.5
	c0.1,3.1-0.5,6.3-1.7,9.2c-1.2,2.9-2.9,5.6-5.1,7.8c-2.2,2.2-4.8,4-7.7,5.2C884.7,485.4,881.6,486.1,878.4,486.1z M736.9,438.8
	c-5.2,0-10.3,2.1-14,5.8c-3.7,3.7-5.8,8.7-5.8,14v3.5c-0.1,2.6,0.4,5.2,1.4,7.7c1,2.4,2.4,4.7,4.3,6.5c1.8,1.9,4,3.4,6.5,4.4
	c2.4,1,5,1.5,7.7,1.5h141.5c2.6,0,5.2-0.5,7.7-1.5c2.4-1,4.6-2.5,6.5-4.4c1.8-1.9,3.3-4.1,4.3-6.5s1.4-5.1,1.4-7.7v-3.5
	c0-2.6-0.5-5.2-1.5-7.6c-1-2.4-2.5-4.6-4.3-6.4s-4-3.3-6.4-4.3c-2.4-1-5-1.5-7.6-1.5H736.9z"/>
<path class="st4" d="M1436,534.1h-142.7c-11.8,0-21.3,9.5-21.3,21.3v4.6c0,11.8,9.5,21.3,21.3,21.3H1436c11.8,0,21.3-9.5,21.3-21.3
	v-4.6C1457.3,543.7,1447.8,534.1,1436,534.1z"/>
<path class="st2" d="M710.6,865.3l96.9-43l97.3,43l-97.3,44.6L710.6,865.3z"/>
<path class="st1" d="M868.8,462.4H757.5c-0.5,0-1-0.2-1.4-0.6c-0.4-0.4-0.6-0.9-0.6-1.4s0.2-1,0.6-1.4c0.4-0.4,0.9-0.6,1.4-0.6
	h111.3c0.5,0,1,0.2,1.4,0.6c0.4,0.4,0.6,0.9,0.6,1.4c-0.1,0.5-0.3,0.9-0.7,1.3C869.7,462.1,869.2,462.3,868.8,462.4z"/>
<path class="st1" d="M862.9,655.1h-96.5c-0.5,0-1-0.2-1.4-0.6c-0.4-0.4-0.6-0.9-0.6-1.4c0-0.5,0.2-1,0.6-1.4
	c0.4-0.4,0.9-0.6,1.4-0.6h96.5c0.5,0,1,0.2,1.4,0.6c0.4,0.4,0.6,0.9,0.6,1.4c0,0.5-0.2,1-0.6,1.4
	C863.9,654.9,863.5,655.1,862.9,655.1z"/>
<path class="st1" d="M350.8,251.5h-1.6l-32.6-33c-0.3-0.4-0.4-0.8-0.4-1.3c0-0.5,0.2-0.9,0.6-1.2c0.3-0.3,0.8-0.5,1.2-0.6
	c0.5,0,0.9,0.1,1.3,0.4l32.6,33c0.4,0.4,0.6,0.8,0.6,1.4c0,0.5-0.2,1-0.6,1.4H350.8z"/>
<path class="st4" d="M1584.9,574.5c-0.8,0-1.6-0.8-1.9-1.9l-3.1-50.8c0-0.5,0.2-1,0.6-1.4c0.4-0.4,0.8-0.6,1.4-0.6
	c0.2-0.1,0.5-0.1,0.7,0c0.2,0,0.5,0.2,0.7,0.3c0.2,0.2,0.3,0.3,0.4,0.6c0.1,0.2,0.1,0.5,0.1,0.7l3.1,50.8c0.1,0.3,0.1,0.5,0,0.8
	c0,0.3-0.1,0.5-0.3,0.7c-0.2,0.2-0.3,0.4-0.6,0.5s-0.5,0.2-0.7,0.3H1584.9z"/>
<path class="st2" d="M1135,1779.9l-50.1-31.7l-31.6,50l50.1,31.7L1135,1779.9z"/>
<path class="st1" d="M1063,1831.5h-0.8l-50-31.8c-1.2-0.4-1.2-1.6-0.8-2.7l31.8-50c0.1-0.2,0.3-0.4,0.5-0.5c0.2-0.1,0.4-0.2,0.6-0.2
	c0.2,0,0.4,0,0.7,0c0.2,0.1,0.4,0.2,0.6,0.3l50.4,31.4c0.4,0.3,0.7,0.8,0.8,1.3c0.1,0.5-0.1,1-0.4,1.4l-31.4,50
	c-0.2,0.2-0.4,0.4-0.7,0.6c-0.3,0.1-0.6,0.2-0.9,0.2H1063z M1015.7,1797.3l46.9,29.5l29.5-46.5l-46.9-29.5L1015.7,1797.3z"/>
<path class="st1" d="M1440.7,1777.2c-0.8,0-1.2-0.4-1.6-1.2l-13.2-25.6c-0.2-0.5-0.3-1-0.2-1.5c0.1-0.5,0.5-0.9,0.9-1.2
	c0.5-0.3,1-0.3,1.5-0.2c0.5,0.1,0.9,0.5,1.2,0.9l13.2,26c0.1,0.2,0.2,0.5,0.2,0.7c0,0.2-0.1,0.5-0.2,0.7c-0.1,0.2-0.3,0.4-0.5,0.6
	c-0.2,0.2-0.5,0.2-0.7,0.3C1441.4,1777.2,1441,1777.2,1440.7,1777.2z"/>
<path class="st1" d="M773.4,1800.8h-0.8c-0.3-0.1-0.5-0.2-0.7-0.4c-0.2-0.2-0.4-0.4-0.5-0.7c-0.1-0.3-0.2-0.5-0.2-0.8
	c0-0.3,0.1-0.6,0.2-0.8l15.5-36.4c0-0.3,0.1-0.5,0.3-0.7c0.1-0.2,0.3-0.4,0.6-0.5c0.2-0.1,0.5-0.2,0.7-0.2c0.3,0,0.5,0.1,0.7,0.2
	c0.3,0.1,0.5,0.2,0.7,0.4c0.2,0.2,0.4,0.4,0.5,0.7c0.1,0.3,0.2,0.5,0.2,0.8c0,0.3-0.1,0.6-0.2,0.8l-15.5,36.5
	C774.5,1800.4,774.1,1800.8,773.4,1800.8z"/>
<path class="st4" d="M1576.3,1676.8c12.6,0,22.9-10.2,22.9-22.9c0-12.6-10.2-22.9-22.9-22.9s-22.9,10.2-22.9,22.9
	C1553.5,1666.5,1563.7,1676.8,1576.3,1676.8z"/>
<path class="st1" d="M1557.7,1695.4c-6.5,0-12.7-2.6-17.3-7.2c-4.6-4.6-7.2-10.8-7.2-17.3c0-6.5,2.6-12.8,7.1-17.4
	c4.6-4.6,10.8-7.3,17.3-7.4c6.6,0,12.9,2.6,17.6,7.3c4.6,4.7,7.3,11,7.3,17.5c-0.1,6.5-2.8,12.7-7.4,17.3
	C1570.5,1692.8,1564.2,1695.4,1557.7,1695.4z M1557.7,1650c-4.1,0-8.2,1.2-11.6,3.5c-3.4,2.3-6.1,5.6-7.7,9.4c-1.6,3.8-2,8-1.2,12.1
	c0.8,4.1,2.8,7.8,5.7,10.7c2.9,2.9,6.7,4.9,10.7,5.7c4.1,0.8,8.3,0.4,12.1-1.2c3.8-1.6,7.1-4.3,9.4-7.7c2.3-3.4,3.5-7.5,3.5-11.6
	c0-5.5-2.2-10.9-6.1-14.8C1568.6,1652.2,1563.3,1650,1557.7,1650z"/>
<path class="st1" d="M1048.3,935.4h-1.6l-24.4-21.3c-0.3-0.4-0.5-0.8-0.5-1.4c0-0.5,0.2-1,0.5-1.4c0.1-0.3,0.3-0.5,0.5-0.7
	c0.2-0.2,0.5-0.3,0.8-0.3c0.3,0,0.6,0,0.8,0.1c0.3,0.1,0.5,0.3,0.7,0.5l24.4,21.7c0.8,0.4,0.8,1.9,0,2.7H1048.3z"/>
<path class="st4" d="M938.2,235.2h-0.8c-0.5-0.2-0.9-0.7-1.1-1.1c-0.2-0.5-0.2-1-0.1-1.6l12-23.7c0.2-0.4,0.6-0.7,1-0.8
	c0.4-0.1,0.9-0.1,1.3,0c0.3,0.1,0.5,0.2,0.7,0.4c0.2,0.2,0.4,0.4,0.5,0.7c0.1,0.3,0.2,0.5,0.2,0.8c0,0.3-0.1,0.6-0.2,0.8l-12,23.3
	C939.7,234.8,938.9,235.2,938.2,235.2z"/>
<path class="st2" d="M1535.2,1106l41.1-46.1l22.9,46.1H1535.2z"/>
<path class="st1" d="M1599.2,1125.4h-64c-0.4,0-0.8-0.1-1.2-0.3c-0.3-0.2-0.6-0.5-0.8-0.9c-0.2-0.3-0.2-0.7-0.2-1
	c0.1-0.3,0.3-0.7,0.5-0.9l41.1-46.5h1.9c0.8,0,1.2,0.4,1.6,1.2l22.5,46.1c0.2,0.2,0.3,0.5,0.3,0.8c0,0.3-0.1,0.6-0.3,0.8
	C1600.4,1125,1600,1125.4,1599.2,1125.4z M1539.5,1121.5h56.6l-20.2-40.7L1539.5,1121.5z"/>
<path class="st1" d="M1484.8,889.7h-0.8l-27.5-13.6c-0.2,0-0.5-0.1-0.7-0.3c-0.2-0.1-0.4-0.3-0.5-0.6c-0.1-0.2-0.2-0.5-0.2-0.7
	s0.1-0.5,0.2-0.7c0.2-0.5,0.7-0.9,1.2-1.1c0.5-0.2,1-0.2,1.6-0.1l27.5,13.6c0.3,0.1,0.5,0.2,0.7,0.4c0.2,0.2,0.4,0.4,0.5,0.7
	s0.2,0.5,0.2,0.8s-0.1,0.6-0.2,0.8c-0.2,0.3-0.5,0.5-0.9,0.7C1485.6,889.7,1485.2,889.7,1484.8,889.7z"/>
<path class="st1" d="M383.7,993.2H357c-0.5,0-1-0.2-1.4-0.6c-0.4-0.4-0.6-0.9-0.6-1.4c0.1-0.5,0.3-0.9,0.7-1.3
	c0.3-0.3,0.8-0.6,1.3-0.7h26.8c0.5,0,1,0.2,1.4,0.6c0.4,0.4,0.6,0.9,0.6,1.4c0,0.5-0.2,1-0.6,1.4C384.7,993,384.2,993.2,383.7,993.2
	z"/>
<path class="st1" d="M446.1,993.2h-26.8c-0.5,0-1-0.2-1.4-0.6c-0.4-0.4-0.6-0.9-0.6-1.4c0.1-0.5,0.3-0.9,0.7-1.3
	c0.3-0.3,0.8-0.6,1.3-0.7h26.8c0.5,0,1,0.2,1.4,0.6c0.4,0.4,0.6,0.9,0.6,1.4c0,0.5-0.2,1-0.6,1.4C447.1,993,446.6,993.2,446.1,993.2
	z"/>
<path class="st1" d="M508.6,993.2h-26.4c-0.5,0-1-0.2-1.4-0.6c-0.4-0.4-0.6-0.9-0.6-1.4c0-0.5,0.2-1,0.6-1.4
	c0.4-0.4,0.9-0.6,1.4-0.6h26.4c0.5,0,1,0.2,1.4,0.6c0.4,0.4,0.6,0.9,0.6,1.4c0,0.5-0.2,1-0.6,1.4C509.6,993,509.1,993.2,508.6,993.2
	z"/>
<path class="st1" d="M571,993.2h-26.4c-0.5,0-1-0.2-1.4-0.6c-0.4-0.4-0.6-0.9-0.6-1.4c0-0.5,0.2-1,0.6-1.4c0.4-0.4,0.9-0.6,1.4-0.6
	H571c0.5,0,1,0.2,1.4,0.6c0.4,0.4,0.6,0.9,0.6,1.4c0,0.5-0.2,1-0.6,1.4C572,993,571.5,993.2,571,993.2z"/>
<path class="st1" d="M354.6,1020c-0.5,0-1-0.2-1.4-0.6c-0.4-0.4-0.6-0.8-0.6-1.4v-26.8c0.1-0.5,0.3-0.9,0.7-1.3
	c0.3-0.3,0.8-0.6,1.3-0.7c0.5,0,1,0.2,1.4,0.6c0.4,0.4,0.6,0.9,0.6,1.4v26.8c0,0.5-0.2,1-0.6,1.4
	C355.6,1019.8,355.1,1020,354.6,1020z"/>
<path class="st1" d="M354.6,1082.4c-0.5,0-1-0.2-1.4-0.6c-0.4-0.4-0.6-0.9-0.6-1.4v-26.8c0.1-0.5,0.3-0.9,0.7-1.3
	c0.3-0.3,0.8-0.6,1.3-0.7c0.5,0,1,0.2,1.4,0.6c0.4,0.4,0.6,0.9,0.6,1.4v26.8c0,0.5-0.2,1-0.6,1.4
	C355.6,1082.2,355.1,1082.4,354.6,1082.4z"/>
<path class="st1" d="M354.6,1128.1c-0.5,0-1-0.2-1.4-0.6c-0.4-0.4-0.6-0.9-0.6-1.4v-10.1c0.1-0.5,0.3-0.9,0.7-1.3
	c0.3-0.3,0.8-0.6,1.3-0.6c0.5,0,1,0.2,1.4,0.6c0.4,0.4,0.6,0.8,0.6,1.4v10.1c0,0.5-0.2,1-0.6,1.4
	C355.6,1127.9,355.1,1128.1,354.6,1128.1z"/>
<path class="st1" d="M385.6,1128.1h-31c-0.5,0-1-0.2-1.4-0.6c-0.4-0.4-0.6-0.9-0.6-1.4c0-0.5,0.2-1,0.6-1.4c0.4-0.4,0.9-0.6,1.4-0.6
	h31c0.5,0,1,0.2,1.4,0.6c0.4,0.4,0.6,0.9,0.6,1.4c0,0.5-0.2,1-0.6,1.4C386.7,1127.9,386.2,1128.1,385.6,1128.1z"/>
<path class="st1" d="M448.1,1128.1h-29.5c-0.5,0-1-0.2-1.4-0.6c-0.4-0.4-0.6-0.9-0.6-1.4c0-0.5,0.2-1,0.6-1.4
	c0.4-0.4,0.9-0.6,1.4-0.6h29.5c0.5,0,1,0.2,1.4,0.6c0.4,0.4,0.6,0.9,0.6,1.4c0,0.5-0.2,1-0.6,1.4
	C449.1,1127.9,448.6,1128.1,448.1,1128.1z"/>
<path class="st1" d="M510.5,1128.1h-27.9c-0.5,0-1-0.2-1.4-0.6c-0.4-0.4-0.6-0.9-0.6-1.4c0-0.5,0.2-1,0.6-1.4
	c0.4-0.4,0.9-0.6,1.4-0.6h27.9c0.5,0,1,0.2,1.4,0.6c0.4,0.4,0.6,0.9,0.6,1.4c0,0.5-0.2,1-0.6,1.4
	C511.5,1127.9,511,1128.1,510.5,1128.1z"/>
<path class="st1" d="M572.9,1128.1h-26.4c-0.5,0-1-0.2-1.4-0.6c-0.4-0.4-0.6-0.9-0.6-1.4c0-0.5,0.2-1,0.6-1.4
	c0.4-0.4,0.9-0.6,1.4-0.6h26.4c0.5,0,1,0.2,1.4,0.6c0.4,0.4,0.6,0.9,0.6,1.4c0,0.5-0.2,1-0.6,1.4
	C573.9,1127.9,573.4,1128.1,572.9,1128.1z"/>
<path class="st1" d="M572.9,1020c-0.5,0-1-0.2-1.4-0.6c-0.4-0.4-0.6-0.8-0.6-1.4v-26.8c0.1-0.5,0.3-0.9,0.7-1.3
	c0.3-0.3,0.8-0.6,1.3-0.7c0.5,0,1,0.2,1.4,0.6c0.4,0.4,0.6,0.9,0.6,1.4v26.8c0,0.5-0.2,1-0.6,1.4
	C573.9,1019.8,573.4,1020,572.9,1020z"/>
<path class="st1" d="M572.9,1082.4c-0.5,0-1-0.2-1.4-0.6c-0.4-0.4-0.6-0.9-0.6-1.4v-26.8c0.1-0.5,0.3-0.9,0.7-1.3
	c0.3-0.3,0.8-0.6,1.3-0.7c0.5,0,1,0.2,1.4,0.6c0.4,0.4,0.6,0.9,0.6,1.4v26.8c0,0.5-0.2,1-0.6,1.4
	C573.9,1082.2,573.4,1082.4,572.9,1082.4z"/>
<path class="st1" d="M572.9,1128.1c-0.5,0-1-0.2-1.4-0.6c-0.4-0.4-0.6-0.9-0.6-1.4v-10.1c0.1-0.5,0.3-0.9,0.7-1.3
	c0.3-0.3,0.8-0.6,1.3-0.6c0.5,0,1,0.2,1.4,0.6c0.4,0.4,0.6,0.8,0.6,1.4v10.1c0,0.5-0.2,1-0.6,1.4
	C573.9,1127.9,573.4,1128.1,572.9,1128.1z"/>
<path class="st1" d="M401.2,969.9c-0.5,0-1-0.2-1.4-0.6c-0.4-0.4-0.6-0.9-0.6-1.4v-38.8H324c-0.5,0-1-0.2-1.4-0.6
	c-0.4-0.4-0.6-0.9-0.6-1.4c0.1-0.5,0.3-0.9,0.7-1.3c0.3-0.3,0.8-0.6,1.3-0.7h77.2c0.5,0,1,0.2,1.4,0.6c0.4,0.4,0.6,0.9,0.6,1.4V968
	c0,0.5-0.2,1-0.6,1.4C402.2,969.7,401.7,969.9,401.2,969.9z"/>
<path class="st1" d="M343,372.1h-1.2l-38-36.8c-0.3-0.4-0.4-0.8-0.4-1.3c0-0.5,0.2-0.9,0.6-1.2c0.3-0.3,0.8-0.5,1.2-0.6
	c0.5,0,0.9,0.1,1.3,0.4l38,36.8c0.4,0.4,0.6,0.8,0.6,1.4c0,0.5-0.2,1-0.6,1.4H343z"/>
<path class="st1" d="M305,372.1h-1.2c-0.4-0.4-0.6-0.9-0.6-1.4c0-0.5,0.2-1,0.6-1.4l38-36.8c0.4-0.3,0.8-0.4,1.3-0.4
	c0.5,0,0.9,0.2,1.2,0.6c0.3,0.3,0.5,0.8,0.6,1.2c0,0.5-0.1,0.9-0.4,1.3l-38,36.8H305z"/>
<path class="st4" d="M271.7,330.2h-39.9v39.9h39.9V330.2z"/>
<path class="st1" d="M1615.1,350.7h-60.9c-0.5,0-1-0.2-1.4-0.6c-0.4-0.4-0.6-0.9-0.6-1.4c0-0.5,0.2-1,0.6-1.4
	c0.4-0.4,0.9-0.6,1.4-0.6h60.9c0.5,0,1,0.2,1.4,0.6c0.4,0.4,0.6,0.9,0.6,1.4c0,0.5-0.2,1-0.6,1.4
	C1616.1,350.5,1615.6,350.7,1615.1,350.7z"/>
<path class="st1" d="M1543,350.7l28.3-14.7v24L1543,350.7z"/>
<path class="st1" d="M1645,350.7c-0.5,0-1-0.2-1.4-0.6c-0.4-0.4-0.6-0.9-0.6-1.4c0-0.5,0.2-1,0.6-1.4c0.4-0.4,0.8-0.6,1.4-0.6h60.9
	c0.5,0,1,0.2,1.4,0.6c0.4,0.4,0.6,0.9,0.6,1.4c0,0.5-0.2,1-0.6,1.4c-0.4,0.4-0.9,0.6-1.4,0.6H1645z"/>
<path class="st1" d="M1717.1,350.7l-28.3-14.7v24L1717.1,350.7z"/>
<path class="st1" d="M388.8,952.5l12.4,26.8l12.4-26.8H388.8z"/>
<path class="st0" d="M281,895.5H58.8v127.2H281V895.5z"/>
<path class="st1" d="M280.6,1024.6H58.8c-0.5,0-1-0.2-1.4-0.6c-0.4-0.4-0.6-0.9-0.6-1.4V895.5c0-0.5,0.2-1,0.6-1.4
	c0.4-0.4,0.9-0.6,1.4-0.6h221.8c0.5,0,1,0.2,1.4,0.6c0.4,0.4,0.6,0.9,0.6,1.4v127.2c0,0.5-0.2,1-0.6,1.4
	C281.6,1024.4,281.1,1024.6,280.6,1024.6z M60.7,1020.7h217.9V897.4H60.7V1020.7z"/>
<path class="st3" d="M65,1012.2l84.1-71.3l43.8,43l36.4-20.2l36.8,48.5H65z"/>
<path class="st0" d="M319.3,963.3H97.2v127.3h222.2V963.3z"/>
<path class="st1" d="M319,1092.5H97.2c-0.5,0-1-0.2-1.4-0.6c-0.4-0.4-0.6-0.9-0.6-1.4V963.3c0-0.5,0.2-1,0.6-1.4
	c0.4-0.4,0.9-0.6,1.4-0.6H319c0.5,0,1,0.2,1.4,0.6c0.4,0.4,0.6,0.9,0.6,1.4v127.2c0,0.5-0.2,1-0.6,1.4
	C320,1092.2,319.5,1092.5,319,1092.5z M99.1,1088.6H317V965.3H99.1V1088.6z"/>
<path class="st2" d="M103.8,1080.1l83.7-71.3l43.8,43l36.4-20.2l36.8,48.5H103.8z"/>
<path class="st3" d="M196.4,959.1c6.4,0,11.6-5.2,11.6-11.6s-5.2-11.6-11.6-11.6c-6.4,0-11.6,5.2-11.6,11.6S190,959.1,196.4,959.1z"
	/>
<path class="st2" d="M234.8,1026.9c6.4,0,11.6-5.2,11.6-11.6s-5.2-11.6-11.6-11.6c-6.4,0-11.6,5.2-11.6,11.6
	S228.4,1026.9,234.8,1026.9z"/>
<path class="st2" d="M185.2,370.1c10.9,0,19.8-8.9,19.8-19.8c0-10.9-8.9-19.8-19.8-19.8c-10.9,0-19.8,8.9-19.8,19.8
	C165.4,361.3,174.3,370.1,185.2,370.1z"/>
<path class="st0" d="M1927.2,725.3h-242.7c-24.2,0-43.8,19.6-43.8,43.8v122.4c0,24.2,19.6,43.8,43.8,43.8h242.7
	c24.2,0,43.8-19.6,43.8-43.8V769.1C1971.1,744.9,1951.4,725.3,1927.2,725.3z"/>
<path class="st1" d="M1927.6,937.4h-243.1c-12.1,0-23.8-4.8-32.4-13.4c-8.6-8.6-13.4-20.2-13.4-32.4V769.1
	c0-12.1,4.8-23.8,13.4-32.4c8.6-8.6,20.2-13.4,32.4-13.4h243.1c6,0,11.9,1.2,17.4,3.5c5.5,2.3,10.6,5.7,14.8,9.9
	c4.2,4.3,7.6,9.3,9.8,14.8c2.3,5.5,3.4,11.5,3.3,17.5v122.5c0.1,6-1.1,11.9-3.3,17.5c-2.3,5.5-5.6,10.6-9.8,14.8
	c-4.2,4.3-9.2,7.6-14.8,9.9C1939.6,936.2,1933.6,937.4,1927.6,937.4z M1684.5,727.2c-11.1,0.1-21.7,4.5-29.5,12.4
	c-7.8,7.8-12.3,18.4-12.4,29.5v122.5c0,11.1,4.4,21.8,12.3,29.6c7.8,7.9,18.5,12.3,29.6,12.3h243.1c5.5,0,10.9-1.1,16-3.2
	c5.1-2.1,9.7-5.2,13.5-9.1s6.9-8.5,9-13.6c2.1-5.1,3.1-10.5,3.1-16V769.1c0-11-4.4-21.6-12.1-29.5c-7.8-7.8-18.3-12.3-29.4-12.4
	H1684.5z"/>
<path class="st1" d="M1762.5,878.8h-1.2l-61.6-56.6c-0.2-0.5-0.4-1-0.4-1.6c0-0.5,0.1-1.1,0.4-1.6l54.7-57c0.2-0.2,0.4-0.4,0.6-0.5
	c0.2-0.1,0.5-0.2,0.8-0.2c0.3,0,0.6,0,0.8,0.1s0.5,0.2,0.7,0.4c0.2,0.2,0.3,0.4,0.4,0.7c0.1,0.3,0.1,0.5,0.1,0.8
	c0,0.3-0.1,0.5-0.2,0.8c-0.1,0.2-0.3,0.5-0.5,0.6l-53.1,55.4l60.1,55.4c0.3,0.4,0.6,0.8,0.6,1.4c0,0.5-0.2,1-0.6,1.4L1762.5,878.8z"
	/>
<path class="st1" d="M1868.7,880.8h-1.5c-0.2-0.4-0.3-0.9-0.2-1.4c0.1-0.5,0.3-0.9,0.6-1.3l59.7-55.4l-53.1-55.4
	c-0.2-0.4-0.3-0.9-0.2-1.4c0.1-0.5,0.3-0.9,0.6-1.3c0.4-0.4,0.8-0.6,1.4-0.6c0.5,0,1,0.2,1.3,0.6l54.3,56.6l0.8,1.5
	c0,0.4-0.4,1.2-0.8,1.2l-61.3,57H1868.7z"/>
<path class="st1" d="M1799.7,878.8h-0.8c-0.8-0.4-1.6-1.6-1.2-2.3l39.6-113.6c0-0.3,0.1-0.5,0.3-0.7c0.1-0.2,0.3-0.4,0.6-0.5
	c0.2-0.1,0.5-0.2,0.7-0.2c0.3,0,0.5,0.1,0.7,0.2c0.2,0,0.5,0.1,0.7,0.3c0.2,0.1,0.4,0.3,0.5,0.6c0.1,0.2,0.2,0.5,0.2,0.7
	c0,0.3-0.1,0.5-0.2,0.7l-39.2,113.6c-0.2,0.4-0.4,0.7-0.8,0.9C1800.5,878.8,1800.1,878.9,1799.7,878.8z"/>
<path class="st0" d="M1167.3,907.9l-19,129.5l121,8.5V933.5L1167.3,907.9z"/>
<path class="st1" d="M1269.3,1047.9l-121.4-8.5c-0.4,0-1.2-0.4-1.2-0.8c0-0.4-0.8-1.2-0.4-1.6l19-129.5l0.8-1.2h1.5l102,25.6
	c0.4,0.2,0.7,0.4,1,0.8c0.3,0.3,0.5,0.7,0.5,1.2v112.4c0,0.4-0.4,0.8-0.8,1.2C1270.1,1047.9,1269.7,1047.9,1269.3,1047.9z
	 M1150.2,1035.5l117.1,8.2V935l-98.5-24.8L1150.2,1035.5z"/>
<path class="st0" d="M1658.9,1178.5c0,0,123.3-286.5,139.6-278.8c16.3,7.8-10.1,90-10.1,90s20.9-35.3,40.7-8.5c0,0,24.4-7,27.9,12.8
	c0,0,17.8-7,22.1,8.5c4.3,15.5-97.7,371.8-97.7,371.8S1614,1296,1658.9,1178.5z"/>
<path class="st1" d="M1781.5,1376.3h-0.8c-1.9-0.8-168.7-80.3-123.7-198.1c12-27.9,117.5-271.8,139.2-279.5c0.5-0.3,1-0.5,1.6-0.5
	c0.6,0,1.1,0.2,1.6,0.5c7.8,3.9,8.5,20.2,1.9,50c-2.3,12-5.8,23.7-8.1,31.8c4.7-5,11.6-10.5,19-10.9c3.6,0.1,7.1,1.1,10.2,2.8
	c3.1,1.8,5.7,4.2,7.7,7.2c3.5-0.8,14-2.7,21.3,1.9c1.8,1.1,3.4,2.6,4.7,4.3c1.3,1.7,2.2,3.7,2.7,5.8c5-1.5,10.3-1.2,15.1,0.8
	c1.8,1.1,3.4,2.5,4.7,4.1c1.3,1.7,2.2,3.6,2.7,5.6c4.3,15.5-87.2,336.5-97.7,373c-0.4,0.4-0.8,1.2-1.2,1.2H1781.5z M1660.9,1179.3
	c-41.5,107.4,100.4,182.6,119.4,192.3c40.7-143.5,100-357.9,97.3-368.7c-0.9-3.1-3-5.8-5.8-7.4c-4.5-1.7-9.5-1.5-14,0.4h-1.5
	l-1.2-1.2c-0.2-1.9-0.8-3.8-1.8-5.5c-1-1.7-2.4-3.1-4-4.2c-7.8-4.7-19.4-1.6-19.8-1.6c-0.4,0.1-0.8,0.1-1.1,0
	c-0.3-0.1-0.7-0.4-0.8-0.8c-4.7-6.2-9.7-9.3-15.1-9.3c-12,0.4-22.5,17.4-22.5,17.4s-1.6,1.2-2.7,0.8c-0.2-0.1-0.4-0.2-0.6-0.4
	c-0.2-0.2-0.3-0.4-0.4-0.6c-0.1-0.2-0.1-0.5-0.1-0.7c0-0.2,0.1-0.5,0.2-0.7c10.1-31,21.7-81.8,11.2-87.2
	C1787.3,896.7,1718.7,1044.8,1660.9,1179.3z"/>
<path class="st3" d="M1155.3,989.7c0,0,69.8,72.1,114,25.2c0,0,48.5-29.5,86.1,0c37.6,29.5,257.8,270.6,257.8,270.6l62-169.8
	c0,0,60.9,97.3,138.4,219.5c0,0-90,350.5-163.2,311.3c-73.3-39.2-256.3-272.2-256.3-272.2l36.8,282.3c0,0-746.4,14-736.7-39.2
	C705.5,1553.8,898.2,912.9,1155.3,989.7z"/>
<path class="st0" d="M1050.2,1508.9l54.7,4.3c0,0,217.9,8.9,240.8,20.5c29.5,15.1,138.8,136.5,96.9,143.1
	c-16.3,2.3-96.9-81.8-96.9-81.8s58.9,68.6,46.1,79.5c-19.4,17.1-34.5,10.9-34.5,10.9s-5.4,8.5-35.7,15.9c-30.2,7.4-43,5.8-50-3.5
	c-7-9.3-38.4-39.9-38.4-39.9l-136.9-0.8L1050.2,1508.9z"/>
<path class="st1" d="M1290.6,1707.8c-10.1,0-15.9-2.7-20.5-8.9c-4.7-6.2-33.4-34.9-37.6-39.2l-136.1-0.8c-0.5,0-1-0.2-1.4-0.6
	c-0.4-0.4-0.6-0.9-0.6-1.4c0-0.5,0.2-1,0.6-1.4c0.4-0.4,0.8-0.6,1.4-0.6l136.9,0.8l1.2,0.8c1.6,1.2,31.8,31,38.8,39.9
	c7,8.9,14.7,10.5,48.1,2.7c33.3-7.8,34.5-15.1,34.5-15.1c0.2-0.4,0.6-0.7,1-0.8c0.4-0.1,0.9-0.1,1.3,0c0.8,0,14.3,5.4,32.6-10.5
	c7.8-6.6-22.5-48.8-46.5-76.8c-0.3-0.4-0.5-0.8-0.5-1.3c0-0.5,0.2-1,0.5-1.4c0.8-0.8,1.9-0.4,2.7,0c31,32.6,84.1,83,95.4,81.4
	c1.8-0.1,3.6-0.8,5-2c1.4-1.2,2.4-2.8,2.8-4.6c4.3-27.5-80.3-120.2-105.5-133c-25.2-12.8-237.3-19.8-239.6-20.2l-54.7-4.3
	c-0.5,0-1-0.2-1.4-0.6c-0.4-0.4-0.6-0.9-0.6-1.4c0.1-0.5,0.4-1,0.8-1.4c0.4-0.3,1-0.5,1.5-0.5l54.7,4.3
	c8.5,0.4,218.3,8.9,241.2,20.9s112.4,105.5,107.4,136.5c-0.4,2.7-1.8,5.2-3.8,7c-2.1,1.8-4.7,2.9-7.4,3.1
	c-10.9,1.6-47.3-31.8-72.9-56.6c15.9,20.9,31.8,46.5,23.3,53.9c-16.7,14.7-30.6,12.4-34.9,11.2c-4.3-1.2-11.6,9.7-35.7,15.5
	C1312,1705.7,1301.4,1707.4,1290.6,1707.8z"/>
<path class="st1" d="M1357.3,1687.2l-1.6-0.8l-57.8-74c-0.3-0.4-0.4-0.9-0.4-1.4c0.1-0.5,0.3-1,0.8-1.3c0.2-0.2,0.4-0.4,0.7-0.5
	c0.3-0.1,0.6-0.2,0.8-0.1c0.3,0,0.5,0.1,0.8,0.3c0.2,0.2,0.4,0.4,0.5,0.7l57.8,73.7c0.8,1.2,0.8,2.3-0.4,2.7L1357.3,1687.2z"/>
<path class="st1" d="M1315.4,1703.5c-0.8,0-1.2-0.4-1.6-1.2l-51.6-73.3c-0.3-0.4-0.4-0.9-0.4-1.4c0.1-0.5,0.3-1,0.8-1.3
	c0.2-0.1,0.5-0.2,0.7-0.2c0.3,0,0.5,0,0.8,0.1c0.2,0.1,0.5,0.2,0.7,0.4c0.2,0.2,0.4,0.4,0.5,0.6l51.6,73.3c0.3,0.4,0.4,0.9,0.4,1.4
	c-0.1,0.5-0.3,1-0.8,1.3L1315.4,1703.5z"/>
<path class="st1" d="M1233.2,1659.7h-1.5l-58.5-57.8c-0.3-0.4-0.4-0.8-0.4-1.3c0-0.5,0.2-0.9,0.6-1.2c0.3-0.3,0.8-0.5,1.2-0.6
	c0.5,0,0.9,0.1,1.3,0.4l58.6,57.8c0.3,0.4,0.6,0.8,0.6,1.4s-0.2,1-0.6,1.4H1233.2z"/>
<path class="st1" d="M1728.7,1103.7h-1.5c-0.3-0.4-0.5-0.9-0.4-1.4c0.1-0.5,0.3-1,0.8-1.3c22.1-19,79.9-72.5,77.9-92.7
	c-0.2-1.2-0.6-2.3-1.2-3.2c-0.7-0.9-1.6-1.7-2.6-2.2c-12.8-7.4-33,8.1-47.3,22.5c-10.5,10.5-20.2,21.8-29.1,33.7
	c-0.1,0.3-0.3,0.5-0.5,0.7c-0.2,0.2-0.5,0.3-0.8,0.3s-0.6,0-0.8-0.1s-0.5-0.3-0.7-0.5c-0.4-0.3-0.7-0.8-0.8-1.3
	c-0.1-0.5,0.1-1,0.4-1.4c1.9-2.7,53.1-73.3,81.4-57.4c1.6,0.8,3,2,4,3.5c1,1.5,1.6,3.2,1.8,5c2.3,26-76,93.1-79.5,95.8H1728.7z"/>
<path class="st1" d="M1798.9,1068c-2.9,0.1-5.7-0.2-8.5-0.8c-0.2-0.1-0.5-0.2-0.7-0.3c-0.2-0.1-0.4-0.3-0.6-0.5
	c-0.1-0.2-0.2-0.5-0.3-0.7c-0.1-0.3,0-0.5,0-0.8c0.2-0.5,0.5-0.9,0.9-1.2c0.4-0.3,0.9-0.4,1.4-0.4c10.5,2.3,18.6,0.4,24.8-5.4
	c20.2-19.4,11.2-75.6,11.2-76.4c0-0.8,0.4-1.9,1.6-2.3c0.6,0,1.1,0.2,1.5,0.5c0.4,0.4,0.7,0.9,0.8,1.4c0.4,2.3,9.3,58.9-12.4,79.5
	C1813.3,1065.6,1806.2,1068.3,1798.9,1068z"/>
<path class="st1" d="M1831.1,1070c-3.2-0.1-6.3-0.8-9.3-1.9c-0.3,0-0.5-0.1-0.7-0.3c-0.2-0.2-0.4-0.3-0.5-0.6
	c-0.1-0.2-0.2-0.5-0.2-0.7c0-0.3,0.1-0.5,0.2-0.7c0-0.2,0.1-0.5,0.3-0.7c0.1-0.2,0.3-0.4,0.6-0.5c0.2-0.1,0.5-0.2,0.8-0.2
	s0.5,0.1,0.7,0.2c2.8,1.2,5.9,1.7,8.9,1.5c3-0.3,6-1.3,8.5-3c18.6-14,14.7-68.2,14.7-69c0-0.5,0.2-1,0.6-1.4
	c0.4-0.4,0.9-0.6,1.4-0.6c0.8,0,1.9,0.8,1.9,1.5c0,0.8,3.9,57.4-16.3,72.5C1839.4,1068.8,1835.3,1070.1,1831.1,1070z"/>
<path class="st1" d="M1855.1,1077.3l-3.1-0.8c-1.6-0.8-3-1.9-4-3.4c-1.1-1.4-1.8-3-2.2-4.8c0-1.2,0.8-2.3,1.6-2.3s2.3,0.4,2.3,1.6
	c0,1.2,0.8,4.3,3.9,5.4c3.1,1.2,5.8,0,10.1-3.1c0.4-0.3,0.9-0.4,1.4-0.4c0.5,0.1,1,0.3,1.3,0.8c0.2,0.4,0.3,0.9,0.2,1.4
	s-0.3,0.9-0.6,1.3C1862.8,1075.5,1859.1,1076.9,1855.1,1077.3z"/>
<path class="st1" d="M1201.4,968l67.8,46.9V973C1269.3,973,1249.1,996.3,1201.4,968z"/>
<path class="st0" d="M1163,863.3c0,0-13.2,103.1,62,117.5c75.2,14.3,100-86.1,81.4-135.3C1287.9,796.2,1180.1,849.4,1163,863.3z"/>
<path class="st1" d="M1239,983.9l-14.3-1.2c-76.4-14.7-64-118.6-63.6-119.4c0.4-0.8,0.4-1.2,0.8-1.2c12-10.5,84.1-48.1,123.7-37.2
	c5.1,1.2,9.9,3.6,13.9,7s7.1,7.8,9,12.7c11.6,31,7.4,83.7-19.4,115.5c-6.1,7.4-13.7,13.4-22.3,17.5
	C1258.1,981.8,1248.6,983.9,1239,983.9z M1164.6,864.5c-0.8,9.3-8.5,101.2,60.9,114.4c24,4.3,45-2.7,60.5-20.9
	c25.2-29.9,29.9-81.8,19-111.7c-1.6-4.4-4.3-8.2-7.9-11.3c-3.5-3-7.8-5.2-12.3-6.2C1248.3,819.1,1179.7,852.8,1164.6,864.5z"/>
<path class="st1" d="M1150.2,863.3c1.9,22.9,21.7,38,39.6,29.1c6.6-3.1,12.4-9.7,15.9-21.3c12.4-41.1,46.9-5,59.3-12
	c12.4-7,45.8,17.8,55.8-34.9c10.1-52.7-14.3-54.3-24.4-34.9c-10.1,19.4-28.3-8.5-47.7,5.8c-19.4,14.3-75.6-24-90.7,13.2
	C1145.6,838.9,1147.5,835,1150.2,863.3z"/>
<path class="st1" d="M1248.7,929.2c-13.9,0-25.6-13.6-25.6-30.2c0-16.7,11.6-30.6,25.6-30.6c14,0,25.2,13.6,25.2,30.6
	C1273.9,916,1262.7,929.2,1248.7,929.2z M1248.7,872.2c-12,0-21.7,12-21.7,26.8c0,14.7,9.7,26.4,21.7,26.4s21.3-11.6,21.3-26.4
	C1270.1,884.2,1260.3,872.2,1248.7,872.2z"/>
<path class="st1" d="M1314.6,929.2c-14,0-25.2-13.6-25.2-30.2c0-16.7,11.2-30.6,25.2-30.6c13.9,0,25.6,13.6,25.6,30.6
	C1340.2,916,1329,929.2,1314.6,929.2z M1314.6,872.2c-11.6,0-21.3,12-21.3,26.8c0,14.7,9.7,26.4,21.3,26.4
	c11.6,0,21.7-11.6,21.7-26.4C1336.3,884.2,1326.7,872.2,1314.6,872.2z"/>
<path class="st0" d="M1274.7,914.1c0,0,15.1-22.9,25.6-12.4c10.5,10.5-19,33-19,33L1274.7,914.1z"/>
<path class="st1" d="M1281.3,936.6l-1.6-0.8c-0.3-0.4-0.4-0.9-0.4-1.4c0.1-0.5,0.3-1,0.8-1.3c5.4-4.3,19.8-17.4,20.6-26
	c-0.1-1.6-0.8-3.2-1.9-4.3c-0.6-0.7-1.4-1.3-2.3-1.6c-0.9-0.3-1.8-0.4-2.8-0.3c-7,0.8-15.1,10.5-17.4,14.3c-0.3,0.4-0.8,0.7-1.3,0.8
	c-0.5,0.1-1-0.1-1.4-0.4c-0.4-0.3-0.6-0.8-0.8-1.2s-0.1-1,0-1.5c0.8-0.8,10.5-15.1,20.6-15.9c1.5-0.2,3,0,4.4,0.6
	c1.4,0.5,2.7,1.4,3.7,2.5c1,0.9,1.9,2.1,2.4,3.3c0.5,1.3,0.8,2.7,0.7,4c-0.8,12-21.3,27.9-22.1,28.7L1281.3,936.6z"/>
<path class="st1" d="M1276.2,965.3c-23.3,0-31.4-14.7-31.8-15.1c-0.2-0.5-0.2-1-0.1-1.5c0.1-0.5,0.4-0.9,0.8-1.2
	c0.2-0.2,0.5-0.4,0.7-0.5c0.3-0.1,0.6-0.1,0.9,0c0.3,0.1,0.5,0.2,0.7,0.5c0.2,0.2,0.3,0.5,0.4,0.8c0.4,0.4,9.3,15.9,36.1,12.4
	c0.5,0,1,0.2,1.4,0.6c0.4,0.4,0.6,0.9,0.6,1.4c0.4,0.8-0.4,1.9-1.5,1.9L1276.2,965.3z"/>
<path class="st0" d="M1189,921.9c-5.9,1.8-12.2,1.2-17.8-1.4c-5.5-2.7-9.9-7.3-12.2-13c-2.3-5.7-2.4-12.1-0.3-17.9
	c2.1-5.8,6.3-10.6,11.8-13.5c3-1.3,6.2-1.9,9.5-1.9c3.2,0,6.5,0.7,9.5,1.9c3,1.3,5.7,3.1,8,5.4c2.3,2.3,4.1,5.1,5.2,8.1L1189,921.9z
	"/>
<path class="st1" d="M1179.7,925.7c-3.6,0-7.2-0.8-10.5-2.3c-3.2-1.4-6.2-3.4-8.7-5.9c-2.5-2.5-4.4-5.5-5.7-8.8
	c-2.2-6.5-1.8-13.6,1.1-19.8c2.9-6.2,8-11.1,14.4-13.6s13.4-2.5,19.8,0c6.4,2.5,11.5,7.4,14.4,13.6c0.1,0.3,0.2,0.5,0.2,0.8
	c0,0.3,0,0.6-0.2,0.8c-0.1,0.3-0.3,0.5-0.5,0.7c-0.2,0.2-0.4,0.3-0.7,0.4c-0.8,0.4-1.9-0.4-2.3-1.2c-2.3-5.7-6.7-10.2-12.3-12.6
	c-5.6-2.4-11.9-2.5-17.6-0.2c-5.7,2.3-10.2,6.7-12.6,12.3s-2.5,11.9-0.2,17.6c2.3,5.6,6.8,10.1,12.4,12.4c5.6,2.3,11.9,2.3,17.5,0
	c0.8-0.4,1.9,0.4,2.3,1.2c0.2,0.5,0.2,1,0.1,1.5c-0.1,0.5-0.4,0.9-0.8,1.2C1186.6,925,1183.2,925.7,1179.7,925.7z"/>
<path class="st1" d="M1190.6,901.7h-0.8l-21.3-12c-1.2-0.4-1.2-1.9-0.8-2.7c0.3-0.4,0.7-0.7,1.2-0.8c0.5-0.1,1-0.1,1.5,0.1l21.3,12
	c0.4,0.3,0.7,0.8,0.8,1.3c0.1,0.5-0.1,1-0.4,1.4C1192.1,901.3,1191.3,901.7,1190.6,901.7z"/>
<path class="st1" d="M1180.1,911.8c-0.5,0-1-0.2-1.4-0.6c-0.4-0.4-0.6-0.9-0.6-1.4v-14.7c0-0.5,0.2-1,0.6-1.4
	c0.4-0.4,0.8-0.6,1.4-0.6c0.5,0,1,0.2,1.4,0.6c0.4,0.4,0.6,0.9,0.6,1.4v14.7c0,0.5-0.2,1-0.6,1.4
	C1181.1,911.6,1180.6,911.8,1180.1,911.8z"/>
<path class="st1" d="M1776.8,1021.9c-1.9,0.1-3.8-0.5-5.4-1.5c-1.7-1-3.1-2.5-4.1-4.1c-1-1.7-1.6-3.6-1.7-5.5c0-0.5,0.2-1,0.6-1.4
	c0.4-0.4,0.8-0.6,1.4-0.6c0.5,0,1,0.2,1.4,0.6c0.4,0.4,0.6,0.8,0.6,1.4c0.1,1.3,0.5,2.6,1.2,3.7s1.6,2.1,2.7,2.9
	c2.3,1.2,9.3,1.9,24.4-8.1c0.4-0.3,0.9-0.4,1.4-0.4c0.5,0.1,1,0.3,1.3,0.8c0.3,0.4,0.4,0.9,0.4,1.4c-0.1,0.5-0.3,1-0.8,1.3
	C1790.4,1018.4,1782.6,1021.9,1776.8,1021.9z"/>
<path class="st1" d="M1801.6,1058.7h-0.8c-0.2,0-0.5-0.1-0.7-0.3c-0.2-0.1-0.4-0.3-0.5-0.6s-0.2-0.5-0.2-0.8s0.1-0.5,0.2-0.7
	c4.3-12.4,9.7-19.4,16.7-20.9c2.2-0.6,4.4-0.6,6.6-0.1c2.2,0.6,4.2,1.7,5.8,3.2c0.4,0.3,0.7,0.8,0.8,1.3c0.1,0.5-0.1,1-0.4,1.4
	c-0.4,0.3-0.8,0.5-1.4,0.5s-1-0.2-1.4-0.5c-2.7-2-6-2.8-9.3-2.3c-5.4,1.6-10.1,7.8-14,18.6
	C1803.2,1058.3,1802.4,1058.7,1801.6,1058.7z"/>
<path class="st1" d="M1831.1,1061.8h-0.8c-1.2-0.4-1.6-1.5-0.8-2.3c3.9-8.1,8.5-13.2,14-14.7c3.4-0.8,6.9-0.6,10.1,0.8
	c0.4,0.3,0.7,0.8,0.8,1.3c0.1,0.5-0.1,1-0.4,1.4c-0.3,0.4-0.7,0.7-1.2,0.8c-0.5,0.1-1,0.1-1.5-0.1c-1-0.6-2.1-1-3.2-1.1
	c-1.1-0.1-2.3,0-3.4,0.4c-2.7,1.3-5.1,3-7.1,5.2c-2,2.2-3.5,4.8-4.5,7.6c-0.2,0.3-0.5,0.5-0.8,0.7
	C1831.8,1061.9,1831.4,1061.9,1831.1,1061.8z"/>
<path class="st1" d="M1050.2,1510.8h-0.8l-112-45.8c-0.5-0.2-0.9-0.7-1.1-1.2c-0.2-0.5-0.2-1.1-0.1-1.6l78.7-196.6
	c0.4-0.8,1.5-1.6,2.3-1.2c0.3,0.1,0.5,0.2,0.7,0.4c0.2,0.2,0.4,0.4,0.5,0.7c0.1,0.2,0.2,0.5,0.2,0.8c0,0.3-0.1,0.6-0.2,0.8
	L940.5,1462l110.5,45.4c0.3,0,0.5,0.1,0.7,0.3c0.2,0.2,0.4,0.3,0.5,0.6c0.1,0.2,0.2,0.5,0.2,0.8c0,0.2-0.1,0.5-0.2,0.7
	c-0.2,0.4-0.4,0.7-0.8,0.9C1051,1510.8,1050.6,1510.8,1050.2,1510.8z"/>
<path class="st1" d="M1253.8,1523.6c-0.8,0-1.6-0.8-1.9-1.9l-28.7-487.4c0-0.5,0.2-1,0.6-1.4c0.4-0.4,0.9-0.6,1.4-0.6
	c0.5,0,1,0.2,1.4,0.6c0.4,0.4,0.6,0.9,0.6,1.4l28.7,487.4c0.4,0.8-0.8,1.9-1.5,1.9H1253.8z"/>
<path class="st1" d="M1210.7,1147.1c-3-0.1-5.9-1.4-8-3.5c-2.1-2.2-3.3-5.1-3.3-8.1c0.5-2.7,1.9-5.1,4-6.8s4.7-2.7,7.4-2.7
	c2.7,0,5.3,1,7.4,2.7s3.5,4.1,4,6.8c0,3.1-1.2,6.1-3.4,8.2C1216.8,1145.9,1213.8,1147.1,1210.7,1147.1z M1210.7,1128.1
	c-1.9,0.1-3.8,0.9-5.1,2.3s-2.2,3.2-2.3,5.1c-0.1,1.6,0.3,3.1,1.1,4.4c0.8,1.3,2,2.4,3.5,3c1.4,0.6,3,0.8,4.6,0.5
	c1.5-0.3,3-1,4.1-2.1c1.1-1.1,1.8-2.5,2.1-4.1c0.3-1.5,0.1-3.1-0.5-4.6c-0.6-1.4-1.7-2.6-3-3.5
	C1213.8,1128.4,1212.3,1128.1,1210.7,1128.1z"/>
<path class="st1" d="M1213.1,1266.6c-3-0.1-5.9-1.4-8-3.5c-2.1-2.2-3.3-5.1-3.3-8.1c0-3,1.2-5.9,3.3-8c2.1-2.1,5-3.3,8-3.3
	c3,0,5.8,1.2,7.9,3.3c2.1,2.1,3.3,5,3.3,8c0,3-1.2,5.9-3.3,8.1S1216.1,1266.4,1213.1,1266.6z M1213.1,1247.6c-2,0-3.8,0.8-5.2,2.2
	c-1.4,1.4-2.2,3.2-2.2,5.2c0,1.9,0.8,3.8,2.2,5.2c1.4,1.4,3.3,2.2,5.2,2.2c2,0,3.8-0.8,5.2-2.2c1.4-1.4,2.2-3.2,2.2-5.2
	c0-1-0.2-1.9-0.6-2.8c-0.4-0.9-0.9-1.7-1.6-2.4c-0.7-0.7-1.5-1.2-2.4-1.6C1215,1247.7,1214,1247.6,1213.1,1247.6z"/>
<path class="st1" d="M1220.4,1385.6c-1.7,0.3-3.4,0.2-5.1-0.2c-1.7-0.4-3.2-1.2-4.5-2.3c-1.3-1.1-2.4-2.5-3.1-4
	c-0.7-1.5-1.1-3.2-1.1-4.9s0.4-3.4,1.1-4.9c0.7-1.5,1.8-2.9,3.1-4c1.3-1.1,2.8-1.9,4.5-2.3c1.7-0.4,3.4-0.5,5.1-0.2
	c2.7,0.5,5.1,1.9,6.8,4c1.7,2.1,2.7,4.7,2.7,7.4s-1,5.3-2.7,7.4C1225.5,1383.7,1223.1,1385.1,1220.4,1385.6z M1220.4,1366.6
	c-1.1-0.3-2.3-0.3-3.5,0c-1.1,0.3-2.2,0.8-3.1,1.5c-0.9,0.7-1.7,1.7-2.2,2.7c-0.5,1-0.8,2.2-0.8,3.4s0.3,2.3,0.8,3.4
	c0.5,1.1,1.2,2,2.2,2.7c0.9,0.7,2,1.2,3.1,1.5c1.1,0.3,2.3,0.3,3.5,0c1.9-0.1,3.7-0.9,5.1-2.3c1.4-1.4,2.2-3.2,2.3-5.1
	c0-2-0.8-3.9-2.1-5.3C1224.3,1367.5,1222.4,1366.7,1220.4,1366.6z"/>
<path class="st1" d="M1440.7,1666.7h-1.2c-10.5-9.3-15.1-17.5-13.6-24c1.5-6.6,12-10.5,12.4-10.5c0.4,0,1.9,0.4,2.3,1.5
	c0,0.5-0.1,1-0.4,1.4s-0.7,0.7-1.2,0.9c0,0-7.8,1.9-9.3,7.8c-1.6,5.8,3.1,11.6,12,19.8c0.3,0.1,0.5,0.3,0.7,0.5
	c0.2,0.2,0.3,0.5,0.3,0.8c0,0.3,0,0.6-0.1,0.8s-0.3,0.5-0.5,0.7c-0.2,0.2-0.5,0.3-0.7,0.4
	C1441.2,1666.7,1440.9,1666.7,1440.7,1666.7z"/>
<path class="st1" d="M1251.1,904.4c2.6,0,4.6-2.1,4.6-4.7c0-2.6-2.1-4.7-4.6-4.7c-2.6,0-4.7,2.1-4.7,4.7
	C1246.4,902.3,1248.5,904.4,1251.1,904.4z"/>
<path class="st1" d="M1319.3,903.6c2.6,0,4.6-2.1,4.6-4.7c0-2.6-2.1-4.7-4.6-4.7c-2.6,0-4.7,2.1-4.7,4.7
	C1314.6,901.6,1316.7,903.6,1319.3,903.6z"/>
<path class="st1" d="M1856.3,1066.1h-0.8c-0.8-0.4-1.6-1.5-1.2-2.3c5.4-14,15.1-10.9,15.1-10.9c0.3,0,0.5,0.1,0.7,0.3
	c0.2,0.1,0.4,0.3,0.5,0.6c0.1,0.2,0.2,0.5,0.2,0.7c0,0.3-0.1,0.5-0.2,0.7c0,0.2-0.1,0.5-0.3,0.7c-0.1,0.2-0.3,0.4-0.6,0.5
	c-0.2,0.1-0.5,0.2-0.8,0.2s-0.5-0.1-0.7-0.2c-0.4,0-6.2-1.6-10.1,8.5c-0.2,0.3-0.5,0.6-0.8,0.8
	C1857.1,1065.9,1856.7,1066.1,1856.3,1066.1z"/>
<path class="st0" d="M652.8,1534.8H335.6v317.3h317.2V1534.8z"/>
<path class="st1" d="M652.8,1853.9H335.6c-0.5,0-1-0.2-1.4-0.6c-0.4-0.4-0.6-0.9-0.6-1.4v-317.2c0-0.5,0.2-1,0.6-1.4
	c0.4-0.4,0.9-0.6,1.4-0.6h317.2c0.5,0,1,0.2,1.4,0.6c0.4,0.4,0.6,0.9,0.6,1.4V1852c0,0.5-0.2,1-0.6,1.4
	C653.8,1853.7,653.3,1853.9,652.8,1853.9z M337.6,1850.1h313.3v-313.3H337.6V1850.1z"/>
<path class="st2" d="M434.1,1677.2h-56.2v132.7h56.2V1677.2z"/>
<path class="st4" d="M522.5,1641.5h-56.2v168.2h56.2V1641.5z"/>
<path class="st1" d="M611.7,1811.7h-56.2c-0.5,0-1-0.2-1.4-0.6c-0.4-0.4-0.6-0.9-0.6-1.4v-201.6c0-0.5,0.2-1,0.6-1.4
	c0.4-0.4,0.9-0.6,1.4-0.6h56.2c0.5,0,1,0.2,1.4,0.6c0.4,0.4,0.6,0.9,0.6,1.4v201.6c0,0.5-0.2,1-0.6,1.4
	C612.7,1811.5,612.2,1811.7,611.7,1811.7z M557.4,1807.8h52.3v-197.7h-52.3V1807.8z"/>
<path class="st0" d="M611.7,1415v163.6l59.7-48.5h209V1415H611.7z"/>
<path class="st1" d="M611.7,1580.6h-0.8c-0.8-0.4-1.2-0.8-1.2-1.5v-164c0-0.5,0.2-1,0.6-1.4c0.4-0.4,0.9-0.6,1.4-0.6h268.7
	c0.5,0,1,0.2,1.4,0.6c0.4,0.4,0.6,0.9,0.6,1.4v115.2c0,0.5-0.2,1-0.6,1.4c-0.4,0.4-0.9,0.6-1.4,0.6H671.8l-58.9,47.7L611.7,1580.6z
	 M613.6,1417v157.4l56.2-45.8h208.6V1417H613.6z"/>
<path class="st1" d="M859.8,1454.6H669.5c-0.5,0-1-0.2-1.4-0.6c-0.4-0.4-0.6-0.8-0.6-1.4c0-0.5,0.2-1,0.6-1.4
	c0.4-0.4,0.9-0.6,1.4-0.6h190.4c0.5,0,1,0.2,1.4,0.6c0.4,0.4,0.6,0.9,0.6,1.4c0,0.5-0.2,1-0.6,1.4
	C860.8,1454.4,860.3,1454.6,859.8,1454.6z"/>
<path class="st1" d="M859.8,1487.9H669.5c-0.5,0-1-0.2-1.4-0.6c-0.4-0.4-0.6-0.9-0.6-1.4c0-0.5,0.2-1,0.6-1.4
	c0.4-0.4,0.9-0.6,1.4-0.6h190.4c0.5,0,1,0.2,1.4,0.6c0.4,0.4,0.6,0.8,0.6,1.4c0,0.5-0.2,1-0.6,1.4
	C860.8,1487.7,860.3,1487.9,859.8,1487.9z"/>
</svg>
