<?xml version="1.0" encoding="UTF-8"?>
<svg width="413px" height="428px" viewBox="0 0 413 428" version="1.1" xmlns="http://www.w3.org/2000/svg" xmlns:xlink="http://www.w3.org/1999/xlink">
    <title>lightbulb</title>
    <style>
    	.yellow {fill:#F7AE38;}
      .dark-blue {fill:#02133B;}
      .lighter-yellow {fill:#FAD478;}

      .pulse-bright {
        animation: pulsingLight 4s infinite;
        animation-timing-function: ease-in-out;
      }

      .bobbing-light {
        animation: scaling 4s infinite;
        animation-timing-function: ease-in-out;
      }


      @keyframes pulsingLight {
        0% { fill: #F7AE38; }
        50% { fill: #FFDD1D; }
        100% { fill: #F7AE38; }
      }



    </style>
    <g id="Page-1" stroke="none" stroke-width="1" fill="none" fill-rule="evenodd">
        <g id="lightbulb" fill-rule="nonzero">
            <path class="yellow pulse-bright" d="M314.3,211.4 C314.3,232.8 308.4,253.8 297.3,272.1 C286.2,290.4 270.3,305.3 251.3,315.2 L239.8,427.4 L154.1,427.4 L146.4,316.4 C127.8,307.2 112,293.3 100.6,275.9 C89.2,258.6 82.7,238.5 81.6,217.8 C80.6,197.1 85.1,176.5 94.7,158.1 C104.3,139.7 118.6,124.2 136.2,113.2 C153.8,102.2 174,96.1 194.7,95.6 C215.4,95 235.9,100 254.1,110 C272.3,120 287.4,134.7 298,152.5 C308.6,170.3 314.2,190.7 314.3,211.4 Z" id="Path"></path>
            <path class="dark-blue" d="M246.3,368.2 L149.9,368.2 C149.4,368.2 148.9,368 148.5,367.6 C148.1,367.2 147.9,366.8 147.9,366.2 C147.9,365.7 148.1,365.2 148.5,364.8 C148.9,364.4 149.3,364.2 149.9,364.2 L246.3,364.2 C246.8,364.2 247.3,364.4 247.7,364.8 C248.1,365.2 248.3,365.6 248.3,366.2 C248.2,366.7 248,367.1 247.7,367.5 C247.2,367.9 246.8,368.1 246.3,368.2 Z" id="Path"></path>
            <path class="dark-blue" d="M241.3,399.3 L153.7,399.3 C153.2,399.3 152.7,399.1 152.3,398.7 C151.9,398.3 151.7,397.9 151.7,397.3 C151.7,396.8 151.9,396.3 152.3,395.9 C152.7,395.5 153.1,395.3 153.7,395.3 L241.3,395.3 C241.8,395.3 242.3,395.5 242.7,395.9 C243.1,396.3 243.3,396.7 243.3,397.3 C243.3,397.8 243.1,398.3 242.7,398.7 C242.3,399.1 241.8,399.3 241.3,399.3 Z" id="Path"></path>
            <path class="dark-blue" d="M226.3,368.2 C225.8,368.1 225.3,367.8 224.9,367.4 C224.5,367 224.4,366.4 224.4,365.9 L227.1,225.7 L173.3,224.5 L173.3,366.3 C173.2,366.8 173,367.2 172.7,367.6 C172.4,367.9 171.9,368.2 171.4,368.2 C170.9,368.2 170.4,368 170,367.6 C169.6,367.2 169.4,366.8 169.4,366.2 L169.4,224.5 L152.1,224.5 C148.1,223.8 144.5,221.8 141.9,218.7 C139.3,215.6 137.9,211.7 137.9,207.6 C137.9,203.6 139.4,199.7 142.1,196.6 C144.8,193.6 148.4,191.6 152.4,191 L156.2,191 C158.4,191 160.6,191.4 162.7,192.3 C164.8,193.2 166.6,194.4 168.2,196 C169.8,197.6 171,199.4 171.9,201.5 C172.7,203.6 173.2,205.7 173.2,208 L173.2,221.1 L227,222.3 L227,207.7 C227,203.3 228.7,199.1 231.8,196 C234.9,192.9 239.1,191.2 243.5,191.2 C245.7,191.2 247.9,191.6 250,192.5 C252.1,193.4 253.9,194.6 255.5,196.2 C257.1,197.8 258.3,199.6 259.2,201.7 C260.1,203.8 260.5,205.9 260.5,208.2 L260.5,210.1 C260.3,214.5 258.6,218.8 255.5,222 C252.1,225 247.7,226.7 243.2,226.6 L230.5,226.6 L227.8,367.2 C227.6,367.5 227.4,367.7 227.2,367.9 C226.9,368 226.6,368.1 226.3,368.2 Z M230.9,221.8 L244,221.8 C247.4,221.8 250.7,220.6 253.2,218.3 C255.6,215.8 256.9,212.5 257,209.1 L257,207.6 C257,204.1 255.6,200.8 253.2,198.4 C250.8,195.9 247.4,194.6 244,194.6 C240.6,194.6 237.4,195.9 235,198.3 C232.6,200.7 231.3,203.9 231.3,207.3 L230.9,221.8 Z M152.5,194.5 C150.8,194.5 149.1,194.8 147.5,195.5 C145.9,196.2 144.5,197.1 143.3,198.3 C142.1,199.5 141.1,201 140.5,202.5 C139.8,204.1 139.5,205.8 139.5,207.5 C139.5,210.9 140.8,214.1 143.2,216.5 C145.6,218.9 148.8,220.2 152.2,220.2 L169.4,220.2 L169.4,207.5 C169.4,204 168,200.7 165.6,198.3 C163.2,195.9 159.8,194.5 156.4,194.5 L152.5,194.5 Z" id="Shape"></path>
            <path class="lighter-yellow pulse-bright" d="M60.7,144.6 L59.9,144.6 L0.7,105 C0.5,104.8 0.3,104.7 0.2,104.4 C0.1,104.2 0,103.9 0,103.7 C0,103.5 0,103.2 0,103 C0.1,102.8 0.2,102.5 0.3,102.3 C0.6,101.9 1,101.6 1.5,101.5 C2,101.4 2.5,101.4 3,101.6 L61.8,141.2 C62,141.3 62.2,141.5 62.4,141.7 C62.6,141.9 62.7,142.1 62.8,142.4 C62.9,142.7 62.9,142.9 62.9,143.2 C62.9,143.5 62.8,143.7 62.6,143.9 C62.2,144.6 61.5,144.6 60.7,144.6 Z" id="Path"></path>
            <path class="lighter-yellow pulse-bright" d="M127.6,84.6 L125.7,83.8 L88.8,23.5 C88.6,23.3 88.5,23.1 88.5,22.8 C88.4,22.6 88.4,22.3 88.5,22.1 C88.5,21.9 88.6,21.6 88.7,21.4 C88.8,21.2 89,21 89.2,20.8 C90.4,20.4 91.5,20.4 91.9,21.6 L129.2,81.5 C129.6,82.7 129.6,83.8 128.4,84.2 L127.6,84.6 Z" id="Path"></path>
            <path class="lighter-yellow pulse-bright" d="M223.6,69.3 C223.1,69.3 222.6,69.1 222.2,68.7 C221.8,68.3 221.6,67.9 221.6,67.3 L221.6,2 C221.6,1.5 221.8,1 222.2,0.6 C222.6,0.2 223,0 223.6,0 C224.1,0 224.6,0.2 225,0.6 C225.4,1 225.6,1.4 225.6,2 L225.6,67.3 C225.6,67.8 225.4,68.3 225,68.7 C224.6,69.1 224.1,69.3 223.6,69.3 Z" id="Path"></path>
            <path class="lighter-yellow pulse-bright" d="M301.2,93.9 L300,93.9 C298.8,93.5 298.8,92.4 299.2,91.2 L338.8,34 C339.1,33.6 339.6,33.3 340.1,33.2 C340.6,33.1 341.1,33.3 341.5,33.6 C341.9,33.9 342.2,34.4 342.2,34.9 C342.3,35.4 342.1,35.9 341.8,36.3 L302.8,93.1 L301.2,93.9 Z" id="Path"></path>
            <path class="lighter-yellow pulse-bright" d="M340.4,163.4 C339.6,163.4 339.2,163 338.9,162.2 C338.5,161.4 338.5,160.3 339.7,159.5 L409.2,121.5 C410,120.7 411.1,121.1 411.9,122.3 C412.1,122.7 412.1,123.2 411.9,123.6 C411.8,124 411.5,124.4 411.1,124.6 L341.6,163 L340.4,163.4 Z" id="Path"></path>
            <path class="dark-blue" d="M288.6,174.5 C287.8,174.5 287.4,174.1 287.1,173.3 C283.2,163.3 277.4,154.1 269.9,146.4 C262.4,138.7 253.5,132.5 243.6,128.3 C243.2,128.1 242.8,127.8 242.6,127.4 C242.4,127 242.3,126.5 242.5,126 C242.6,125.7 242.7,125.5 242.9,125.3 C243.1,125.1 243.3,124.9 243.6,124.8 C243.9,124.7 244.1,124.6 244.4,124.6 C244.7,124.6 245,124.7 245.2,124.8 C255.6,129.1 265,135.6 272.8,143.7 C280.6,151.8 286.6,161.5 290.5,172.1 C290.6,172.3 290.7,172.6 290.7,172.8 C290.7,173.1 290.7,173.3 290.5,173.5 C290.4,173.7 290.2,173.9 290,174.1 C289.8,174.2 289.5,174.3 289.3,174.4 L288.6,174.4 L288.6,174.5 Z" id="Path"></path>
        </g>
    </g>
</svg>