<?xml version="1.0" encoding="utf-8"?>
<!-- Generator: Adobe Illustrator 26.0.2, SVG Export Plug-In . SVG Version: 6.00 Build 0)  -->
<svg version="1.1" id="Layer_1" xmlns="http://www.w3.org/2000/svg" xmlns:xlink="http://www.w3.org/1999/xlink" x="0px" y="0px"
	 viewBox="0 0 2000 2000" style="enable-background:new 0 0 2000 2000;" xml:space="preserve">
<style type="text/css">
	.st0{fill:#FFFFFF;}
	.st1{fill:#02133B;}
	.st2{fill:#3A81E1;}
	.st3{fill:#F14146;}
	.st4{fill:#F7AE38;}
</style>
<path class="st0" d="M1750.4,490h-640.6v393.9h640.6V490z"/>
<path class="st1" d="M1750,886h-640.2c-0.5,0-1-0.2-1.4-0.6c-0.4-0.4-0.6-0.9-0.6-1.4V490c0-0.5,0.2-1,0.6-1.4
	c0.4-0.4,0.9-0.6,1.4-0.6H1750c0.5,0,1,0.2,1.4,0.6c0.4,0.4,0.6,0.9,0.6,1.4v394c0,0.5-0.2,1-0.6,1.4
	C1751,885.8,1750.5,886,1750,886z M1111.8,882.1H1748V491.9h-636.3V882.1z"/>
<path class="st2" d="M1209.6,488.4v-39.6h14.4l25.2-35.3l-12-16.3l43.1-22.9l12,11.6h39.6l8.9-11.6l47.4,16.3l-5.8,11.6l24.5,46.6
	h13.2v39.6H1209.6z"/>
<path class="st0" d="M1265.9,488.4c0-13,5.2-25.4,14.3-34.6c9.2-9.2,21.6-14.3,34.6-14.3c13,0,25.4,5.2,34.6,14.3
	c9.2,9.2,14.3,21.6,14.3,34.6H1265.9z"/>
<path class="st1" d="M1363.7,490.4c-0.5,0-1-0.2-1.4-0.6c-0.4-0.4-0.6-0.9-0.6-1.4c0-12.5-4.9-24.4-13.8-33.2
	c-8.8-8.8-20.8-13.8-33.2-13.8c-12.5,0-24.4,4.9-33.2,13.8c-8.8,8.8-13.8,20.8-13.8,33.2c0,0.5-0.2,1-0.6,1.4
	c-0.4,0.4-0.9,0.6-1.4,0.6c-0.5,0-1-0.2-1.4-0.6c-0.4-0.4-0.6-0.9-0.6-1.4c0-13.5,5.4-26.4,14.9-36c9.5-9.5,22.5-14.9,36-14.9
	s26.4,5.4,36,14.9c9.5,9.5,14.9,22.5,14.9,36c0,0.5-0.2,1-0.6,1.4C1364.7,490.2,1364.2,490.4,1363.7,490.4z"/>
<path class="st3" d="M1129.2,343.2l5.8,5.8l-12,24.1h-7.8l1.9,29.1h12.8l15.9,16.7l-2.7,10.5l26,8.2l3.5-8.9l26.8-3.5l3.9,7.8
	l22.1-12l-4.3-6.6l7.8-28.3l8.2-1.9l-2.3-26l-6.6,0.4l-16.3-18.6l1.9-8.5l-29.5-9.3l-1.5,7l-24.1,2.3l-5-6.2L1129.2,343.2z"/>
<path class="st0" d="M1176.2,400.3c12,0,21.7-9.7,21.7-21.7c0-12-9.7-21.7-21.7-21.7c-12,0-21.7,9.7-21.7,21.7
	C1154.4,390.6,1164.2,400.3,1176.2,400.3z"/>
<path class="st1" d="M1176.2,402.2c-4.7,0-9.3-1.4-13.1-4c-3.9-2.6-6.9-6.3-8.7-10.6c-1.8-4.3-2.3-9.1-1.3-13.7
	c0.9-4.6,3.2-8.8,6.5-12.1c3.3-3.3,7.5-5.6,12.1-6.5c4.6-0.9,9.4-0.4,13.7,1.3c4.3,1.8,8,4.8,10.6,8.7c2.6,3.9,4,8.5,4,13.2
	c0.1,3.1-0.5,6.2-1.7,9.1c-1.2,2.9-2.9,5.5-5.1,7.7c-2.2,2.2-4.8,4-7.7,5.1C1182.4,401.7,1179.3,402.3,1176.2,402.2z M1176.2,358.8
	c-3.9,0-7.7,1.2-11,3.3c-3.2,2.2-5.8,5.3-7.3,8.9c-1.5,3.6-1.9,7.6-1.1,11.4c0.8,3.8,2.7,7.4,5.4,10.1c2.8,2.8,6.3,4.7,10.1,5.4
	c3.8,0.8,7.8,0.4,11.4-1.1c3.6-1.5,6.7-4,8.9-7.3c2.2-3.3,3.3-7.1,3.3-11c0.1-2.6-0.4-5.2-1.4-7.6c-1-2.4-2.4-4.6-4.3-6.5
	c-1.9-1.8-4.1-3.3-6.5-4.3C1181.4,359.2,1178.8,358.7,1176.2,358.8z"/>
<path class="st1" d="M1687.9,860h-547.4c-0.5,0-1-0.2-1.4-0.6c-0.4-0.4-0.6-0.9-0.6-1.4V594c0-0.5,0.2-1,0.6-1.4
	c0.4-0.4,0.9-0.6,1.4-0.6c0.5,0,1,0.2,1.4,0.6c0.4,0.4,0.6,0.9,0.6,1.4v262h545.4c0.5,0,1,0.2,1.4,0.6c0.4,0.4,0.6,0.9,0.6,1.4
	c0,0.5-0.2,1-0.6,1.4C1688.9,859.8,1688.4,860,1687.9,860z"/>
<path class="st1" d="M1140.5,581.2c-3.2,0-6.4-1-9.1-2.7c-2.7-1.8-4.8-4.3-6-7.3c-1.2-3-1.6-6.3-0.9-9.4c0.6-3.2,2.2-6.1,4.5-8.3
	c2.3-2.3,5.2-3.8,8.4-4.5c3.2-0.6,6.4-0.3,9.4,0.9c3,1.2,5.5,3.3,7.3,6c1.8,2.7,2.8,5.8,2.8,9.1c0,4.3-1.7,8.5-4.8,11.5
	C1148.9,579.5,1144.8,581.2,1140.5,581.2z M1140.5,552.5c-3.3,0-6.5,1.3-8.8,3.6c-2.3,2.3-3.6,5.5-3.6,8.8s1.3,6.5,3.6,8.8
	c2.3,2.3,5.5,3.6,8.8,3.6c3.3-0.1,6.4-1.4,8.7-3.7c2.3-2.3,3.7-5.4,3.8-8.7c0-3.3-1.3-6.5-3.6-8.8
	C1146.9,553.8,1143.8,552.5,1140.5,552.5z"/>
<path class="st1" d="M1714.7,869.7c-3.2,0-6.4-1-9.1-2.7c-2.7-1.8-4.8-4.3-6-7.3c-1.2-3-1.6-6.3-0.9-9.4c0.6-3.2,2.2-6.1,4.5-8.3
	c2.3-2.3,5.2-3.8,8.3-4.5c3.2-0.6,6.4-0.3,9.4,0.9s5.5,3.3,7.3,6c1.8,2.7,2.8,5.8,2.8,9.1c0,4.3-1.7,8.5-4.8,11.5
	C1723.1,867.9,1719,869.7,1714.7,869.7z M1714.7,840.9c-3.3,0-6.5,1.3-8.8,3.6c-2.3,2.3-3.6,5.5-3.6,8.8c0,3.3,1.3,6.5,3.6,8.8
	c2.3,2.3,5.5,3.6,8.8,3.6c3.3,0,6.5-1.3,8.8-3.6c2.3-2.3,3.6-5.5,3.6-8.8c-0.1-3.3-1.4-6.4-3.8-8.7
	C1721,842.4,1717.9,841,1714.7,840.9z"/>
<path class="st4" d="M1251.9,701.2h-61V856h61V701.2z"/>
<path class="st3" d="M1354.4,701.2h-78V856h78V701.2z"/>
<path class="st3" d="M1490.7,701.2h-14.4V856h14.4V701.2z"/>
<path class="st4" d="M1576.8,701.2h-39.2V856h39.2V701.2z"/>
<path class="st3" d="M1648.3,701.2h-47.8V856h47.8V701.2z"/>
<path class="st4" d="M1442.5,701.2h-30.3V856h30.3V701.2z"/>
<path class="st4" d="M1779.9,400.3l15.9-91.6l59.4,69.9L1779.9,400.3z"/>
<path class="st1" d="M1796.6,411.9l-1.2-0.8c-0.3-0.2-0.5-0.4-0.6-0.7c-0.1-0.3-0.2-0.6-0.2-0.9l16.3-92c0-0.8,0.4-1.2,1.2-1.6
	c0.8-0.4,1.6,0,1.9,0.8l59.8,69.9c0.3,0.6,0.4,1.3,0.4,1.9c-0.4,0.8-0.8,1.2-1.5,1.2l-75.7,21.7L1796.6,411.9z M1814,322.3l-15.1,85
	l69.9-20.2L1814,322.3z"/>
<path class="st1" d="M1705.3,554.4c-5.2-0.1-10.1-2.2-13.8-5.9c-3.6-3.7-5.7-8.7-5.7-13.9v-93.2c0-0.5,0.2-1,0.6-1.4
	c0.4-0.4,0.9-0.6,1.4-0.6c0.5,0,1,0.2,1.4,0.6c0.4,0.4,0.6,0.9,0.6,1.4v93.2c-0.4,2.3-0.2,4.6,0.4,6.8c0.6,2.2,1.7,4.3,3.2,6
	c1.5,1.7,3.3,3.2,5.4,4.1c2.1,1,4.4,1.5,6.7,1.5c2.3,0,4.6-0.5,6.7-1.5c2.1-1,4-2.4,5.4-4.1c1.5-1.7,2.6-3.8,3.2-6
	c0.6-2.2,0.8-4.5,0.4-6.8V455c0-1.6-0.3-3.1-0.9-4.5c-0.6-1.4-1.5-2.7-2.6-3.8c-1.1-1.1-2.5-1.9-3.9-2.5c-1.5-0.6-3-0.8-4.6-0.8
	h-2.3c-2.5,0-4.9,1-6.7,2.7c-1.8,1.7-2.9,4.1-3,6.6v54.4c0,0.5-0.2,1-0.6,1.4c-0.4,0.4-0.8,0.6-1.4,0.6c-0.5-0.1-0.9-0.3-1.3-0.7
	c-0.3-0.3-0.6-0.8-0.7-1.3v-54.4c0.1-3.5,1.6-6.9,4.1-9.4c2.5-2.5,5.9-3.8,9.5-3.8h2.3c2.1-0.1,4.1,0.3,6.1,1.1
	c1.9,0.8,3.7,1.9,5.2,3.3c1.5,1.4,2.7,3.2,3.5,5.1c0.8,1.9,1.2,4,1.2,6v79.6c0,2.6-0.5,5.2-1.5,7.6c-1,2.4-2.5,4.6-4.3,6.4
	c-1.8,1.8-4,3.3-6.4,4.3S1707.9,554.4,1705.3,554.4z"/>
<path class="st1" d="M1506.6,559.5h-153.3c-0.5,0-1-0.2-1.4-0.6s-0.6-0.9-0.6-1.4c0-0.5,0.2-1,0.6-1.4s0.9-0.6,1.4-0.6h153.3
	c0.5,0,1,0.2,1.4,0.6c0.4,0.4,0.6,0.9,0.6,1.4c0,0.5-0.2,1-0.6,1.4C1507.6,559.3,1507.1,559.5,1506.6,559.5z"/>
<path class="st1" d="M1665.3,596h-469c-0.5,0-1-0.2-1.4-0.6c-0.4-0.4-0.6-0.9-0.6-1.4v-73c0-0.5,0.2-1,0.6-1.4
	c0.4-0.4,0.8-0.6,1.4-0.6h469c0.5,0,1,0.2,1.4,0.6c0.4,0.4,0.6,0.9,0.6,1.4v73c0,0.5-0.2,1-0.6,1.4
	C1666.4,595.8,1665.9,596,1665.3,596z M1198.3,592.1h465.1V523h-465.1V592.1z"/>
<path class="st1" d="M1624.6,1863.1H848.9c-0.5,0-1-0.2-1.4-0.6c-0.4-0.4-0.6-0.9-0.6-1.4c0-0.5,0.2-1,0.6-1.4
	c0.4-0.4,0.9-0.6,1.4-0.6h775.7c0.5,0,1,0.2,1.4,0.6c0.4,0.4,0.6,0.8,0.6,1.4c0,0.5-0.2,1-0.6,1.4
	C1625.6,1862.9,1625.1,1863.1,1624.6,1863.1z"/>
<path class="st3" d="M630.4,818v98.2h-71l-12-58.2l-12,58.2h-54.4l20.6-232.9l92,1.2L630.4,818z"/>
<path class="st0" d="M754.6,858H625.7v82.6h128.9V858z"/>
<path class="st1" d="M754.6,942.6H625.7c-0.5,0-1-0.2-1.4-0.6c-0.4-0.4-0.6-0.9-0.6-1.4V858c0-0.5,0.2-1,0.6-1.4
	c0.4-0.4,0.9-0.6,1.4-0.6h128.9c0.5,0,1,0.2,1.4,0.6c0.4,0.4,0.6,0.9,0.6,1.4v82.7c0,0.5-0.2,1-0.6,1.4S755.1,942.6,754.6,942.6z
	 M627.6,938.8h125V860h-125V938.8z"/>
<path class="st3" d="M686.3,519.1c31.3,0,56.7-25.4,56.7-56.7s-25.4-56.7-56.7-56.7c-31.3,0-56.7,25.4-56.7,56.7
	S655,519.1,686.3,519.1z"/>
<path class="st3" d="M688.6,405.7c20.8,0,37.7-16.9,37.7-37.7c0-20.8-16.9-37.7-37.7-37.7c-20.8,0-37.7,16.9-37.7,37.7
	C650.9,388.9,667.8,405.7,688.6,405.7z"/>
<path class="st0" d="M535.2,757.9c20.6,0,37.3-16.7,37.3-37.3s-16.7-37.3-37.3-37.3S498,700,498,720.6S514.7,757.9,535.2,757.9z"/>
<path class="st1" d="M543.4,721h-0.8l-31.1-15.1c-0.3,0-0.6-0.2-0.8-0.4c-0.2-0.2-0.4-0.5-0.5-0.7c-0.1-0.3-0.1-0.6,0-0.9
	c0.1-0.3,0.3-0.5,0.5-0.7c0.2-0.4,0.6-0.7,1-0.8c0.4-0.1,0.9-0.1,1.3,0l31.4,15.5c0.4,0.2,0.7,0.6,0.8,1c0.1,0.4,0.1,0.9,0,1.3
	c-0.2,0.3-0.5,0.5-0.9,0.7C544.1,721,543.8,721,543.4,721z"/>
<path class="st0" d="M716.2,893H654c-28.3,0-55.5-11.2-75.5-31.3c-20-20-31.3-47.2-31.3-75.5V642.9c0-28.3,11.2-55.5,31.3-75.5
	c20-20,47.2-31.3,75.5-31.3h62.1c28.3,0,55.5,11.2,75.5,31.3c20,20,31.3,47.2,31.3,75.5v143.3C822.9,845.2,791.1,893,716.2,893z"/>
<path class="st1" d="M716.1,894.9H654c-28.8,0-56.5-11.5-76.9-31.8c-20.4-20.4-31.8-48-31.8-76.9V642.9c0.1-28.8,11.6-56.4,32-76.8
	c20.4-20.4,48-31.8,76.8-32h62.1c28.8,0,56.5,11.5,76.9,31.8c20.4,20.4,31.8,48,31.8,76.9v143.3
	C824.9,854.1,784.5,894.9,716.1,894.9z M654,538.1c-27.8,0-54.5,11-74.1,30.7c-19.7,19.7-30.7,46.3-30.7,74.1v143.3
	c0,27.8,11,54.5,30.7,74.1C599.6,880,626.2,891,654,891h62.1c65.6,0,104.8-39.2,104.8-104.8V642.9c0-27.8-11-54.5-30.7-74.1
	c-19.7-19.7-46.3-30.7-74.1-30.7H654z"/>
<path class="st3" d="M566.7,641.8c-0.5,0-1-0.2-1.4-0.6c-0.4-0.4-0.6-0.9-0.6-1.4c0-0.5,0.2-1,0.6-1.4c0.4-0.4,0.9-0.6,1.4-0.6
	c72.6-0.8,107.1-66.8,107.5-67.5c0.2-0.4,0.6-0.7,1-0.8c0.4-0.1,0.9-0.1,1.3,0c0.3,0.1,0.5,0.2,0.7,0.4c0.2,0.2,0.4,0.4,0.5,0.7
	c0.1,0.3,0.2,0.5,0.2,0.8s-0.1,0.6-0.2,0.8C677.3,573.1,642,641,566.7,641.8z"/>
<path class="st3" d="M716.2,536.2c0,0-44.3,98.2-157.2,95.5l-9.7,53.2l-47.8-1.6c0,0-2.3-172,166.5-162.3
	c0,0,163.4-28.7,180.9,156.1c17.5,184.8,26.8,234.5,26.8,234.5h-46.2L813.2,839l-7.8,72.6H762L716.2,536.2z"/>
<path class="st1" d="M605.1,727.2c8.8,0,15.9-7.1,15.9-15.9c0-8.8-7.1-15.9-15.9-15.9s-15.9,7.1-15.9,15.9
	C589.2,720.1,596.3,727.2,605.1,727.2z"/>
<path class="st0" d="M625.7,919.4c-156.5,6.2-356,52.4-453.4,228.7c-97.4,176.2-253.1,812.2,37.3,766
	c290.4-46.2,399.5-507.4,399.5-507.4l611.4-104l-6.2-260.1L842.7,932.9L625.7,919.4z"/>
<path class="st1" d="M180.8,1918.2c-42.7,0-76.1-17.1-99.4-50.5c-61.3-87-41.2-264.8-23.7-362.6c23.3-133.2,69.9-280.3,112.6-357.9
	c99-178.6,302-223.6,455-229.8c1.2-0.4,1.9,0.8,2.3,1.6c0,0.6-0.2,1.1-0.5,1.5c-0.4,0.4-0.9,0.7-1.4,0.8
	c-152.2,6.2-354.1,50.9-451.9,227.9c-75.3,135.9-192.6,569.1-89.3,716.3c27.6,39.6,69.9,55.1,124.6,46.6
	c82.7-13.2,202.7-70.7,307.1-269.8c38.9-75.1,69.4-154.2,90.8-236c0-0.4,0.2-0.8,0.5-1.1c0.3-0.3,0.7-0.5,1.1-0.5l609.5-103.7
	l-5.8-257L841.9,934.9c-0.8-0.4-1.6-1.6-1.2-2.3c0.2-0.5,0.5-0.9,0.9-1.2c0.4-0.3,0.9-0.4,1.4-0.4l371.9,109.5
	c0.4,0.2,0.7,0.4,0.9,0.8c0.2,0.3,0.3,0.8,0.3,1.2l6.2,260.1c0,0.5-0.2,1-0.6,1.4c-0.4,0.4-0.9,0.6-1.4,0.6l-609.9,103.7
	c-21.6,81.6-52.1,160.6-90.8,235.7c-57.8,110.7-158.8,248.1-309.8,272.2C200.3,1917.4,190.5,1918.2,180.8,1918.2z"/>
<path class="st0" d="M842.7,932.9c0,0-34.2-6.6-87.3-10.9L842.7,932.9z"/>
<path class="st1" d="M842.7,934.9h-0.4c-0.4,0-34.6-6.6-87.4-10.9c-1.2-0.4-1.9-1.2-1.6-2.3c0.4-1.2,0.8-1.9,1.9-1.6
	c52.8,4.3,87.4,10.9,87.7,10.9c0.4,0.2,0.8,0.5,1.1,0.9c0.3,0.4,0.4,0.9,0.5,1.4c-0.2,0.4-0.4,0.7-0.8,1
	C843.5,934.6,843.1,934.8,842.7,934.9z"/>
<path class="st0" d="M687,953.1c0,0,194.1-90.1,206.9-62.1c12.8,28-104,110.3-104,110.3L687,953.1z"/>
<path class="st1" d="M789.9,1003.2c-0.4,0-0.8,0-0.8-0.4l-102.9-47.7c-0.4-0.2-0.7-0.4-0.9-0.8c-0.2-0.3-0.3-0.8-0.3-1.2
	c0-0.8,0.4-1.2,1.2-1.6c0.8-0.4,49.3-22.9,98.6-41.9c102.1-38.4,108.7-24.1,111-19.4c13.2,28.7-92.8,104-104.8,112.6L789.9,1003.2z
	 M691.7,953.1l97.8,45.8c33-23.3,113-85.4,102.9-107.1c-2.3-4.7-17.1-12-106,21.7C744.9,929.1,704.1,947.7,691.7,953.1z"/>
<path class="st4" d="M806,850.7l-0.4-0.1c-16.5-3.8-33,6.5-36.8,23l-101,437.3c-3.8,16.5,6.5,33,23,36.8l0.4,0.1
	c16.5,3.8,33-6.5,36.8-23l101-437.3C832.8,871,822.5,854.5,806,850.7z"/>
<path class="st0" d="M235.9,1490.4c0,0,153.3-604.9,451.1-537.3c155.3,35.3,219,100.9,224.8,132c5.8,31.1-62.9,0-62.9,0
	s95.1,55.5-28.3,52c0,0,92.4,77.2-128.1,17.5c0,0,100.9,69.5,98.6,94.7c-2.3,25.2-136.7-32.2-136.7-32.2s-49.3,176.6-57.5,205
	L235.9,1490.4z"/>
<path class="st1" d="M235.9,1492.4h-0.4c-1.2,0-1.6-1.2-1.6-2.3c0-1.2,39.2-153,114.1-294.3c43.9-83.1,91.6-146.8,141.7-188.7
	c62.5-52.4,129.3-71.4,197.6-55.9c87,19.8,139.8,47.8,169.3,67.9c29.5,20.2,53.6,46.6,57.1,66c0.7,2.1,0.7,4.3,0.1,6.4
	c-0.6,2.1-1.9,3.9-3.6,5.3c-8.5,7-30.7,1.5-46.2-3.5c11.3,8.2,24.1,20.6,21.4,30.7c-2.7,10.1-22.5,15.9-59.8,15.1
	c7.4,6.6,20.2,21,14.8,31.1c-5.4,10.1-52.8,11.7-137.8-10.9c24.8,17.9,92.4,68.3,90.5,90.1c0,1.3-0.4,2.5-1.1,3.6
	c-0.7,1.1-1.6,2-2.8,2.6c-19,11.6-117.6-29.1-133.5-36.1c-5.4,20.2-49.3,177-56.7,203.4c-0.1,0.3-0.2,0.5-0.4,0.7
	c-0.2,0.2-0.4,0.4-0.7,0.5c-0.3,0.1-0.5,0.2-0.8,0.2c-0.3,0-0.6-0.1-0.8-0.2c-0.4-0.2-0.8-0.5-1-0.9c-0.2-0.4-0.3-0.9-0.1-1.4
	c8.2-27.9,57.1-203.4,57.5-205.4l0.8-1.2h1.9c31.4,13.6,116.5,46.2,132,36.9c0.6-0.3,1.1-0.7,1.4-1.3c0.3-0.6,0.5-1.2,0.5-1.8
	c1.9-19.8-69.9-73.8-97.8-92.8c-0.8-0.4-0.8-1.6-0.4-2.3c0.4-0.8,1.2-1.5,1.9-1.2c116.1,31.4,140.1,23.3,144.4,15.5
	c4.3-7.8-11.6-24.4-17.9-29.5c-0.3-0.3-0.5-0.7-0.7-1.1c-0.1-0.4-0.2-0.8-0.1-1.3c0.2-0.4,0.4-0.7,0.8-0.9c0.3-0.2,0.8-0.3,1.2-0.3
	c47.4,1.2,59-5.8,61-12.4c1.9-6.6-23.3-29.5-33.8-35.7c-0.5-0.3-0.8-0.7-1-1.2s-0.1-1.1,0.2-1.5c0.3-0.5,0.7-0.8,1.2-0.9
	c0.5-0.2,1.1-0.1,1.5,0.2c12.8,5.4,48.5,17.9,58.2,10.1c2.3-1.6,2.7-4.3,1.9-8.2c-5.8-32.2-71.8-95.9-223.2-130.4
	c-67.2-15.1-132.8,3.5-194.5,55.1c-49.3,41.5-96.7,104.4-140.5,187.1c-74.5,140.9-113.4,292.3-113.7,293.9c-0.2,0.4-0.4,0.7-0.8,0.9
	C236.7,1492.3,236.3,1492.4,235.9,1492.4z"/>
<path class="st1" d="M842.7,1125.1h-1.2c-7-5-10.5-10.9-10.1-17.1c0.4-6.2,8.9-18.2,13.6-22.1l-140.5-66c-0.3-0.1-0.5-0.2-0.7-0.4
	c-0.2-0.2-0.4-0.4-0.5-0.7c-0.1-0.3-0.2-0.5-0.2-0.8c0-0.3,0.1-0.5,0.2-0.8c0.3-0.4,0.8-0.6,1.2-0.8c0.5-0.1,1-0.1,1.5,0l143.6,67.2
	c0.8,0.4,1.2,0.8,1.2,1.6c0,0.7-0.3,1.4-0.8,1.9c-0.4,0-14.8,9.7-14.8,20.6s2.7,9.7,8.5,14c5.8,4.3,0.8,1.6,0.4,2.7L842.7,1125.1z"
	/>
<path class="st1" d="M820.6,1139.1h-0.8l-147.9-51.6c-0.3,0-0.5-0.1-0.7-0.3c-0.2-0.1-0.4-0.3-0.5-0.6c-0.1-0.2-0.2-0.5-0.2-0.8
	c0-0.3,0.1-0.5,0.2-0.7c0-0.2,0.1-0.5,0.3-0.7c0.1-0.2,0.3-0.4,0.6-0.5c0.2-0.1,0.5-0.2,0.7-0.2c0.3,0,0.5,0.1,0.7,0.2l148.3,51.6
	c0.8,0.4,1.6,1.6,1.2,2.3c-0.2,0.3-0.5,0.6-0.8,0.8C821.3,1138.9,821,1139,820.6,1139.1z"/>
<path class="st1" d="M692.5,1156.6h-0.8l-37.3-13.2c-0.3-0.2-0.6-0.6-0.7-1c-0.1-0.4-0.1-0.8,0-1.2c0.1-0.4,0.4-0.7,0.7-1
	c0.3-0.2,0.7-0.4,1.1-0.4l37.7,12.8c0.5,0.2,0.9,0.7,1.1,1.1c0.2,0.5,0.2,1.1,0.1,1.6c-0.2,0.4-0.4,0.7-0.8,0.9
	C693.3,1156.5,692.9,1156.6,692.5,1156.6z"/>
<path class="st4" d="M831.1,883.6c113,0,204.6-91.6,204.6-204.6s-91.6-204.6-204.6-204.6c-113,0-204.6,91.6-204.6,204.6
	S718.1,883.6,831.1,883.6z"/>
<path class="st0" d="M831.1,848.3c92.4,0,167.3-74.9,167.3-167.3s-74.9-167.3-167.3-167.3c-92.4,0-167.3,74.9-167.3,167.3
	S738.7,848.3,831.1,848.3z"/>
<path class="st1" d="M831.1,850.6c-33.6,0.1-66.4-9.8-94.4-28.4c-28-18.6-49.8-45.1-62.7-76.1c-12.9-31-16.3-65.1-9.8-98.1
	s22.6-63.2,46.3-87c23.7-23.8,53.9-40,86.9-46.5c32.9-6.6,67.1-3.2,98.1,9.6c31,12.8,57.5,34.6,76.2,62.5
	c18.7,27.9,28.6,60.7,28.6,94.3c0,44.9-17.8,88-49.6,119.8S876,850.5,831.1,850.6z M831.1,515.6c-32.8-0.1-64.9,9.6-92.2,27.8
	c-27.3,18.2-48.6,44.1-61.2,74.4c-12.6,30.3-15.9,63.7-9.5,95.9c6.4,32.2,22.2,61.8,45.4,85c23.2,23.2,52.8,39,85,45.4
	c32.2,6.4,65.6,3.1,95.9-9.5c30.3-12.6,56.2-33.9,74.4-61.2c18.2-27.3,27.9-59.4,27.8-92.2c-0.1-43.8-17.6-85.8-48.6-116.8
	C916.9,533.2,874.9,515.7,831.1,515.6z"/>
<path class="st1" d="M831.1,715.5c-79.6,0-145.2-34.6-146-34.9c-0.2-0.2-0.4-0.4-0.6-0.7c-0.1-0.3-0.2-0.6-0.2-0.9
	c0-0.7,0.3-1.4,0.8-1.9c0.8,0,66.4-34.6,146-34.6s144.8,34.6,145.6,34.6c0.5,0.5,0.8,1.2,0.8,1.9c0,0.3-0.1,0.6-0.2,0.9
	c-0.1,0.3-0.3,0.5-0.6,0.7C975.9,681,910.3,715.5,831.1,715.5z M690.5,679c14.4,7,72.2,32.6,140.5,32.6S956.8,686,971.2,679
	c-14.4-7-72.2-32.6-140.1-32.6S704.9,672.1,690.5,679z"/>
<path class="st1" d="M835.7,713.6c19.1,0,34.6-15.5,34.6-34.6c0-19.1-15.5-34.6-34.6-34.6c-19.1,0-34.6,15.5-34.6,34.6
	C801.2,698.1,816.6,713.6,835.7,713.6z"/>
<path class="st1" d="M959.2,631.3c-0.4,0-0.8-0.1-1.2-0.3c-0.3-0.2-0.6-0.5-0.8-0.9c-13-33.5-38.8-60.5-71.7-75.1
	c-32.9-14.6-70.2-15.5-103.8-2.6c-0.2,0.2-0.5,0.3-0.8,0.4c-0.3,0.1-0.6,0-0.9-0.1c-0.3-0.1-0.6-0.3-0.8-0.5
	c-0.2-0.2-0.4-0.5-0.5-0.8s-0.1-0.6-0.1-0.9c0-0.3,0.2-0.6,0.3-0.8c0.2-0.2,0.4-0.5,0.7-0.6c0.3-0.1,0.6-0.2,0.9-0.2
	c17.1-6.7,35.3-10,53.6-9.6c18.3,0.4,36.4,4.5,53.1,11.9c33.8,15,60.4,42.8,73.8,77.3c0.2,0.5,0.1,1.1-0.1,1.6
	c-0.2,0.5-0.6,0.9-1.1,1.2H959.2z"/>
<path class="st0" d="M887,1046.3c0,0-26,21,0,38.8V1046.3z"/>
<path class="st1" d="M887,1087.1h-1.2c-7.8-5.8-12-12-12-19s11.6-22.9,12-23.3c0.4-0.3,0.9-0.4,1.4-0.4c0.5,0.1,1,0.3,1.3,0.8
	c0.2,0.2,0.4,0.4,0.5,0.7s0.1,0.5,0.1,0.8s-0.2,0.6-0.3,0.8c-0.2,0.2-0.4,0.4-0.7,0.5c0,0-10.9,9.3-10.5,19.8
	c0.4,10.5,3.5,11.3,10.5,15.9c0.4,0.3,0.7,0.8,0.8,1.3c0.1,0.5-0.1,1-0.4,1.4C888.1,1087.1,887.7,1087.1,887,1087.1z"/>
<path class="st1" d="M816.3,1172.5h-1.2c-8-5.4-11.9-11.2-11.6-17.5c0.8-10.9,15.5-17.8,16.3-18.2c0.5-0.1,1-0.1,1.5,0
	c0.5,0.1,0.9,0.4,1.2,0.8c0.1,0.3,0.2,0.5,0.2,0.8c0,0.3,0,0.6-0.2,0.8s-0.3,0.5-0.5,0.7c-0.2,0.2-0.5,0.3-0.7,0.4
	c0,0-13.2,6.6-14,15.1c-0.8,8.5,3.1,8.9,10.1,13.6c0.4,0.3,0.7,0.8,0.8,1.3c0.1,0.5-0.1,1-0.4,1.4
	C817.5,1172.5,817.1,1172.5,816.3,1172.5z"/>
<path class="st1" d="M755,1242.3c-0.4-0.1-0.8-0.3-1.2-0.5c-0.3-0.3-0.6-0.6-0.8-1c0-1.9-2.7-18.2,5-23.3c7.8-5.1,9.3-1.9,16.3,2.3
	c0.2,0.2,0.4,0.3,0.5,0.6s0.2,0.5,0.3,0.7c0,0.3,0,0.5,0,0.8c-0.1,0.2-0.2,0.5-0.3,0.7c-0.3,0.4-0.7,0.7-1.2,0.8
	c-0.5,0.1-1,0.1-1.5-0.1c-3.5-2.3-8.9-4.7-12-2.7c-3.1,1.9-3.9,15.1-3.1,19.4c0.1,0.3,0.2,0.5,0.2,0.8c0,0.3-0.1,0.6-0.3,0.8
	c-0.2,0.2-0.4,0.4-0.7,0.5c-0.3,0.1-0.6,0.2-0.9,0.1H755z"/>
<path class="st1" d="M179.2,1370.8c-78.8,0-85.8-17.8-86.2-19c-0.4-1.2,0.4-1.9,1.6-2.3c0.2-0.1,0.5-0.2,0.7-0.2s0.5,0,0.7,0.2
	c0.2,0.1,0.4,0.3,0.6,0.5c0.1,0.2,0.2,0.5,0.3,0.7c0,0.4,14.4,28.7,179.7,9.7c0.5,0,1,0.2,1.4,0.6c0.4,0.4,0.6,0.9,0.6,1.4
	c0.4,1.2-0.4,1.9-1.6,1.9C244.6,1368.2,211.9,1370.5,179.2,1370.8z"/>
<path class="st1" d="M171.5,1410.1c-53.2,0-73.8-8.9-82.3-15.5c-2.8-1.9-4.8-4.8-5.4-8.2c-0.4-0.8,0.4-1.9,1.6-1.9
	c1.2,0,1.9,0.4,2.3,1.6c0.4,1.2,7.8,33,173.1,14c0.6,0,1.1,0.2,1.5,0.5c0.4,0.4,0.7,0.8,0.8,1.4c0,0.5-0.2,1-0.6,1.4
	c-0.4,0.4-0.9,0.6-1.4,0.6C231.4,1407.6,201.5,1409.7,171.5,1410.1z"/>
<path class="st1" d="M687,953.1l65.2-8.2l-5,23.3L687,953.1z"/>
<path class="st1" d="M669.6,893l85,23.3l0.8-28.7C755.4,887.5,685.1,897.2,669.6,893z"/>
<path class="st0" d="M566.7,923.6c0,0,6.6,24.8,32.6,28.7L566.7,923.6z"/>
<path class="st1" d="M599.3,954.3c-8-1.4-15.5-4.9-21.6-10.3c-6.1-5.3-10.6-12.3-13-20c-0.4-1.2,0.4-1.9,1.6-2.3
	c1.2-0.4,1.9,0.4,2.3,1.2c2,7.1,6,13.5,11.5,18.3c5.5,4.9,12.3,8.1,19.6,9.2c1.2,0.4,1.9,1.2,1.6,2.3c-0.1,0.4-0.3,0.8-0.7,1.1
	C600.2,954.2,599.8,954.3,599.3,954.3z"/>
<path class="st1" d="M538.3,759.8c-10.8,0.6-21.5-2.9-29.9-9.7c-4.1-3.7-7.3-8.3-9.4-13.4c-2.1-5.1-3.2-10.6-3-16.1
	c-0.1-5.4,1.1-10.8,3.3-15.8c2.2-5,5.5-9.4,9.5-13c6.6-5.8,18.6-12,38.8-8.9c0.4,0.2,0.8,0.5,1.1,0.9c0.3,0.4,0.4,0.9,0.5,1.4
	c0,1.2-1.2,1.6-2.3,1.6c-14.8-2.3-27.2,0.4-35.7,7.8c-3.5,3.4-6.4,7.4-8.3,11.9c-1.9,4.5-3,9.3-3,14.2c0,4.9,0.9,9.7,2.8,14.2
	c1.9,4.5,4.6,8.6,8.1,12c8.5,7.4,21,10.5,36.1,8.5c1.2,0,2.3,0.8,2.3,1.6c0,0.8-0.8,2.3-1.6,2.3L538.3,759.8z"/>
<path class="st1" d="M526.3,735.7c-0.5-0.1-0.9-0.3-1.3-0.7c-0.3-0.3-0.6-0.8-0.7-1.3V712c0-0.5,0.2-1,0.6-1.4
	c0.4-0.4,0.9-0.6,1.4-0.6c0.5,0,1,0.2,1.4,0.6c0.4,0.4,0.6,0.9,0.6,1.4v21.7c0,0.5-0.2,1-0.6,1.4
	C527.3,735.5,526.8,735.7,526.3,735.7z"/>
<path class="st0" d="M605.1,827c0,0,23.3,34.9,58.2,21.7L605.1,827z"/>
<path class="st1" d="M647.4,853.4c-26.8,0-43.5-24.8-43.9-25.2c-0.4-0.4-0.4-2.3,0.8-2.7c0.4-0.3,0.9-0.4,1.4-0.4
	c0.5,0.1,1,0.3,1.3,0.8c0.8,1.6,22.5,33.8,55.5,21c0.3-0.1,0.5-0.2,0.8-0.2s0.6,0,0.8,0.2c0.3,0.1,0.5,0.3,0.7,0.5
	c0.2,0.2,0.3,0.5,0.4,0.7c0.1,0.2,0.2,0.5,0.2,0.7c0,0.3,0,0.5-0.2,0.7c-0.1,0.2-0.3,0.4-0.5,0.6c-0.2,0.1-0.5,0.2-0.7,0.3
	C658.8,852.4,653.2,853.4,647.4,853.4z"/>
<path class="st2" d="M254.2,697.3l-60.9,49.5l49.4,60.8l60.9-49.5L254.2,697.3z"/>
<path class="st1" d="M211.5,808.7c-0.3,0-0.6,0-0.9-0.2c-0.3-0.1-0.5-0.4-0.7-0.6l-49.3-60.6c-0.3-0.4-0.4-0.9-0.4-1.4
	c0.1-0.5,0.3-1,0.8-1.3l60.6-49.7c0.8-0.4,2.3-0.4,2.7,0.4l49.7,61c0.2,0.4,0.3,0.9,0.2,1.4c-0.1,0.5-0.3,0.9-0.6,1.3l-60.9,49.3
	L211.5,808.7z M164.9,746.2l47,57.8l57.8-47l-47-57.8L164.9,746.2z"/>
<path class="st1" d="M284.4,538.1l-1.9-0.8c-0.1-0.3-0.2-0.5-0.2-0.8c0-0.3,0-0.6,0.2-0.8c0.1-0.3,0.3-0.5,0.5-0.7
	c0.2-0.2,0.5-0.3,0.7-0.4l37.3-19.8c0.8-0.8,1.9-0.4,2.7,0.8c0.1,0.5,0.1,1,0,1.5c-0.1,0.5-0.4,0.9-0.8,1.2l-37.7,19.8H284.4z"/>
<path class="st1" d="M1307.8,1535.5h-145.2c-77.6,0-140.9-47.4-140.9-105.6v-105.6h286.1V1535.5z"/>
<path class="st1" d="M1616.8,1379h-127.7c-68.7,0-124.6-47.4-124.6-105.6v-105.6h252.3V1379z"/>
<path class="st2" d="M1676.2,983.4v314.8c0,5.8-0.4,11.7-1.2,17.5c-1,6.6-2.4,13-4.3,19.4c-21,69.5-123.5,55.1-124.6-17.5v-35.7
	c0-20.9-8.3-40.9-23.1-55.7c-14.8-14.8-34.8-23.1-55.7-23.1c-20.9,0-40.9,8.3-55.7,23.1s-23.1,34.8-23.1,55.7v35.7l-1.9,139
	c0,20.9-8.3,40.9-23.1,55.7s-34.8,23.1-55.7,23.1c-21.9,0-43-8.7-58.5-24.2c-15.5-15.5-24.2-36.5-24.2-58.5v-39.2
	c0.3-17.9-6-35.3-17.7-48.9c-11.7-13.6-27.9-22.4-45.6-24.9h-20.6c-19.6,0-38.3,7.8-52.2,21.6c-13.8,13.8-21.6,32.6-21.6,52.2
	c0,19.7-3.9,39.2-11.4,57.3c-7.5,18.2-18.6,34.7-32.5,48.6c-13.9,13.9-30.4,25-48.6,32.5c-18.2,7.5-37.7,11.4-57.3,11.4H511.6
	l106.8-176.2c8.6-14.5,20.8-26.4,35.5-34.7c14.6-8.3,31.2-12.7,48-12.6H885v-51.6c0.1-22.6,9.1-44.2,25.2-60.1
	c16-15.9,37.7-24.9,60.3-24.9h209.2V983.4H1676.2z"/>
<path class="st1" d="M1161.1,1344.1l-438.7-1.2c-0.5,0-1-0.2-1.4-0.6c-0.4-0.4-0.6-0.9-0.6-1.4c0-0.5,0.2-1,0.6-1.4s0.9-0.6,1.4-0.6
	l438.7,1.2c0.5,0,1,0.2,1.4,0.6c0.4,0.4,0.6,0.8,0.6,1.4c-0.1,0.5-0.3,0.9-0.7,1.3C1162,1343.8,1161.5,1344,1161.1,1344.1z"/>
<path class="st1" d="M1467.4,1207l-347.5-1.9c-0.5,0-1-0.2-1.4-0.6c-0.4-0.4-0.6-0.9-0.6-1.4c0-0.5,0.2-1,0.6-1.4
	c0.4-0.4,0.8-0.6,1.4-0.6l347.5,1.9c0.5,0,1,0.2,1.4,0.6c0.4,0.4,0.6,0.9,0.6,1.4c0,0.5-0.2,1-0.6,1.4
	C1468.4,1206.8,1467.9,1207,1467.4,1207z"/>
<path class="st1" d="M566.3,1845.3H211.5c-0.5,0-1-0.2-1.4-0.6c-0.4-0.4-0.6-0.8-0.6-1.4c0-0.5,0.2-1,0.6-1.4
	c0.4-0.4,0.9-0.6,1.4-0.6h354.8c0.5,0,1,0.2,1.4,0.6c0.4,0.4,0.6,0.9,0.6,1.4c0,0.5-0.2,1-0.6,1.4
	C567.3,1845.1,566.8,1845.3,566.3,1845.3z"/>
<path class="st4" d="M802.3,189.9L831.5,94l63.7,82.3L802.3,189.9z"/>
<path class="st1" d="M771.3,183.3c-0.3,0-0.6,0-0.9-0.2c-0.3-0.1-0.5-0.4-0.7-0.6c-0.3-0.5-0.4-1-0.4-1.6l29.5-98.6
	c0-0.3,0.1-0.6,0.3-0.8c0.2-0.2,0.5-0.3,0.8-0.3c0.3-0.2,0.7-0.2,1-0.2c0.4,0.1,0.7,0.3,0.9,0.5l63.7,82.7c0.4,0.6,0.5,1.3,0.4,1.9
	c-0.4,0.8-0.8,1.2-1.6,1.2l-92.8,15.9H771.3z M801.2,87L774,179l86.6-14.8L801.2,87z"/>
<path class="st1" d="M1672.3,1053.3h-488c-0.5,0-1-0.2-1.4-0.6c-0.4-0.4-0.6-0.9-0.6-1.4c0-0.5,0.2-1,0.6-1.4
	c0.4-0.4,0.9-0.6,1.4-0.6h488c0.5,0,1,0.2,1.4,0.6c0.4,0.4,0.6,0.8,0.6,1.4c0,0.5-0.2,1-0.6,1.4
	C1673.3,1053.1,1672.9,1053.3,1672.3,1053.3z"/>
<path class="st1" d="M1585.8,1110.8h-376.2c-0.5,0-1-0.2-1.4-0.6c-0.4-0.4-0.6-0.9-0.6-1.4c0-0.5,0.2-1,0.6-1.4
	c0.4-0.4,0.9-0.6,1.4-0.6h376.2c0.5,0,1,0.2,1.4,0.6c0.4,0.4,0.6,0.9,0.6,1.4c0,0.5-0.2,1-0.6,1.4
	C1586.8,1110.5,1586.3,1110.8,1585.8,1110.8z"/>
<path class="st1" d="M1414.2,1155.8h-91.6c-0.5,0-1-0.2-1.4-0.6c-0.4-0.4-0.6-0.9-0.6-1.4c0-0.5,0.2-1,0.6-1.4
	c0.4-0.4,0.9-0.6,1.4-0.6h91.6c0.5,0,1,0.2,1.4,0.6c0.4,0.4,0.6,0.8,0.6,1.4c0,0.5-0.2,1-0.6,1.4
	C1415.2,1155.6,1414.7,1155.8,1414.2,1155.8z"/>
<path class="st1" d="M1334.2,1267.2H946.8c-0.5,0-1-0.2-1.4-0.6c-0.4-0.4-0.6-0.9-0.6-1.4s0.2-1,0.6-1.4c0.4-0.4,0.9-0.6,1.4-0.6
	h387.4c0.5,0.1,0.9,0.3,1.3,0.7c0.3,0.3,0.6,0.8,0.7,1.3c0,0.5-0.2,1-0.6,1.4C1335.2,1267,1334.7,1267.2,1334.2,1267.2z"/>
<path class="st1" d="M1070.2,1308.3c-0.5,0-1-0.2-1.4-0.6c-0.4-0.4-0.6-0.8-0.6-1.4c0-0.5,0.2-1,0.6-1.4c0.4-0.4,0.8-0.6,1.4-0.6
	l264-0.8c0.5,0.1,0.9,0.3,1.3,0.7c0.3,0.3,0.6,0.8,0.7,1.3c0,0.5-0.2,1-0.6,1.4c-0.4,0.4-0.9,0.6-1.4,0.6L1070.2,1308.3z"/>
<path class="st1" d="M831.1,1436.5H628.4c-0.5,0-1-0.2-1.4-0.6c-0.4-0.4-0.6-0.9-0.6-1.4c0-0.5,0.2-1,0.6-1.4
	c0.4-0.4,0.9-0.6,1.4-0.6h202.7c0.5,0,1,0.2,1.4,0.6c0.4,0.4,0.6,0.9,0.6,1.4c0,0.5-0.2,1-0.6,1.4
	C832.1,1436.3,831.6,1436.5,831.1,1436.5z"/>
<path class="st1" d="M822.9,1485.4H615.2c-0.5,0-1-0.2-1.4-0.6c-0.4-0.4-0.6-0.9-0.6-1.4c0-0.5,0.2-1,0.6-1.4
	c0.4-0.4,0.9-0.6,1.4-0.6h207.7c0.5,0,1,0.2,1.4,0.6c0.4,0.4,0.6,0.9,0.6,1.4c0,0.5-0.2,1-0.6,1.4
	C823.9,1485.2,823.4,1485.4,822.9,1485.4z"/>
<path class="st0" d="M925.4,1431.8h-56.3v56.1h56.3V1431.8z"/>
<path class="st1" d="M925,1490h-55.9c-0.5,0-1-0.2-1.4-0.6c-0.4-0.4-0.6-0.9-0.6-1.4v-56.3c0-0.5,0.2-1,0.6-1.4
	c0.4-0.4,0.9-0.6,1.4-0.6H925c0.5,0,1,0.2,1.4,0.6c0.4,0.4,0.6,0.9,0.6,1.4v56.3c0,0.5-0.2,1-0.6,1.4
	C926,1489.8,925.5,1490,925,1490z M871.1,1486.2h52v-52.4h-52V1486.2z"/>
<path class="st1" d="M897.1,1242.4c-0.5,0-1-0.2-1.4-0.6c-0.4-0.4-0.6-0.9-0.6-1.4v-37.3c0-0.5,0.2-1,0.6-1.4
	c0.4-0.4,0.9-0.6,1.4-0.6s1,0.2,1.4,0.6c0.4,0.4,0.6,0.9,0.6,1.4v37.3c0,0.5-0.2,1-0.6,1.4C898.1,1242.2,897.6,1242.4,897.1,1242.4z
	"/>
<path class="st1" d="M1057,913.5c-1.2,0-1.9-0.4-1.9-1.6l-17.1-57.8c-0.1-0.6,0.1-1.1,0.3-1.6c0.3-0.5,0.7-0.9,1.2-1.1
	c0.5,0,1,0.1,1.4,0.4c0.4,0.3,0.7,0.7,0.9,1.2l16.7,58.2c0.1,0.2,0.2,0.5,0.2,0.7c0,0.3-0.1,0.5-0.2,0.7c-0.1,0.2-0.3,0.4-0.5,0.6
	s-0.5,0.2-0.7,0.3H1057z"/>
<path class="st3" d="M1957.7,780.8l-1.2-0.8l-26.8-28.3c-0.8-0.8-0.8-2.3,0-2.7c0.4-0.4,0.8-0.6,1.4-0.6s1,0.2,1.4,0.6l26.8,28.3
	c0.4,0.4,0.6,0.9,0.6,1.4s-0.2,1-0.6,1.4L1957.7,780.8z"/>
<path class="st1" d="M597,1799.1c-0.5,0-0.9-0.1-1.3-0.4c-0.4-0.3-0.6-0.7-0.7-1.1l-13.2-51.6c-0.1-0.3-0.1-0.5,0-0.8
	c0-0.3,0.1-0.5,0.3-0.7c0.1-0.2,0.3-0.4,0.6-0.6c0.2-0.1,0.5-0.2,0.7-0.3c1.2-0.4,1.9,0.4,2.3,1.5l13.2,51.6c0.1,0.3,0.1,0.5,0,0.8
	c0,0.3-0.1,0.5-0.3,0.7c-0.1,0.2-0.3,0.4-0.6,0.6c-0.2,0.1-0.5,0.2-0.7,0.3H597z"/>
<path class="st3" d="M1017,1616.6c-0.1,0-0.2,0-0.3-0.1c-0.1-0.1-0.1-0.2-0.1-0.3l-57.1-19c-1.2-0.4-1.9-1.5-1.6-2.3
	c0.1-0.3,0.2-0.5,0.4-0.7c0.2-0.2,0.4-0.4,0.7-0.5c0.3-0.1,0.5-0.2,0.8-0.2c0.3,0,0.6,0.1,0.8,0.2l57.1,19c0.3,0,0.5,0.1,0.7,0.3
	c0.2,0.2,0.4,0.3,0.5,0.6c0.1,0.2,0.2,0.5,0.2,0.7c0,0.3-0.1,0.5-0.2,0.7c-0.2,0.4-0.4,0.7-0.8,1
	C1017.8,1616.3,1017.5,1616.5,1017,1616.6z"/>
<path class="st3" d="M1009.9,1675.5l-41.9,31.5l31.4,41.8l41.9-31.5L1009.9,1675.5z"/>
<path class="st1" d="M980.5,1749.8c-0.8,0-1.2,0-1.6-0.8l-31.4-41.5c-0.2-0.2-0.4-0.4-0.5-0.6s-0.1-0.5-0.1-0.8s0.2-0.5,0.3-0.8
	c0.2-0.2,0.4-0.4,0.7-0.5l41.5-31.4c0.4-0.3,0.9-0.4,1.4-0.4c0.5,0.1,1,0.3,1.3,0.8l31.4,41.9c0.3,0.4,0.4,0.9,0.4,1.4
	c-0.1,0.5-0.3,1-0.8,1.3l-41.5,31.1L980.5,1749.8z M951.8,1706.7l29.1,38.4l38.4-28.7l-29.1-38.8L951.8,1706.7z"/>
<path class="st4" d="M848.9,1842.2c35.2,0,63.7-28.5,63.7-63.7c0-35.2-28.5-63.7-63.7-63.7c-35.2,0-63.7,28.5-63.7,63.7
	C785.3,1813.7,813.8,1842.2,848.9,1842.2z"/>
<path class="st1" d="M822.9,1820c-13,0-25.7-3.8-36.5-11.1c-10.8-7.2-19.2-17.4-24.2-29.4s-6.3-25.2-3.7-37.9
	c2.5-12.7,8.8-24.4,18-33.6c9.2-9.2,20.9-15.4,33.6-18c12.7-2.5,25.9-1.2,37.9,3.7c12,5,22.2,13.4,29.4,24.2
	c7.2,10.8,11.1,23.5,11.1,36.5c0,17.4-6.9,34.1-19.2,46.4C857,1813.1,840.3,1820,822.9,1820z M822.9,1692.7
	c-12.2,0-24.1,3.6-34.3,10.4c-10.2,6.8-18.1,16.4-22.7,27.7c-4.7,11.3-5.9,23.7-3.5,35.7c2.4,12,8.3,23,16.9,31.6
	c8.6,8.6,19.6,14.5,31.6,16.9s24.4,1.2,35.7-3.5c11.3-4.7,20.9-12.6,27.7-22.7c6.8-10.1,10.4-22.1,10.4-34.3
	c0-16.4-6.5-32.1-18.1-43.7C855,1699.2,839.3,1692.7,822.9,1692.7z"/>
<path class="st1" d="M1327.6,1036.6c-0.3,0-0.6-0.1-0.9-0.2c-0.3-0.1-0.5-0.3-0.7-0.6c-0.4-0.4-0.6-0.8-0.6-1.4s0.2-1,0.6-1.4
	l38-36.9c0.4-0.3,0.8-0.4,1.3-0.4c0.5,0,0.9,0.2,1.2,0.6c0.3,0.3,0.5,0.8,0.6,1.2c0,0.5-0.1,0.9-0.4,1.3l-38.1,36.9L1327.6,1036.6z"
	/>
<path class="st1" d="M1365.6,1036.6l-1.6-0.8l-38-36.9c-0.3-0.4-0.4-0.8-0.4-1.3c0-0.5,0.2-0.9,0.6-1.2c0.3-0.3,0.8-0.5,1.2-0.6
	c0.5,0,0.9,0.1,1.3,0.4l38.1,36.9c0.3,0.4,0.5,0.8,0.5,1.4s-0.2,1-0.5,1.4L1365.6,1036.6z"/>
<path class="st0" d="M1294.2,994.7h-40v40h40V994.7z"/>
<path class="st3" d="M1207.2,1034.3c10.9,0,19.8-8.9,19.8-19.8c0-10.9-8.9-19.8-19.8-19.8c-10.9,0-19.8,8.9-19.8,19.8
	C1187.4,1025.4,1196.3,1034.3,1207.2,1034.3z"/>
<path class="st0" d="M1614.9,1509.4c-33.8,74.2-102.9,115.3-102.9,115.3s-14-79.2,20.2-153.3c34.2-74.2,102.9-114.9,102.9-114.9
	S1649.1,1435.7,1614.9,1509.4z"/>
<path class="st1" d="M1512,1626.7h-0.8l-1.2-1.2c0-1.2-13.6-80.8,20.2-154.5c33.8-73.8,103.3-115.3,103.7-115.7h1.9
	c0.4,0,0.8,0.8,1.2,1.2s13.6,80.4-20.2,154.1c-33.8,73.8-102.9,115.3-103.6,115.7L1512,1626.7z M1633.5,1359.6
	c-12.4,8.2-69.9,48.1-99.8,112.6c-29.9,64.4-22.1,134.3-20.2,149.1c12.4-8.2,69.9-47.8,99.8-112.6
	C1643.2,1443.8,1635.5,1374.7,1633.5,1359.6z"/>
<path class="st0" d="M1462.3,1476.1c44.3,68.3,41.9,148.7,41.9,148.7s-74.2-30.7-118.4-99c-44.3-68.3-42.3-148.3-42.3-148.3
	S1418.1,1407.7,1462.3,1476.1z"/>
<path class="st1" d="M1504.2,1626.7h-0.8c-0.8-0.4-75.3-31.4-119.6-99.4c-44.3-67.9-42.3-148.7-42.3-149.5c0-0.7,0.3-1.4,0.8-1.9
	h1.9c0.8,0.4,75.3,31.4,119.6,99.4c44.3,67.9,42.3,149.1,42.3,149.8c-0.1,0.6-0.4,1.1-0.8,1.5H1504.2z M1345.5,1380.2
	c0.4,15.1,3.1,85,41.9,144.8c38.8,59.8,101.3,90.5,114.9,96.7c0-15.1-2.7-84.6-41.5-144.4C1421.9,1417.4,1359,1386.4,1345.5,1380.2z
	"/>
<path class="st1" d="M1536.5,1572.3h-0.8c-0.4-0.3-0.7-0.7-0.8-1.2c-0.1-0.5-0.1-1,0.1-1.5l98.2-213.9c0.1-0.2,0.3-0.4,0.5-0.6
	c0.2-0.2,0.4-0.3,0.7-0.4c0.2-0.1,0.5-0.1,0.8-0.1c0.3,0,0.5,0.1,0.7,0.3c0.8,0.4,1.6,1.6,0.8,2.3l-98.2,213.9
	c-0.2,0.4-0.4,0.7-0.8,0.9C1537.3,1572.3,1536.9,1572.4,1536.5,1572.3z"/>
<path class="st1" d="M1478.2,1581.3l-1.5-0.8L1342,1378.2c-0.4-0.8-0.4-1.9,0.4-2.3c0.4-0.3,0.9-0.4,1.4-0.4c0.5,0.1,1,0.3,1.3,0.8
	l134.7,201.9c0.3,0.4,0.4,0.9,0.4,1.4c-0.1,0.5-0.3,1-0.8,1.3L1478.2,1581.3z"/>
<path class="st1" d="M1445.2,1531.6c-0.5,0-1-0.2-1.4-0.6c-0.4-0.4-0.6-0.9-0.6-1.4v-51.2c0-0.5,0.2-1,0.6-1.4
	c0.4-0.4,0.9-0.6,1.4-0.6c0.5,0,1,0.2,1.4,0.6s0.6,0.9,0.6,1.4v51.2c0,0.5-0.2,1-0.6,1.4S1445.7,1531.6,1445.2,1531.6z"/>
<path class="st1" d="M1401,1465.6h-0.4l-26.4-6.6c-0.8,0-1.6-1.2-1.2-2.3c0.4-1.2,1.2-1.6,2.3-1.2l26,6.2c1.2,0.4,1.9,1.2,1.6,2.3
	C1402.5,1465.2,1401.8,1465.6,1401,1465.6z"/>
<path class="st1" d="M1546.6,1544.8c-0.5,0-1-0.2-1.4-0.6c-0.4-0.4-0.6-0.9-0.6-1.4v-59.4c0-0.5,0.2-1,0.6-1.4
	c0.4-0.4,0.9-0.6,1.4-0.6c0.5,0.1,0.9,0.3,1.3,0.7s0.6,0.8,0.7,1.3v59.4c0,0.5-0.2,1-0.6,1.4
	C1547.6,1544.6,1547.1,1544.8,1546.6,1544.8z"/>
<path class="st1" d="M1583.1,1471.4c-0.8,0-1.2-0.4-1.6-1.2c-0.4-0.8-0.4-1.9,0.8-2.3l33.8-19c0.4-0.2,0.9-0.2,1.3,0
	c0.4,0.1,0.8,0.4,1,0.8c0.3,0.4,0.4,0.9,0.4,1.4c-0.1,0.5-0.3,1-0.8,1.3l-34.2,18.6L1583.1,1471.4z"/>
<path class="st0" d="M1624.2,1861.2h-229.4l-60.6-231.4h350.6L1624.2,1861.2z"/>
<path class="st1" d="M1624.2,1863.1h-229.4c-1.2,0-1.6-0.8-1.9-1.6l-60.6-231c-0.1-0.7,0-1.4,0.4-1.9l1.6-0.8h350.6l1.6,0.8
	c0.4,0.6,0.5,1.3,0.4,1.9l-60.6,231c-0.2,0.4-0.5,0.7-0.8,1C1625,1862.8,1624.6,1863,1624.2,1863.1z M1396.3,1859.2h226.3
	l59.4-227.5h-345.5L1396.3,1859.2z"/>
<path class="st3" d="M1702.6,1602.6H1321v54.4h381.6V1602.6z"/>
<path class="st1" d="M1490.7,1657l180.1,26l7-26H1490.7z"/>
<path class="st3" d="M373.4,1433.8c6.2,0,12.1,2.4,16.5,6.8c4.4,4.4,6.8,10.3,6.8,16.5v210.8h-46.6v-211.2c0.1-6.1,2.6-11.9,7-16.2
	C361.4,1436.2,367.2,1433.8,373.4,1433.8z"/>
<path class="st1" d="M392.4,1586.3c-4-0.1-7.8-1.7-10.6-4.5c-2.8-2.8-4.4-6.6-4.5-10.6v-83.9c0.1-4,1.7-7.8,4.5-10.6
	c2.8-2.8,6.6-4.4,10.6-4.5c2,0,4,0.4,5.8,1.1s3.5,1.9,4.9,3.3c1.4,1.4,2.5,3.1,3.3,4.9c0.8,1.8,1.2,3.8,1.2,5.8v83.9
	c0,2-0.4,3.9-1.2,5.8c-0.8,1.8-1.9,3.5-3.3,4.9c-1.4,1.4-3.1,2.5-4.9,3.3C396.3,1585.9,394.4,1586.3,392.4,1586.3z M392.4,1476.1
	c-3,0-5.8,1.2-8,3.3c-2.1,2.1-3.3,5-3.3,8v83.9c0,3,1.2,5.8,3.3,8c2.1,2.1,5,3.3,8,3.3s5.9-1.2,8-3.3c2.1-2.1,3.3-5,3.3-8v-83.9
	c0-3-1.2-5.8-3.3-8C398.2,1477.2,395.4,1476.1,392.4,1476.1z"/>
<path class="st1" d="M378,1519.5h-28c-0.5,0-1-0.2-1.4-0.6c-0.4-0.4-0.6-0.9-0.6-1.4c0-0.5,0.2-1,0.6-1.4c0.4-0.4,0.9-0.6,1.4-0.6
	h28c0.5,0,1,0.2,1.4,0.6c0.4,0.4,0.6,0.9,0.6,1.4c0,0.5-0.2,1-0.6,1.4C379,1519.3,378.5,1519.5,378,1519.5z"/>
<path class="st0" d="M415.7,1555.3l42.3-57.1l21.4,73.4l-31.8,142.9l-62.1-11.7L415.7,1555.3z"/>
<path class="st1" d="M447.5,1716.4h-0.4l-62.1-11.6l-1.2-0.8c-0.3-0.5-0.4-1-0.4-1.5l30.3-147.5v-0.8L456,1497
	c0.4-0.8,1.2-0.8,1.9-0.8c0.8,0,1.2,0.8,1.6,1.2l21.4,73.4v1.2l-31.8,142.9c-0.1,0.4-0.3,0.7-0.5,1
	C448.2,1716.1,447.9,1716.3,447.5,1716.4z M387.7,1701.2l58.2,10.9l31.4-140.5l-20.2-69.1l-40,53.6L387.7,1701.2z"/>
<path class="st0" d="M288.7,1601.5l38.8,127.7l64.8-19.8l-34.2-129.3l-52.8-50.9L288.7,1601.5z"/>
<path class="st1" d="M327.5,1731.1h-1.2c-0.4,0-0.8-0.4-0.8-1.2l-38.8-127.3v-1.2l16.7-72.2c0.3-0.7,0.9-1.2,1.6-1.6
	c0.4,0,0.7,0,1.1,0.2c0.3,0.1,0.6,0.3,0.9,0.6l52.8,50.9c0,0.4,0.4,0.4,0.4,0.8l34.2,129.3c0.4,0.8-0.4,1.9-1.2,2.3l-65.2,19.4
	H327.5z M290.7,1601.5l38,125.4l61.3-18.6l-33.4-126.9l-50.1-48.1L290.7,1601.5z"/>
<path class="st1" d="M428.9,1712.9h-0.4c-0.8,0-1.6-1.2-1.6-2.3l32.2-144c0-0.3,0-0.6,0.1-0.8c0.1-0.3,0.3-0.5,0.6-0.7
	c0.2-0.2,0.5-0.2,0.8-0.3c0.3,0,0.6,0.1,0.8,0.2c0.3,0,0.5,0.1,0.7,0.3c0.2,0.2,0.4,0.3,0.6,0.6c0.1,0.2,0.2,0.5,0.3,0.7
	s0,0.5,0,0.8l-32.2,144C430.8,1712.5,430,1712.9,428.9,1712.9z"/>
<path class="st1" d="M402.9,1709.4h-0.4c-0.5-0.2-0.9-0.5-1.2-0.9c-0.3-0.4-0.4-0.9-0.4-1.4l29.5-146c0.4-1.2,1.2-1.9,2.3-1.5
	c1.2,0.4,1.6,1.2,1.6,2.3l-29.5,146C404.8,1708.6,403.6,1709.4,402.9,1709.4z"/>
<path class="st1" d="M373.4,1717.2c-1.2,0-1.9-0.4-1.9-1.2l-38-128.1c-0.1-0.2-0.1-0.5,0-0.8c0-0.3,0.1-0.5,0.3-0.7
	c0.1-0.2,0.3-0.4,0.6-0.6c0.2-0.1,0.5-0.2,0.7-0.3c0.2-0.1,0.5-0.2,0.7-0.2s0.5,0.1,0.7,0.2c0.2,0.1,0.4,0.3,0.6,0.5
	c0.1,0.2,0.2,0.5,0.3,0.7l37.7,128.1c0.1,0.2,0.2,0.5,0.2,0.7c0,0.3,0,0.5-0.2,0.8c-0.1,0.2-0.3,0.4-0.5,0.6
	c-0.2,0.2-0.5,0.2-0.7,0.3H373.4z"/>
<path class="st1" d="M350.1,1724.1c-0.4,0-0.8-0.1-1.2-0.3c-0.3-0.2-0.6-0.5-0.8-0.9L312,1597.6c-0.4-1.2,0-2.3,1.2-2.3
	c0.2-0.1,0.5-0.2,0.7-0.2c0.3,0,0.5,0,0.7,0.2c0.2,0.1,0.4,0.3,0.6,0.5c0.1,0.2,0.2,0.5,0.3,0.7l36.5,125.4c0.1,0.2,0.1,0.5,0,0.8
	c0,0.3-0.1,0.5-0.3,0.7c-0.1,0.2-0.3,0.4-0.6,0.5s-0.5,0.2-0.7,0.3H350.1z"/>
<path class="st4" d="M491.8,1667.5H279V1841h212.7V1667.5z"/>
<path class="st1" d="M439,1523.8l28,5.4l-8.9-31.1L439,1523.8z"/>
<path class="st2" d="M297.6,1571.6l36.9-11.6l-28-26.8L297.6,1571.6z"/>
<path class="st1" d="M288.7,1603.4c-0.4,0-0.8-0.1-1.2-0.3c-0.3-0.2-0.6-0.5-0.8-0.9c-0.1-0.5-0.1-1.1,0.1-1.6
	c0.2-0.5,0.6-0.9,1.1-1.2l69.9-21c0.2-0.1,0.5-0.2,0.7-0.2c0.3,0,0.5,0.1,0.7,0.2c0.2,0.1,0.4,0.3,0.6,0.5c0.1,0.2,0.2,0.5,0.3,0.7
	c0.1,0.5,0.1,1-0.1,1.4c-0.2,0.4-0.6,0.8-1,0.9l-69.9,21.3H288.7z"/>
<path class="st1" d="M479.3,1573.5h-0.4l-64.1-16.3c-0.4-0.2-0.8-0.5-1-0.9c-0.2-0.4-0.3-0.9-0.1-1.4c0-1.2,1.2-1.6,2.3-1.6
	l63.7,16.3c0.3,0.1,0.5,0.2,0.7,0.3c0.2,0.1,0.4,0.3,0.6,0.5c0.1,0.2,0.2,0.5,0.3,0.7c0,0.2,0,0.5,0,0.8c-0.2,0.4-0.4,0.7-0.8,1
	C480.2,1573.2,479.8,1573.4,479.3,1573.5z"/>
</svg>
