<?xml version="1.0" encoding="utf-8"?>
<!-- Generator: Adobe Illustrator 26.0.2, SVG Export Plug-In . SVG Version: 6.00 Build 0)  -->
<svg version="1.1" id="Layer_1" xmlns="http://www.w3.org/2000/svg" xmlns:xlink="http://www.w3.org/1999/xlink" x="0px" y="0px"
	 viewBox="0 0 2000 2000" style="enable-background:new 0 0 2000 2000;" xml:space="preserve">
<style type="text/css">
	.st0{fill:#F7AE38;}
	.st1{fill:#02133B;}
	.st2{fill:#FAD478;}
	.st3{fill:#F14146;}
	.st4{fill:#FFFFFF;}
	.st5{fill:#3A81E1;}
</style>
<path class="st0" d="M925.9,364.3c0,21.4-5.9,42.4-17,60.7c-11.1,18.3-27,33.2-46,43.1l-11.5,112.2h-85.7l-7.7-111
	c-18.6-9.2-34.4-23.1-45.8-40.5c-11.4-17.3-17.9-37.4-19-58.1c-1-20.7,3.5-41.3,13.1-59.7c9.6-18.4,23.9-33.9,41.5-44.9
	c17.6-11,37.8-17.1,58.5-17.6c20.7-0.6,41.2,4.4,59.4,14.4c18.2,10,33.3,24.7,43.9,42.5S925.8,343.6,925.9,364.3z"/>
<path class="st1" d="M857.9,521.1h-96.4c-0.5,0-1-0.2-1.4-0.6c-0.4-0.4-0.6-0.8-0.6-1.4c0-0.5,0.2-1,0.6-1.4
	c0.4-0.4,0.8-0.6,1.4-0.6h96.4c0.5,0,1,0.2,1.4,0.6c0.4,0.4,0.6,0.8,0.6,1.4c-0.1,0.5-0.3,0.9-0.6,1.3
	C858.8,520.8,858.4,521,857.9,521.1z"/>
<path class="st1" d="M852.9,552.2h-87.6c-0.5,0-1-0.2-1.4-0.6c-0.4-0.4-0.6-0.8-0.6-1.4c0-0.5,0.2-1,0.6-1.4
	c0.4-0.4,0.8-0.6,1.4-0.6h87.6c0.5,0,1,0.2,1.4,0.6c0.4,0.4,0.6,0.8,0.6,1.4c0,0.5-0.2,1-0.6,1.4C853.9,552,853.4,552.2,852.9,552.2
	z"/>
<path class="st1" d="M837.9,521.1c-0.5-0.1-1-0.4-1.4-0.8c-0.4-0.4-0.5-1-0.5-1.5l2.7-140.2l-53.8-1.2v141.8
	c-0.1,0.5-0.3,0.9-0.6,1.3c-0.3,0.3-0.8,0.6-1.3,0.6c-0.5,0-1-0.2-1.4-0.6c-0.4-0.4-0.6-0.8-0.6-1.4V377.4h-17.3
	c-4-0.7-7.6-2.7-10.2-5.8c-2.6-3.1-4-7-4-11.1c0-4,1.5-7.9,4.2-11c2.7-3,6.3-5,10.3-5.6h3.8c2.2,0,4.4,0.4,6.5,1.3
	c2.1,0.9,3.9,2.1,5.5,3.7c1.6,1.6,2.8,3.4,3.7,5.5c0.8,2.1,1.3,4.2,1.3,6.5v13.1l53.8,1.2v-14.6c0-4.4,1.7-8.6,4.8-11.7
	c3.1-3.1,7.3-4.8,11.7-4.8c2.2,0,4.4,0.4,6.5,1.3c2.1,0.9,3.9,2.1,5.5,3.7c1.6,1.6,2.8,3.4,3.7,5.5c0.9,2.1,1.3,4.2,1.3,6.5v1.9
	c-0.2,4.4-1.9,8.7-5,11.9c-3.4,3-7.8,4.7-12.3,4.6h-12.7l-2.7,140.6c-0.2,0.3-0.4,0.5-0.6,0.7C838.5,520.9,838.2,521,837.9,521.1z
	 M842.5,374.7h13.1c3.4,0,6.7-1.2,9.2-3.5c2.4-2.5,3.7-5.8,3.8-9.2v-1.5c0-3.5-1.4-6.8-3.8-9.2c-2.4-2.5-5.8-3.8-9.2-3.8
	c-3.4,0-6.6,1.3-9,3.7c-2.4,2.4-3.7,5.6-3.7,9L842.5,374.7z M764.1,347.4c-1.7,0-3.4,0.3-5,1c-1.6,0.7-3,1.6-4.2,2.8
	c-1.2,1.2-2.2,2.7-2.8,4.2c-0.7,1.6-1,3.3-1,5c0,3.4,1.3,6.6,3.7,9c2.4,2.4,5.6,3.7,9,3.7H781v-12.7c0-3.5-1.4-6.8-3.8-9.2
	s-5.8-3.8-9.2-3.8H764.1z"/>
<path class="st2" d="M672.3,297.5h-0.8l-59.2-39.6c-0.2-0.2-0.4-0.3-0.5-0.6c-0.1-0.2-0.2-0.5-0.2-0.7c0-0.2,0-0.5,0-0.7
	c0.1-0.2,0.2-0.5,0.3-0.7c0.3-0.4,0.7-0.7,1.2-0.8c0.5-0.1,1-0.1,1.5,0.1l58.8,39.6c0.2,0.1,0.4,0.3,0.6,0.5
	c0.2,0.2,0.3,0.4,0.4,0.7c0.1,0.3,0.1,0.5,0.1,0.8c0,0.3-0.1,0.5-0.3,0.7C673.8,297.5,673.1,297.5,672.3,297.5z"/>
<path class="st2" d="M739.2,237.5l-1.9-0.8l-36.9-60.3c-0.2-0.2-0.3-0.4-0.3-0.7c-0.1-0.2-0.1-0.5,0-0.7c0-0.2,0.1-0.5,0.2-0.7
	c0.1-0.2,0.3-0.4,0.5-0.6c1.2-0.4,2.3-0.4,2.7,0.8l37.3,59.9c0.4,1.2,0.4,2.3-0.8,2.7L739.2,237.5z"/>
<path class="st2" d="M835.2,222.2c-0.5,0-1-0.2-1.4-0.6c-0.4-0.4-0.6-0.8-0.6-1.4v-65.3c0-0.5,0.2-1,0.6-1.4
	c0.4-0.4,0.8-0.6,1.4-0.6c0.5,0,1,0.2,1.4,0.6c0.4,0.4,0.6,0.8,0.6,1.4v65.3c0,0.5-0.2,1-0.6,1.4C836.2,222,835.7,222.2,835.2,222.2
	z"/>
<path class="st2" d="M912.8,246.8h-1.2c-1.2-0.4-1.2-1.5-0.8-2.7l39.6-57.2c0.3-0.4,0.8-0.7,1.3-0.8c0.5-0.1,1,0.1,1.4,0.4
	c0.4,0.3,0.7,0.8,0.7,1.3c0.1,0.5-0.1,1-0.4,1.4L914.4,246L912.8,246.8z"/>
<path class="st2" d="M952,316.3c-0.8,0-1.2-0.4-1.5-1.2c-0.4-0.8-0.4-1.9,0.8-2.7l69.5-38c0.8-0.8,1.9-0.4,2.7,0.8
	c0.2,0.4,0.2,0.9,0,1.3c-0.1,0.4-0.4,0.8-0.8,1l-69.5,38.4L952,316.3z"/>
<path class="st1" d="M900.2,327.4c-0.8,0-1.2-0.4-1.5-1.2c-3.9-10-9.7-19.2-17.2-26.9c-7.5-7.7-16.4-13.9-26.3-18.1
	c-0.4-0.2-0.8-0.5-1-0.9c-0.2-0.4-0.3-0.9-0.1-1.4c0.1-0.3,0.2-0.5,0.4-0.7c0.2-0.2,0.4-0.4,0.7-0.5c0.3-0.1,0.5-0.2,0.8-0.2
	c0.3,0,0.6,0.1,0.8,0.2c10.4,4.3,19.8,10.8,27.6,18.9c7.8,8.1,13.8,17.8,17.7,28.4c0.1,0.2,0.2,0.5,0.2,0.7c0,0.3,0,0.5-0.2,0.7
	c-0.1,0.2-0.3,0.4-0.5,0.6c-0.2,0.1-0.5,0.2-0.7,0.3H900.2z"/>
<path class="st3" d="M1314,1382.9H600.8v432.1H1314V1382.9z"/>
<path class="st4" d="M773.4,1016.7l30.7,114.1l172.9-36.1l-64.2-129.9L773.4,1016.7z"/>
<path class="st1" d="M804.1,1132.8c-0.4,0-0.8-0.2-1.1-0.4c-0.3-0.3-0.5-0.7-0.5-1.1l-31.1-114.1c-0.1-0.5-0.1-1,0.1-1.4
	c0.2-0.4,0.6-0.8,1-0.9l139.5-51.5c0.4-0.2,0.9-0.2,1.3,0c0.4,0.1,0.8,0.4,1,0.8l64.2,129.9c0.2,0.2,0.3,0.5,0.3,0.8
	s-0.1,0.6-0.3,0.8c0,0.3-0.1,0.6-0.3,0.8c-0.2,0.2-0.5,0.3-0.8,0.3l-172.9,36.1H804.1z M775.7,1017.9l30,110.7l168.7-35l-62.6-126
	L775.7,1017.9z"/>
<path class="st4" d="M793.3,709.7c32.3,4.2,59.2,10,76.1,37.7c40.3,64.9,130.3,235.5,1.2,284.7c-161,61.1-220.2-142.2-207.1-203.6
	C675,773.1,704.2,697.4,793.3,709.7z"/>
<path class="st1" d="M813.3,1045.5c-29.9,0-58.8-11.1-81.1-31.1c-56.1-48-79.9-144.1-70.7-186.3c18.8-89.1,63.4-129.5,132.2-120.3
	c31.9,4.2,59.9,10,77.2,38.4C949.3,873,944,943,933.6,973.3c-10.4,30.4-30.7,48.4-62.6,60.7C852.6,1041.4,833.1,1045.3,813.3,1045.5
	z M775.3,710.5c-56.5,0-93.4,39.6-109.9,118.3c-7.7,35.3,10,131.8,69.5,182.9c37.3,31.9,83,38.4,134.9,18.4
	c30.7-11.5,50.7-31.1,59.9-58c24.6-72.2-35-180.6-61.9-224c-16.5-26.9-43.8-32.3-74.5-36.5L775.3,710.5z"/>
<path class="st1" d="M783.7,900.7c7,0,12.7-5.7,12.7-12.7c0-7-5.7-12.7-12.7-12.7c-7,0-12.7,5.7-12.7,12.7
	C771.1,895,776.7,900.7,783.7,900.7z"/>
<path class="st1" d="M882.9,860.3c7,0,12.7-5.7,12.7-12.7c0-7-5.7-12.7-12.7-12.7c-7,0-12.7,5.7-12.7,12.7
	C870.2,854.7,875.9,860.3,882.9,860.3z"/>
<path class="st3" d="M792.6,1082.8c0,0-201.3,59.9-244.4,141c-43,81.1-66.5,275.1-66.5,275.1s127.9,1.1,289.3-2.7
	c0,0,537.5,113.3,648.9-41.1c-0.8-71.1-83.8-431.9-287.8-423c-204,8.8-187.5-2.7-187.5-2.7S918.6,1130.8,792.6,1082.8z"/>
<path class="st4" d="M860.2,1084.3c0,0,141-88.4,156.4-74.5c15.4,13.8-35.3,67.2-35.3,67.2L860.2,1084.3z"/>
<path class="st1" d="M860.2,1086.3c-0.4,0-0.8-0.1-1.1-0.3c-0.3-0.2-0.6-0.5-0.8-0.9c-0.2-0.4-0.2-0.9,0-1.3c0.1-0.4,0.4-0.8,0.8-1
	c0.4-0.4,35.7-22.3,72.6-42.7c67.6-37.3,81.5-36.1,86.1-31.9c1.2,1,2.1,2.2,2.7,3.6c0.6,1.4,0.9,2.9,0.8,4.4
	c1.2,20-36.9,60.3-38.4,61.9c-0.2,0.2-0.4,0.4-0.7,0.6c-0.3,0.1-0.6,0.2-0.9,0.2L860.2,1086.3z M1011.2,1010.2
	c-20,0-93.7,41.1-143.7,71.9l113-6.9c4.6-5,37.7-41.5,36.9-58.8c0-1-0.2-2-0.6-3c-0.4-0.9-1-1.8-1.7-2.4
	C1014.3,1010.2,1013.1,1010.2,1011.2,1010.2z"/>
<path class="st4" d="M910.1,1256.9l54.9,2.3c-20.4,152.2-87.2,345.4-142.5,444.9c-45.3,80.7-142.2,118.7-228.6,86.1
	c-164.8-61.5-85.3-291.2-85.3-291.2h184c0,0,43.8-436.5,179.8-428.8c136,7.7,190.6,14.2,202.5,35.7c11.9,21.5-11.9,25-11.9,25
	s26.5,13.1,4.2,37.7c0,0,29.2,40.7-14.6,44.6c0,0,29.6,38,0,46.1c-19.2,5.4-87.6,0-87.6,0L910.1,1256.9z"/>
<path class="st1" d="M656.9,1803.6c-21.8,0-43.4-3.9-63.8-11.5c-68-25.4-104.5-84.5-105.7-170.6c0-41.8,6.6-83.2,19.6-122.9
	c0-0.4,0.2-0.8,0.5-1.1c0.3-0.3,0.7-0.4,1.1-0.4h182.1c8.2-72.6,21.2-144.6,38.8-215.6c37.7-144.8,85.7-216.3,143.3-213.2
	c148.3,8.1,192.1,16.1,203.6,36.9c3.8,6.5,4.6,12.7,2.3,17.3c-2.5,4.3-6.5,7.6-11.1,9.2c5,3.5,8.5,8.7,10,14.6
	c1.5,6.9-1.2,14.6-8.1,22.7c3.1,4.6,13.1,21.1,7.3,33.1c-5.8,11.9-10,11.1-20.7,12.7c4.6,6.1,14.6,23.1,10.8,35
	c-1.1,3-3,5.6-5.4,7.6c-2.4,2-5.3,3.4-8.5,3.9c-17.7,5-75.3,1.2-86.4,0.4c-20.7,155.2-88.8,347.3-142.5,443.8
	c-16.7,29.7-40.9,54.5-70.3,71.8C724.4,1794.3,691,1803.5,656.9,1803.6z M510.2,1500.8c-12.2,39.1-18.5,79.7-18.8,120.6
	c1.2,85.7,35.7,141.8,103,167.1c84.5,31.5,181.7-5.4,226.3-85.3c53.8-96,121.4-287,142.2-442.2l-53-2.3c-0.8-0.4-1.9-1.2-1.5-2.3
	c0-0.2,0-0.5,0.1-0.7c0.1-0.2,0.2-0.4,0.4-0.6c0.2-0.2,0.4-0.3,0.6-0.3c0.2-0.1,0.5,0,0.7,0l54.9,2.3c0.8,0,68.4,5.4,87.2,0
	c2.4-0.4,4.7-1.5,6.5-3c1.9-1.5,3.3-3.5,4.2-5.8c4.6-13.1-11.9-34.2-11.9-34.2c-0.3-0.6-0.4-1.3-0.4-1.9c0.1-0.3,0.3-0.6,0.6-0.8
	s0.6-0.3,0.9-0.4c11.5-1.2,18.4-4.6,21.1-10.8c5.4-11.9-7.7-30.3-7.7-30.7c-0.2-0.1-0.3-0.3-0.4-0.5s-0.1-0.4-0.1-0.6
	s0.1-0.4,0.1-0.6c0.1-0.2,0.2-0.4,0.4-0.5c6.5-7.3,9.2-14.2,8.1-20.4c-0.8-3.1-2.3-6-4.3-8.4c-2.1-2.5-4.7-4.4-7.6-5.8
	c-0.4-0.2-0.7-0.6-0.8-1s-0.1-0.9,0-1.3c0-0.4,0.2-0.8,0.4-1.1c0.3-0.3,0.7-0.5,1.1-0.5c0,0,9.6-1.5,12.7-8.1c0.8-2.3,1-4.8,0.7-7.1
	c-0.3-2.4-1.2-4.7-2.6-6.7c-11.9-21.1-71.5-28-200.9-35H869c-130.2,0-174,423-174.4,427.2c-0.1,0.4-0.3,0.8-0.7,1.1
	c-0.4,0.3-0.8,0.4-1.2,0.4H510.2z"/>
<path class="st4" d="M1172.2,1444.7c0,0,58.4-92.6,72.6-82.2c14.2,10.4-24.6,147.9-24.6,147.9L1172.2,1444.7z"/>
<path class="st1" d="M1220.2,1512.4c-0.8,0-1.1,0-1.5-0.8l-48.4-65.7c-0.2-0.3-0.3-0.6-0.3-1c0-0.3,0.1-0.7,0.3-1
	c2.3-3.4,50.7-80.3,70.3-84.1c0.9-0.2,1.8-0.3,2.6-0.1c0.9,0.2,1.7,0.6,2.4,1.2c4.2,3.1,8.5,14.6-6.1,79.9
	c-7.7,35.3-17.3,69.9-17.3,70.3c0,0.4-0.8,1.2-1.5,1.2H1220.2z M1174.5,1444.7l44.9,61.5c18.1-65.3,32.3-136,24.2-142.2
	c-0.4-0.3-0.8-0.4-1.3-0.5c-0.5-0.1-0.9,0-1.4,0.1C1226.7,1366.4,1188.7,1422.1,1174.5,1444.7z"/>
<path class="st5" d="M1204.8,1731.4l-361.2,68l-30.7-440.7l367.7-68.4L1204.8,1731.4z"/>
<path class="st4" d="M1420,1445.5c0,0,11.9,148.3-60.7,237.1c-101.8,124.1-229.4,132.2-340,0c-110.7-132.2-61.9-154.8-42.3-147.9
	c19.6,6.9,75.7,75.3,75.7,75.3s-64.9-133.3-51.5-162.9c13.5-29.6,40.7-11.1,40.7-11.1s-2.7-38,33-36.1c20,1.1,26.5,11.1,26.5,11.1
	s6.2-36.9,30.7-33c24.6,3.8,91.1,122.2,103.7,141.8C1248.6,1539.3,1420,1445.5,1420,1445.5z"/>
<path class="st1" d="M1189.8,1780.6c-59.5,0-119.1-33.4-171.7-96.8c-78.8-94.1-74.9-130.2-66.1-143.3c3-3.8,7-6.6,11.6-8
	c4.6-1.4,9.6-1.3,14.1,0.3c15,5.4,49.9,44.6,66.9,64.6c-16.1-35-56.5-126.4-45.3-151c1.3-3.5,3.4-6.6,6-9.2c2.6-2.6,5.8-4.6,9.3-5.8
	c8.4-2.4,17.3-1.8,25.4,1.5c-0.3-9.7,3.2-19.2,9.6-26.5c3.3-3.2,7.3-5.6,11.7-7.1c4.4-1.5,9-1.9,13.6-1.4
	c14.2,0.8,21.9,5.8,25.4,9.2c2.7-9.6,11.1-34.6,32.3-31.1c21.1,3.5,56.1,61.9,94.5,125.2c4.6,8.1,8.5,14.2,10.8,17.7
	c2.3,3.4,58.8-3.5,181-74.9c0.3-0.2,0.6-0.2,1-0.2c0.3,0,0.7,0.1,1,0.2c0.8,0,1.2,0.8,1.2,1.5s11.1,150.2-61.1,238.2
	c-51.9,63-110.6,96.4-170.6,96.8H1189.8z M970.1,1535.4c-2.9,0-5.7,0.6-8.3,1.9c-2.6,1.3-4.9,3.1-6.6,5.4
	c-6.5,10-13.8,43,65.7,138.3c52.3,62.6,110.6,95.7,169,95.7h0.4c58.8-0.4,116.4-33.4,167.5-95.7c65.7-79.5,61.5-210.6,60.3-232.1
	c-26.5,15.4-167.9,96.1-183.7,71.8l-10.8-17.7c-21.5-36.1-72.6-120.3-91.8-123.3c-19.2-3.1-28.4,31.1-28.4,31.5
	c0,0.4-0.8,1.2-1.5,1.5l-1.9-0.8c0,0-6.1-9.2-25-10.4c-4.1-0.4-8.2,0-12.1,1.2c-3.9,1.3-7.5,3.3-10.6,6.1c-9.6,10-8.5,26.5-8.5,26.9
	c0,0.3-0.2,0.7-0.4,0.9c-0.2,0.3-0.5,0.5-0.8,0.6h-1.9c0,0-13.5-6.5-25-2.7c-5.9,2.5-10.6,7.2-13.1,13.1
	c-12.7,28.4,51.1,159.8,51.5,161c0.4,1.2,0.4,2.3-0.4,2.7c-0.4,0.2-0.9,0.3-1.4,0.2c-0.5-0.1-0.9-0.3-1.3-0.6
	c-0.4-0.8-55.7-68-74.9-74.9L970.1,1535.4z"/>
<path class="st1" d="M1063.1,1132.8h-0.4l-118.7-9.6c-1.2,0-1.9-0.8-1.5-1.9c0-0.5,0.2-1,0.6-1.4c0.4-0.4,0.8-0.6,1.4-0.6l118.7,9.6
	c0.5,0,1,0.2,1.4,0.6s0.6,0.8,0.6,1.4C1064.6,1132,1063.8,1132.8,1063.1,1132.8z"/>
<path class="st1" d="M1067.3,1170.4h-0.4l-122.9-5.8c-0.8,0-1.9-1.2-1.5-1.9c0.4-0.8,0.8-2.3,1.9-1.9l123,5.8c0.5,0.1,1,0.4,1.4,0.8
	c0.3,0.4,0.5,0.9,0.5,1.5C1069.2,1169.6,1068.1,1170.4,1067.3,1170.4z"/>
<path class="st1" d="M1052.7,1215l-108.7-3.8c-0.8-0.4-1.9-1.2-1.5-2.3c0-0.2,0-0.5,0.1-0.7c0.1-0.2,0.2-0.4,0.4-0.6
	c0.2-0.1,0.4-0.2,0.6-0.3c0.2-0.1,0.5,0,0.7,0l108.4,3.8c0.5,0,1,0.2,1.4,0.6c0.4,0.4,0.6,0.9,0.6,1.4c0,0.5-0.2,1-0.6,1.4
	C1053.7,1214.8,1053.2,1215,1052.7,1215z"/>
<path class="st1" d="M852.9,1384.4c-3.6,0.1-7.3-0.5-10.8-1.5c-0.3-0.1-0.5-0.2-0.7-0.4c-0.2-0.2-0.4-0.4-0.5-0.7
	c-0.1-0.2-0.2-0.5-0.2-0.8c0-0.3,0.1-0.6,0.2-0.8c0.4-0.8,1.5-1.5,2.3-1.1c7.3,2.6,15.3,2.2,22.3-1.1c7-3.3,12.4-9.3,15-16.5
	c1.3-3.6,1.8-7.4,1.6-11.2c-0.2-3.8-1.1-7.5-2.8-10.9c-1.6-3.4-3.9-6.5-6.8-9c-2.8-2.5-6.1-4.5-9.7-5.7c-7.3-2.6-15.3-2.2-22.3,1.1
	c-7,3.3-12.4,9.3-15,16.6c-0.4,0.8-1.5,1.5-2.3,1.2c-0.3-0.1-0.5-0.2-0.7-0.4c-0.2-0.2-0.4-0.4-0.5-0.7c-0.1-0.3-0.2-0.5-0.2-0.8
	c0-0.3,0.1-0.6,0.2-0.8c2.2-6.1,6.2-11.4,11.4-15.2c5.2-3.8,11.4-6.1,17.9-6.4c6.5-0.3,12.9,1.2,18.5,4.5c5.6,3.3,10.1,8.2,12.9,14
	c1.9,3.9,3,8.1,3.2,12.4c0.2,4.3-0.5,8.6-2,12.6c-2.2,6.5-6.4,12.1-12,16C866.4,1382.5,859.7,1384.5,852.9,1384.4z"/>
<path class="st1" d="M926.7,1369.4c-3.8,0.1-7.6-0.5-11.1-1.9c-0.4-0.2-0.8-0.5-1-0.9c-0.2-0.4-0.3-0.9-0.1-1.4
	c0.1-0.3,0.2-0.5,0.4-0.7c0.2-0.2,0.4-0.4,0.7-0.5c0.3-0.1,0.5-0.2,0.8-0.2c0.3,0,0.6,0.1,0.8,0.2c5.4,1.8,11.2,2,16.7,0.5
	c5.5-1.5,10.5-4.5,14.3-8.8c3.8-4.2,6.3-9.5,7.1-15.1c0.8-5.6,0-11.4-2.4-16.6c-1.6-3.5-3.9-6.6-6.8-9.2c-2.8-2.6-6.2-4.5-9.8-5.8
	c-7.2-2.3-15-1.9-21.9,1.2c-3.5,1.6-6.6,3.9-9.2,6.8c-2.6,2.8-4.6,6.2-5.8,9.8c-0.1,0.3-0.2,0.5-0.4,0.7c-0.2,0.2-0.4,0.4-0.7,0.5
	c-0.3,0.1-0.5,0.2-0.8,0.2s-0.6-0.1-0.8-0.2c-0.4-0.2-0.8-0.5-1-0.9c-0.2-0.4-0.3-0.9-0.1-1.4c3-8.2,9-15,16.9-18.8
	c3.9-1.9,8.2-3,12.6-3.2c4.4-0.2,8.7,0.5,12.8,2c4.1,1.4,7.8,3.7,10.9,6.6c3.2,2.9,5.7,6.4,7.5,10.3c3.8,7.8,4.3,16.8,1.5,25
	c-3,8.2-9,15-16.9,18.8C936.4,1368.3,931.6,1369.4,926.7,1369.4z"/>
<path class="st1" d="M1000,1353.7c-3.7-0.1-7.3-0.7-10.8-1.9c-0.3,0-0.5-0.1-0.7-0.3c-0.2-0.1-0.4-0.3-0.5-0.6
	c-0.1-0.2-0.2-0.5-0.2-0.7c0-0.2,0.1-0.5,0.2-0.7c0-1.2,1.2-1.5,2.3-1.5c7.2,2.6,15.2,2.2,22.2-1.1c7-3.3,12.3-9.2,14.9-16.4
	c2.6-7.2,2.2-15.2-1.1-22.2c-3.3-7-9.2-12.3-16.4-14.9c-7.3-2.6-15.3-2.2-22.3,1.1c-7,3.3-12.4,9.3-15,16.5
	c-0.4,0.8-1.5,1.5-2.3,1.2c-0.3,0-0.5-0.1-0.7-0.3c-0.2-0.2-0.4-0.3-0.5-0.6c-0.1-0.2-0.2-0.5-0.2-0.7c0-0.3,0.1-0.5,0.2-0.7
	c2.9-8.2,8.9-15,16.7-18.8c7.8-3.8,16.9-4.4,25.1-1.5c8.2,3.1,14.9,9.1,18.8,16.9c3.6,8,4,17.1,1.2,25.4
	c-2.3,6.4-6.6,11.9-12.1,15.8C1013.5,1351.5,1006.8,1353.6,1000,1353.7z"/>
<path class="st1" d="M1071.1,1338.7c-3.8,0-7.6-0.7-11.1-1.9c-0.3-0.1-0.5-0.2-0.7-0.4c-0.2-0.2-0.4-0.4-0.5-0.7
	c-0.1-0.3-0.2-0.5-0.2-0.8c0-0.3,0.1-0.6,0.2-0.8c0.4-0.8,1.5-1.5,2.3-1.2c3.6,1.3,7.4,1.9,11.3,1.8c3.8-0.2,7.6-1.1,11.1-2.8
	c3.5-1.6,6.6-4,9.1-6.8c2.6-2.9,4.5-6.2,5.8-9.8c1.3-3.6,1.8-7.4,1.6-11.2c-0.2-3.8-1.1-7.5-2.8-10.9c-1.6-3.4-3.9-6.5-6.8-9
	c-2.8-2.5-6.1-4.5-9.7-5.7c-7.3-2.6-15.3-2.2-22.3,1.1c-7,3.3-12.4,9.3-15,16.5c0,0.8-1.2,1.5-2.3,1.1c-0.3-0.1-0.5-0.2-0.7-0.4
	c-0.2-0.2-0.4-0.4-0.5-0.7c-0.1-0.2-0.2-0.5-0.1-0.8c0-0.3,0.1-0.6,0.2-0.8c2.2-6.1,6.2-11.4,11.4-15.2c5.2-3.8,11.4-6.1,17.9-6.4
	c6.5-0.3,12.9,1.2,18.5,4.5c5.6,3.3,10.1,8.2,12.9,14c2.4,5,3.5,10.6,3.2,16.1c-0.3,5.5-2,10.9-5,15.6c-3,4.7-7,8.6-11.9,11.3
	C1082.2,1337.2,1076.7,1338.7,1071.1,1338.7z"/>
<path class="st1" d="M1143.8,1322.9c-3.7,0.1-7.3-0.5-10.8-1.5c-0.3-0.1-0.5-0.2-0.7-0.4c-0.2-0.2-0.4-0.4-0.5-0.7s-0.2-0.5-0.2-0.8
	s0.1-0.6,0.2-0.8c0-0.8,1.2-1.5,2.3-1.2c3.6,1.3,7.4,1.9,11.2,1.7c3.8-0.2,7.5-1.1,11-2.7c3.4-1.6,6.5-3.9,9.1-6.7
	c2.6-2.8,4.5-6.1,5.8-9.7c1.3-3.6,1.8-7.4,1.7-11.2c-0.2-3.8-1.1-7.5-2.7-11c-1.6-3.4-3.9-6.5-6.7-9.1c-2.8-2.6-6.1-4.5-9.7-5.8
	c-3.6-1.3-7.4-1.9-11.3-1.8c-3.8,0.2-7.6,1.1-11.1,2.8s-6.6,4-9.1,6.8c-2.6,2.9-4.5,6.2-5.8,9.9c-0.4,0.8-1.5,1.5-2.3,1.1
	c-0.3-0.1-0.5-0.2-0.7-0.4c-0.2-0.2-0.4-0.4-0.5-0.7c-0.1-0.3-0.2-0.5-0.2-0.8c0-0.3,0.1-0.5,0.2-0.8c1.4-4,3.5-7.7,6.4-10.9
	c2.8-3.2,6.3-5.7,10.2-7.5c3.9-2,8.2-3.1,12.5-3.4c4.4-0.3,8.7,0.4,12.8,1.8c7.5,2.4,14,7.4,18.1,14.2c4.1,6.8,5.6,14.8,4.3,22.6
	c-1.4,7.8-5.5,14.8-11.7,19.8C1159.4,1320.7,1151.7,1323.3,1143.8,1322.9z"/>
<path class="st1" d="M1114.6,1573.8c-0.8,0-1.2-0.4-1.5-1.2l-73-136c-0.2-0.4-0.2-0.9,0-1.3s0.4-0.8,0.8-1c0.2-0.2,0.4-0.4,0.7-0.5
	c0.3-0.1,0.6-0.1,0.9,0s0.5,0.2,0.7,0.5c0.2,0.2,0.3,0.5,0.4,0.8l73,135.6c0.2,0.5,0.2,1,0.1,1.5s-0.4,0.9-0.8,1.2L1114.6,1573.8z"
	/>
<path class="st1" d="M1172.2,1536.6c-0.4,0-0.8-0.1-1.2-0.3c-0.3-0.2-0.6-0.5-0.8-0.9l-70.3-123.7c-0.8-0.8-0.4-1.9,0.8-2.3
	c1.2-0.4,1.9-0.4,2.7,0.8l70.3,123.3c0.2,0.5,0.2,1,0.1,1.5c-0.1,0.5-0.4,0.9-0.8,1.2L1172.2,1536.6z"/>
<path class="st1" d="M1031.2,1660.3c-0.4,0-0.8-0.1-1.1-0.3c-0.3-0.2-0.6-0.5-0.8-0.9c-0.2-0.5-0.1-1.1,0.1-1.6
	c0.2-0.5,0.6-0.9,1.1-1.1c162.1-50.7,203.6-136.4,204-137.5c0.2-0.4,0.6-0.7,1-0.8c0.4-0.1,0.9-0.1,1.3,0c0.2,0,0.5,0.1,0.7,0.3
	c0.2,0.1,0.4,0.3,0.5,0.6c0.1,0.2,0.2,0.5,0.2,0.7c0,0.2-0.1,0.5-0.2,0.7c-0.4,1.2-42.3,88.8-206.3,139.9H1031.2z"/>
<path class="st1" d="M1266.7,1649.9l-1.9-0.8l-61.9-87.2c-0.1-0.2-0.2-0.5-0.3-0.7c0-0.3,0-0.5,0.1-0.8c0.1-0.2,0.2-0.5,0.4-0.7
	c0.2-0.2,0.4-0.4,0.6-0.5c0.4-0.2,0.9-0.3,1.4-0.2c0.5,0.1,0.9,0.3,1.3,0.6l61.9,87.2c0.4,1.2,0.4,2.3-0.8,2.7
	C1266.3,1649.9,1267.1,1649.9,1266.7,1649.9z"/>
<path class="st1" d="M1245.9,1618c-0.8,0-1.1-0.4-1.5-1.2c-0.4-0.8-0.4-1.9,0.8-2.7l41.9-23.1c0.5-0.2,1-0.2,1.5-0.1
	c0.5,0.1,0.9,0.4,1.2,0.8c0.2,0.2,0.4,0.4,0.5,0.7c0.1,0.3,0.1,0.6,0,0.9c-0.1,0.3-0.2,0.5-0.5,0.7c-0.2,0.2-0.5,0.3-0.8,0.4
	l-41.9,23.1L1245.9,1618z"/>
<path class="st1" d="M842.1,1814.7h413v32.3H809.5c0-4.3,0.8-8.5,2.5-12.4c1.6-3.9,4.1-7.5,7.1-10.5c3-3,6.6-5.4,10.6-7
	C833.6,1815.5,837.9,1814.7,842.1,1814.7z"/>
<path class="st4" d="M1807.3,1845.1h-583.2l146-348.1h583.2L1807.3,1845.1z"/>
<path class="st1" d="M1807.3,1847h-583.2l-1.5-0.8c-0.2-0.3-0.2-0.6-0.2-1c0-0.3,0.1-0.7,0.2-1l145.6-348.1c0.2-0.4,0.4-0.7,0.8-0.9
	c0.3-0.2,0.7-0.3,1.1-0.3h583.2c0.3,0,0.6,0,0.9,0.2c0.3,0.1,0.5,0.4,0.6,0.6c0.2,0.3,0.3,0.6,0.3,1c0,0.3-0.1,0.7-0.3,1
	l-145.6,348.1c-0.2,0.4-0.4,0.7-0.8,0.9C1808.1,1847,1807.7,1847.1,1807.3,1847z M1227.1,1843.2h579l144.1-344.3h-579L1227.1,1843.2
	z"/>
<path class="st4" d="M674.6,983.3c21.9,0,39.6-17.7,39.6-39.6c0-21.9-17.7-39.6-39.6-39.6c-21.9,0-39.6,17.7-39.6,39.6
	C635,965.6,652.8,983.3,674.6,983.3z"/>
<path class="st1" d="M694.2,942.6c-0.1,0-0.2,0-0.3-0.1c-0.1-0.1-0.1-0.2-0.1-0.3l-41.5-13.1c-0.8-0.4-1.5-1.5-1.2-2.3
	c0.2-0.5,0.5-0.9,0.9-1.2c0.4-0.3,0.9-0.4,1.4-0.4l41.5,13.4c0.4,0.2,0.8,0.5,1,0.9c0.2,0.4,0.3,0.9,0.1,1.4c-0.2,0.4-0.4,0.7-0.8,1
	C695,942.3,694.6,942.5,694.2,942.6z"/>
<path class="st1" d="M673.5,959.5c-0.4,0-0.8-0.2-1.1-0.4c-0.3-0.3-0.5-0.7-0.5-1.1l-3.5-23.8c0-0.5,0.2-1,0.4-1.4
	c0.3-0.4,0.6-0.7,1.1-0.9c0.6,0,1.1,0.2,1.5,0.5c0.4,0.4,0.7,0.8,0.8,1.4l3.1,23.4c0.1,0.2,0.2,0.5,0.2,0.8c0,0.3-0.1,0.6-0.3,0.8
	c-0.2,0.2-0.4,0.4-0.7,0.5c-0.3,0.1-0.6,0.2-0.8,0.1H673.5z"/>
<path class="st1" d="M685.8,1591.1c-0.5-0.1-1-0.4-1.4-0.8c-0.4-0.4-0.5-1-0.5-1.5l6.9-89.9c0-0.5,0.2-1,0.6-1.4
	c0.4-0.4,0.8-0.6,1.4-0.6c0.5,0.1,1,0.4,1.4,0.8c0.4,0.4,0.5,1,0.5,1.5l-6.9,89.9c0,0.5-0.2,1-0.6,1.4
	C686.8,1590.9,686.3,1591.1,685.8,1591.1z"/>
<path class="st1" d="M920.9,1257.2l40,30l2.3-26.9L920.9,1257.2z"/>
<path class="st1" d="M1194.1,1412.8l30,83.8l-35.4-56.1l-1.1-22.3L1194.1,1412.8z"/>
<path class="st1" d="M711.1,891.1c-0.1-8.9-1-17.8-2.7-26.5c0,0,83.8-4.2,91.1-66.9c0,0,98.7,34.6,118.7-18.1
	c20-52.6-49.6-77.6-118.7-46.9S619.7,826.9,665.4,903C678.1,924.1,710.7,915.7,711.1,891.1z"/>
<path class="st4" d="M653.1,795.4c0,0,6.5-159.8,182.1-91.8L653.1,795.4z"/>
<path class="st1" d="M653.1,797.3c-0.5,0-1-0.2-1.4-0.6c-0.4-0.4-0.6-0.8-0.6-1.4c0-0.8,3.1-64.5,49.2-94.9
	c32.3-21.5,78-20.7,135.6,1.2c0.3,0.1,0.5,0.3,0.7,0.4c0.2,0.2,0.3,0.4,0.5,0.7c0.1,0.2,0.2,0.5,0.2,0.8c0,0.3,0,0.5-0.1,0.8
	c-0.1,0.3-0.2,0.5-0.4,0.7c-0.2,0.2-0.4,0.3-0.7,0.5s-0.5,0.2-0.8,0.2c-0.3,0-0.5,0-0.8-0.1c-56.1-21.9-100.7-22.3-132.2-1.9
	c-44.2,29.2-47.3,91.1-47.3,91.8c0,0.5-0.2,1-0.6,1.4C654.1,797.1,653.6,797.3,653.1,797.3z"/>
<path class="st4" d="M651.6,843.4l6.5,9.6c0,0,58.8-111.8,214.4-131c-4-6-9.5-10.8-16-13.9c-6.5-3.1-13.7-4.4-20.9-3.8
	c-40.3,3.1-122.9,18.8-182.5,90.7c-5.5,6.8-8.6,15.2-8.8,24C644,827.7,646.5,836.3,651.6,843.4z"/>
<path class="st1" d="M658.1,855l-1.5-0.8l-6.9-9.6c-5.1-7.6-7.6-16.6-7.2-25.7c0.4-9.1,3.8-17.9,9.5-25
	c59.2-71.5,140.2-88,183.7-91.4c7.5-0.6,15,0.8,21.7,4c6.8,3.2,12.5,8.2,16.7,14.4c0.3,0.2,0.5,0.5,0.5,0.9c0.1,0.3,0,0.7-0.2,1
	l-1.5,1.2C720,742.8,660.4,852.7,659.6,853.8C658.9,855,658.9,855,658.1,855z M839.1,706.3H836c-42.6,3.5-123,19.6-181.4,89.9
	c-5.1,6.5-8,14.5-8.3,22.8c-0.3,8.3,2.1,16.4,6.7,23.3l4.6,7.3c10.4-17.3,72.2-110.7,211.3-129.1c-3.6-4.5-8.2-8.1-13.4-10.5
	C850.5,707.5,844.8,706.2,839.1,706.3z"/>
<path class="st1" d="M674.6,984.8c-7.3,0.1-14.5-1.9-20.7-5.8c-4.7-2.7-8.9-6.3-12.2-10.6c-3.3-4.3-5.7-9.3-7.1-14.5
	c-1.4-5.3-1.7-10.7-0.9-16.1c0.8-5.4,2.7-10.5,5.5-15.2c5.6-9.4,14.7-16.2,25.2-18.9c10.6-2.7,21.8-1.2,31.2,4.3
	c1.2,0.4,1.2,1.5,0.8,2.7c-0.3,0.4-0.8,0.7-1.3,0.7c-0.5,0.1-1-0.1-1.4-0.4c-8.6-4.6-18.6-5.7-28-3.1s-17.4,8.8-22.3,17.2
	s-6.4,18.4-4.1,27.9c2.3,9.5,8.2,17.7,16.4,22.9c8.6,4.9,18.9,6.3,28.5,3.8c9.6-2.5,17.9-8.7,23-17.2c0.2-0.4,0.6-0.7,1-0.8
	s0.9-0.1,1.3,0c1.2,0.8,1.5,1.9,0.8,2.7c-2.7,4.8-6.3,8.9-10.7,12.2c-4.4,3.3-9.3,5.7-14.7,7C681.6,984.4,678.1,984.8,674.6,984.8z"
	/>
<path class="st1" d="M674.6,825.4h-1.2c-23.1-19.6-15.8-37.7-15.4-38.4c0.3-0.4,0.7-0.7,1.2-0.8c0.5-0.1,1-0.1,1.5,0.1
	c0.4,0.2,0.7,0.6,0.8,1s0.1,0.9,0,1.3c-0.4,0.8-6.5,16.5,14.6,34.2c0.8,0.4,0.8,1.5,0,2.7H674.6z"/>
<path class="st1" d="M703.8,799.3H703c-17.3-6.1-22.3-32.3-22.7-33.4c0-0.5,0.2-1,0.4-1.4s0.6-0.7,1.1-0.9c1.2,0,2.3,0.4,2.3,1.5
	c0,1.2,5,25,20.4,30.4c0.5,0.2,0.8,0.6,1.1,1.1c0.2,0.5,0.2,1,0.1,1.6c-0.2,0.4-0.4,0.7-0.8,0.9
	C704.6,799.2,704.2,799.3,703.8,799.3z"/>
<path class="st1" d="M734.2,772c-0.5,0-1-0.2-1.4-0.6c-0.4-0.4-0.6-0.8-0.6-1.4c-0.4-5-11.9-18.8-19.2-26.1
	c-0.3-0.4-0.4-0.8-0.4-1.3c0-0.5,0.2-0.9,0.6-1.2c0.3-0.3,0.8-0.5,1.2-0.6c0.5,0,0.9,0.1,1.3,0.4c1.9,1.9,19.6,20.4,20.4,28.4
	c0,0.4-0.1,0.9-0.4,1.2c-0.3,0.4-0.7,0.6-1.1,0.7L734.2,772z"/>
<path class="st1" d="M769.9,753.9c-0.5,0-1-0.2-1.4-0.6c-0.4-0.4-0.6-0.8-0.6-1.4c-0.4-13.8-18.8-25.7-19.2-25.7
	c-0.2-0.2-0.4-0.3-0.5-0.6c-0.1-0.2-0.2-0.5-0.2-0.7s0-0.5,0-0.7c0.1-0.2,0.2-0.5,0.3-0.7c0.3-0.4,0.8-0.7,1.3-0.7
	c0.5-0.1,1,0.1,1.4,0.4c0.8,0.4,20.4,13.1,20.7,28.8c0,0.5-0.2,1-0.6,1.4C770.9,753.7,770.4,753.9,769.9,753.9z"/>
<path class="st1" d="M811,733.9c-0.4,0-0.8-0.1-1.1-0.3c-0.3-0.2-0.6-0.5-0.8-0.9c-2.2-7.7-7-14.5-13.4-19.2
	c-0.2-0.1-0.4-0.3-0.6-0.5c-0.2-0.2-0.3-0.4-0.4-0.7s-0.1-0.5-0.1-0.8c0-0.3,0.1-0.5,0.3-0.7c0.3-0.4,0.7-0.7,1.2-0.8
	c0.5-0.1,1-0.1,1.5,0.1c7.3,5.3,12.7,12.9,15.4,21.5c0.4,1.2-0.4,1.9-1.5,2.3H811z"/>
<path class="st1" d="M846.7,726.6c-0.4-0.1-0.8-0.3-1.1-0.5c-0.3-0.3-0.6-0.6-0.8-1c-3.8-11.9-16.5-18.4-16.5-18.4
	c-0.3,0-0.6-0.2-0.8-0.4c-0.2-0.2-0.4-0.4-0.5-0.7c-0.1-0.3-0.1-0.6,0-0.9c0.1-0.3,0.2-0.5,0.5-0.7c0.2-0.4,0.6-0.7,1-0.8
	c0.4-0.1,0.9-0.1,1.3,0c8.6,4.3,15.2,11.7,18.4,20.7c0.1,0.2,0.2,0.5,0.2,0.8c0,0.3,0,0.6-0.2,0.8c-0.1,0.3-0.3,0.5-0.5,0.7
	c-0.2,0.2-0.5,0.3-0.7,0.4H846.7z"/>
<path class="st1" d="M856,819.2c-40.3,0-57.2-19.6-58-20.4c-0.2-0.4-0.3-0.9-0.2-1.4c0.1-0.5,0.3-0.9,0.6-1.3
	c0.2-0.2,0.4-0.4,0.6-0.5c0.3-0.1,0.5-0.1,0.8-0.1c0.3,0,0.5,0.2,0.8,0.3c0.2,0.2,0.4,0.4,0.5,0.7c0,0,16.9,19.6,57.2,18.8
	c0.5,0,0.9,0.1,1.2,0.4c0.4,0.3,0.6,0.7,0.7,1.1c0.4,1.2-0.8,1.9-1.5,2.3H856z"/>
<path class="st1" d="M860.2,929.1h-0.8c-0.3-0.1-0.5-0.2-0.7-0.4c-0.2-0.2-0.4-0.4-0.5-0.7c-0.1-0.3-0.2-0.5-0.2-0.8
	c0-0.3,0.1-0.6,0.2-0.8c0.4-0.4,21.5-44.6,6.1-60.3c-0.9-1-2-1.8-3.3-2.3c-1.3-0.5-2.7-0.6-4-0.4c-10.8,2.3-22.7,28-26.1,37.7
	c-0.1,0.3-0.2,0.5-0.4,0.7c-0.2,0.2-0.4,0.4-0.7,0.5c-0.3,0.1-0.5,0.2-0.8,0.2c-0.3,0-0.6-0.1-0.8-0.2c-0.4-0.2-0.8-0.5-1-0.9
	c-0.2-0.4-0.3-0.9-0.1-1.4c0.8-1.5,14.2-36.9,29.2-40c1.9-0.4,4-0.3,5.8,0.3c1.9,0.6,3.6,1.7,4.9,3.2c17.3,17.7-4.2,62.6-5.4,64.5
	C860.6,929.9,861,929.1,860.2,929.1z"/>
<path class="st1" d="M831.4,992.1c-16.1,0-31.9-10.8-33-11.1c-0.3-0.4-0.6-0.8-0.6-1.3c-0.1-0.5,0-1,0.2-1.4
	c0.3-0.4,0.8-0.7,1.3-0.7c0.5-0.1,1,0.1,1.4,0.4c0.4,0,22.7,15,40.3,8.8c0.2-0.1,0.5-0.2,0.7-0.2c0.3,0,0.5,0,0.7,0.2
	c0.2,0.1,0.4,0.3,0.6,0.5c0.1,0.2,0.2,0.5,0.3,0.7c0.1,0.2,0.2,0.5,0.2,0.7c0,0.3,0,0.5-0.2,0.7c-0.1,0.2-0.3,0.4-0.5,0.6
	c-0.2,0.1-0.5,0.2-0.7,0.3C838.7,991.6,835.1,992.3,831.4,992.1z"/>
<path class="st0" d="M922.1,1070.9l-48.8-93.8l58-29.2l64.9,129.1L922.1,1070.9z"/>
<path class="st1" d="M906.1,972.5c15.9-8,26.9-18.3,24.6-23c-2.4-4.7-17.2-2.1-33.2,5.9c-15.9,8-26.9,18.3-24.6,23
	C875.3,983.2,890.1,980.5,906.1,972.5z"/>
<path class="st1" d="M888.6,995.2c-2.1,0.2-4.2,0-6.1-0.8c-1.2,0-1.5-1.2-1.5-2.3c0.2-0.4,0.5-0.8,0.9-1c0.4-0.2,0.9-0.3,1.4-0.1
	c0.4,0,27.7,5,53.4-26.5c0.3-0.4,0.8-0.7,1.3-0.8c0.5-0.1,1,0.1,1.4,0.4c0.3,0.1,0.5,0.3,0.7,0.5c0.2,0.2,0.3,0.5,0.3,0.8
	c0,0.3,0,0.6-0.1,0.8c-0.1,0.3-0.3,0.5-0.5,0.6C919.4,991.7,898.6,995.2,888.6,995.2z"/>
<path class="st1" d="M939,1075.5c-0.8,0-1.5-0.4-1.5-1.2l-41.5-81.1c-0.1-0.2-0.2-0.5-0.2-0.7c0-0.3,0-0.5,0.2-0.7
	c0.1-0.2,0.3-0.4,0.5-0.6c0.2-0.1,0.5-0.2,0.7-0.3c0.8-0.8,1.9-0.4,2.3,0.8l41.5,81.1c0.1,0.2,0.2,0.5,0.2,0.7c0,0.2,0,0.5-0.2,0.7
	c-0.1,0.2-0.3,0.4-0.5,0.6c-0.2,0.1-0.5,0.2-0.7,0.3C939.7,1075.5,939.3,1075.5,939,1075.5z"/>
<path class="st1" d="M978.5,1077.4c-0.4,0-0.8-0.1-1.1-0.3c-0.3-0.2-0.6-0.5-0.8-0.9L927,977.1c-0.8-0.8-0.4-1.9,0.8-2.7
	c0.2-0.1,0.5-0.2,0.7-0.2c0.3,0,0.5,0,0.7,0.2c0.2,0.1,0.4,0.3,0.6,0.5c0.1,0.2,0.2,0.5,0.3,0.7l49.9,99.1c0.1,0.5,0.1,1,0,1.4
	c-0.1,0.5-0.4,0.9-0.8,1.2H978.5z"/>
<path class="st1" d="M1055.8,1119.3h-0.4c-8.4-2.7-13.1-6.5-14.2-11.9s7.3-18.8,7.7-19.2c0.4-0.3,0.8-0.5,1.3-0.5s1,0.2,1.4,0.5
	c0.8,0.8,0.8,2.3,0,2.7c-0.8,0.4-8.5,8.4-6.5,15.8c1.9,7.3,4.6,6.9,11.5,9.2c0.8,0,1.5,1.2,1.2,2.3c-0.2,0.4-0.4,0.7-0.8,0.9
	C1056.6,1119.2,1056.2,1119.3,1055.8,1119.3z"/>
<path class="st1" d="M1052.7,1159.3h-0.8c-9.6-2.7-15-7.3-16.5-13.1c-1.5-5.8,5.8-16.5,6.2-16.9c0.4-0.2,0.9-0.3,1.3-0.3
	c0.5,0,0.9,0.1,1.3,0.3c0.4,0.4,0.6,1,0.6,1.5c0,0.6-0.2,1.1-0.6,1.5c-0.4,0-6.9,6.5-5.4,13.1c1.5,6.5,6.1,7.7,14.2,10.4
	c1.2,0,1.5,1.1,1.5,2.3c-0.2,0.4-0.4,0.7-0.8,0.9C1053.5,1159.2,1053.1,1159.3,1052.7,1159.3z"/>
<path class="st1" d="M1049.2,1200.8h-0.4c-10.5-3.1-16.3-7.7-17.3-13.8c-1.9-9.6,8.4-18.8,8.8-19.2c0.4-0.4,2.3-0.8,2.7,0
	c0.4,0.4,0.6,0.8,0.6,1.3c0,0.5-0.2,1-0.6,1.3c0,0-9.2,8.4-7.7,15.8c1.5,7.3,5.8,8.5,14.6,11.2c0.8,0.4,1.5,1.5,1.2,2.3
	c-0.2,0.3-0.5,0.6-0.8,0.8C1050,1200.6,1049.6,1200.7,1049.2,1200.8z"/>
<path class="st1" d="M1041.2,1246.5h-0.4c-12.3-3.8-19.2-9.2-20.8-16.1c-1.5-9.6,9.6-18.4,10-18.8c0.4-0.3,0.8-0.6,1.3-0.6
	c0.5,0,1,0.2,1.3,0.6c0.3,0.5,0.5,1,0.4,1.6c-0.1,0.6-0.3,1.1-0.8,1.5c0,0-9.6,7.7-8.5,15.4c1.2,7.7,7.3,9.6,18.1,12.7
	c0.8,0.4,1.5,1.5,1.1,2.3c-0.2,0.4-0.4,0.7-0.8,1C1042,1246.2,1041.6,1246.4,1041.2,1246.5z"/>
<path class="st1" d="M967.8,1583.4c-6.1-0.1-11.9-2.2-16.5-6.1c-0.3-0.1-0.6-0.3-0.8-0.5c-0.2-0.2-0.4-0.5-0.5-0.8
	c-0.1-0.3-0.1-0.6,0-0.9c0.1-0.3,0.2-0.6,0.4-0.8c0.2-0.2,0.5-0.4,0.8-0.5c0.3-0.1,0.6-0.2,0.9-0.1c0.3,0,0.6,0.2,0.9,0.3
	c0.3,0.2,0.5,0.4,0.6,0.7c4.6,3.5,10.4,5.2,16.1,4.6c3.8-0.6,7.4-2,10.6-4c3.2-2,6-4.7,8.2-7.9c0.2-0.2,0.3-0.4,0.6-0.5
	c0.2-0.1,0.5-0.2,0.7-0.2c0.2,0,0.5,0,0.7,0c0.2,0.1,0.5,0.2,0.7,0.3c0.2,0.1,0.4,0.3,0.5,0.6c0.1,0.2,0.2,0.5,0.2,0.7s0,0.5,0,0.8
	c-0.1,0.2-0.2,0.5-0.3,0.7c-2.5,3.6-5.7,6.6-9.4,8.9c-3.7,2.3-7.8,3.9-12.1,4.6L967.8,1583.4z"/>
<path class="st1" d="M1025,1482.4h-1.5c-14.2-1.2-24.6-14.6-25-15c-0.4-0.4-0.8-2.3,0-2.7c0.8-0.4,2.3-0.8,2.7,0.4
	c0.4,1.2,10,12.7,22.3,13.4c3.2,0.2,6.4-0.4,9.3-1.7c2.9-1.3,5.5-3.2,7.6-5.6c0.4-0.3,0.8-0.4,1.3-0.4c0.5,0,0.9,0.2,1.2,0.6
	c0.3,0.3,0.5,0.8,0.6,1.2c0,0.5-0.1,0.9-0.4,1.3c-2.2,2.6-5,4.7-8.1,6.2C1031.8,1481.6,1028.5,1482.3,1025,1482.4z"/>
<path class="st1" d="M1066.9,1457c-10.8,0-20-8.5-20.7-8.8c-0.3-0.4-0.4-0.8-0.4-1.3c0-0.5,0.2-0.9,0.6-1.2c0.3-0.3,0.8-0.5,1.2-0.6
	c0.5,0,0.9,0.1,1.3,0.4c0,0,11.1,9.6,21.9,7.3c10.8-2.3,11.1-7.7,15-17.3c0-0.2,0.1-0.5,0.3-0.7c0.2-0.2,0.3-0.4,0.6-0.5
	c0.2-0.1,0.5-0.2,0.7-0.2c0.3,0,0.5,0.1,0.7,0.2c0.2,0,0.5,0.1,0.7,0.3c0.2,0.1,0.4,0.3,0.5,0.6c0.1,0.2,0.2,0.5,0.2,0.7
	c0,0.2-0.1,0.5-0.2,0.7c-4.2,11.1-10,17.7-17.7,19.6L1066.9,1457z"/>
<path class="st1" d="M1123,1425.9c-6.4-0.2-12.6-2.1-18.1-5.4c-0.4-0.3-0.7-0.8-0.8-1.3c-0.1-0.5,0.1-1,0.4-1.4
	c0.4-1.2,1.9-1.2,2.7-0.8c5.7,4.1,12.7,5.7,19.6,4.6c3.4-0.7,6.6-2.1,9.4-4.2c2.8-2,5.1-4.7,6.8-7.7c0.3-0.4,0.8-0.7,1.3-0.8
	c0.5-0.1,1,0.1,1.4,0.4c1.1,0.4,1.1,1.9,0.8,2.7c-2.1,3.5-4.9,6.5-8.2,8.8c-3.3,2.3-7.1,3.9-11,4.7L1123,1425.9z"/>
<path class="st0" d="M1608.3,1706.8c19.7,0,35.7-16,35.7-35.7c0-19.7-16-35.7-35.7-35.7c-19.7,0-35.7,16-35.7,35.7
	C1572.5,1690.8,1588.5,1706.8,1608.3,1706.8z"/>
<path class="st5" d="M1797.3,722h-775.7v69.6h775.7V722z"/>
<path class="st1" d="M1702,788.1c-0.5,0-1-0.2-1.4-0.6c-0.4-0.4-0.6-0.8-0.6-1.4v-59.9c0-0.5,0.2-1,0.6-1.4s0.8-0.6,1.4-0.6
	s1,0.2,1.3,0.6s0.6,0.8,0.6,1.4v59.9c0,0.3,0,0.5-0.1,0.7c-0.1,0.2-0.2,0.4-0.4,0.6c-0.2,0.2-0.4,0.3-0.6,0.4
	C1702.5,788.1,1702.3,788.1,1702,788.1z"/>
<path class="st1" d="M1735.4,765.1c-3.4,0-6.8-1-9.6-2.9c-2.8-1.9-5.1-4.6-6.4-7.8c-1.3-3.2-1.7-6.6-1-10c0.7-3.4,2.3-6.4,4.7-8.9
	c2.4-2.4,5.5-4.1,8.8-4.7c3.4-0.7,6.8-0.3,10,1c3.2,1.3,5.9,3.5,7.8,6.4c1.9,2.8,2.9,6.2,2.9,9.6c0,4.6-1.8,9-5.1,12.2
	C1744.4,763.2,1740,765.1,1735.4,765.1z M1735.4,734.7c-3.5,0-6.9,1.4-9.4,3.8c-2.5,2.4-4,5.8-4.1,9.3c0,3.6,1.4,7,3.9,9.5
	c2.5,2.5,5.9,3.9,9.5,3.9c3.6,0,7-1.4,9.5-3.9c2.5-2.5,3.9-5.9,3.9-9.5c-0.1-3.5-1.6-6.8-4.1-9.3
	C1742.3,736.1,1738.9,734.7,1735.4,734.7z"/>
<path class="st1" d="M1774.2,788.1h-1.2l-28.8-27.3c-0.8-0.4-0.8-1.9,0-2.7s1.9-0.8,2.7,0l28.8,27.3c0.3,0.4,0.5,0.8,0.5,1.3
	s-0.2,1-0.5,1.3H1774.2z"/>
<path class="st4" d="M1069.2,775.8c9.1,0,16.5-7.4,16.5-16.5c0-9.1-7.4-16.5-16.5-16.5c-9.1,0-16.5,7.4-16.5,16.5
	C1052.7,768.4,1060.1,775.8,1069.2,775.8z"/>
<path class="st4" d="M1132.2,775.8c9.1,0,16.5-7.4,16.5-16.5c0-9.1-7.4-16.5-16.5-16.5c-9.1,0-16.5,7.4-16.5,16.5
	C1115.7,768.4,1123.1,775.8,1132.2,775.8z"/>
<path class="st4" d="M1197.5,775.8c9.1,0,16.5-7.4,16.5-16.5c0-9.1-7.4-16.5-16.5-16.5c-9.1,0-16.5,7.4-16.5,16.5
	C1181,768.4,1188.4,775.8,1197.5,775.8z"/>
<path class="st0" d="M1622.1,835.4h-192.5v259.5h192.5V835.4z"/>
<path class="st1" d="M1622.1,895.3h-192.5c-0.5-0.1-0.9-0.3-1.3-0.6c-0.3-0.3-0.6-0.8-0.6-1.3c0-0.5,0.2-1,0.6-1.4
	c0.4-0.4,0.8-0.6,1.4-0.6h192.5c0.5,0,1,0.2,1.4,0.6c0.4,0.4,0.6,0.8,0.6,1.4c0,0.5-0.2,1-0.6,1.4
	C1623.1,895.1,1622.6,895.3,1622.1,895.3z"/>
<path class="st1" d="M1600.2,919.5h-99.1c-0.5,0-1-0.2-1.4-0.6c-0.4-0.4-0.6-0.8-0.6-1.4c0-0.5,0.2-1,0.6-1.4
	c0.4-0.4,0.9-0.6,1.4-0.6h99.1c0.5,0,1,0.2,1.4,0.6c0.4,0.4,0.6,0.8,0.6,1.4c0,0.5-0.2,1-0.6,1.4
	C1601.2,919.3,1600.7,919.5,1600.2,919.5z"/>
<path class="st1" d="M1600.2,938.3h-99.1c-0.5,0-1-0.2-1.4-0.6s-0.6-0.8-0.6-1.4c0-0.5,0.2-1,0.6-1.4s0.9-0.6,1.4-0.6h99.1
	c0.5,0,1,0.2,1.4,0.6c0.4,0.4,0.6,0.8,0.6,1.4c0,0.5-0.2,1-0.6,1.4C1601.2,938.1,1600.7,938.3,1600.2,938.3z"/>
<path class="st1" d="M1600.2,957.2h-99.1c-0.5,0-1-0.2-1.4-0.6c-0.4-0.4-0.6-0.8-0.6-1.4c0-0.5,0.2-1,0.6-1.4
	c0.4-0.4,0.9-0.6,1.4-0.6h99.1c0.5,0,1,0.2,1.4,0.6c0.4,0.4,0.6,0.8,0.6,1.4c0,0.5-0.2,1-0.6,1.4
	C1601.2,957,1600.7,957.2,1600.2,957.2z"/>
<path class="st1" d="M1600.2,1066.7h-157.1c-0.5,0-1-0.2-1.4-0.6c-0.4-0.4-0.6-0.8-0.6-1.4s0.2-1,0.6-1.4c0.4-0.4,0.9-0.6,1.4-0.6
	h157.1c0.5,0,1,0.2,1.4,0.6c0.4,0.4,0.6,0.8,0.6,1.4s-0.2,1-0.6,1.4C1601.2,1066.5,1600.7,1066.7,1600.2,1066.7z"/>
<path class="st5" d="M398.8,1627.6h-337v207.9h337V1627.6z"/>
<path class="st1" d="M61.8,1837.4c-0.4,0-1.2-0.4-1.2-0.8c0-0.4-0.8-2.3,0-2.7l131-104.1h2.3l94.1,65.7l80.3-65.7h2.3l29.2,20.4
	c0.2,0.1,0.4,0.3,0.5,0.5c0.1,0.2,0.2,0.4,0.2,0.6c0,0.2,0,0.4,0,0.7c-0.1,0.2-0.2,0.4-0.3,0.6c-0.4,1.2-1.9,1.2-2.7,0.8l-28-19.6
	l-79.9,65.7c-0.1,0.2-0.3,0.3-0.5,0.4c-0.2,0.1-0.4,0.1-0.6,0.1c-0.2,0-0.4,0-0.6-0.1s-0.4-0.2-0.5-0.4l-94.1-65.7L63.3,1837
	L61.8,1837.4z"/>
<path class="st4" d="M435.1,1351.6l-323.4,190.5l114.1,193.8l323.4-190.5L435.1,1351.6z"/>
<path class="st1" d="M224.3,1738.7l-1.5-0.8l-114.1-194c-0.1-0.5-0.1-1,0-1.4c0.1-0.5,0.4-0.9,0.8-1.2L432.9,1351
	c0.4,0,1.2-0.4,1.5,0l1.2,0.8l114.1,194c0.2,0.4,0.2,0.9,0,1.3c-0.1,0.4-0.4,0.8-0.8,1l-323.5,190.2L224.3,1738.7z M112.9,1543.5
	l112.2,190.6l320.1-188.3l-111.8-190.6L112.9,1543.5z"/>
<path class="st1" d="M244.3,1701.4h-0.8c-0.8-0.4-1.5-1.5-0.8-2.3l75.3-171c0.2-0.4,0.6-0.7,1-0.8c0.4-0.1,0.9-0.1,1.3,0l80.7,30
	l17.3-33c0.2-0.2,0.4-0.4,0.7-0.6s0.6-0.2,0.9-0.2l26.5-6.5l5.4-62.6c0.1-0.5,0.4-1,0.8-1.4c0.4-0.3,1-0.5,1.5-0.5
	c0.4,0.2,0.8,0.5,1.1,0.9c0.3,0.4,0.4,0.9,0.4,1.4l-5.8,64.2c0,0.8-0.4,1.5-1.2,1.5l-27.3,6.5l-17.7,33.8c-0.2,0.4-0.6,0.7-1,0.8
	c-0.4,0.1-0.9,0.1-1.3,0l-80.7-30l-74.5,169.1c-0.2,0.3-0.5,0.5-0.8,0.7C245,1701.4,244.7,1701.5,244.3,1701.4z"/>
<path class="st3" d="M405.7,1507.4c9.8,0,17.7-7.9,17.7-17.7c0-9.8-7.9-17.7-17.7-17.7s-17.7,7.9-17.7,17.7
	C388,1499.5,395.9,1507.4,405.7,1507.4z"/>
<path class="st0" d="M290.4,1772.5c10.4,0,18.8-8.4,18.8-18.8c0-10.4-8.4-18.8-18.8-18.8c-10.4,0-18.8,8.4-18.8,18.8
	C271.6,1764.1,280,1772.5,290.4,1772.5z"/>
<path class="st1" d="M241.4,948.3l-76.9,31.1c-14,5.6-20.7,21.5-15.1,35.5l68.6,169.7c5.6,14,21.5,20.7,35.5,15.1l76.9-31.1
	c14-5.6,20.7-21.5,15.1-35.5L277,963.3C271.3,949.4,255.4,942.6,241.4,948.3z"/>
<path class="st4" d="M242,956.3l-72.3,29.2c-12,4.8-17.8,18.5-13,30.5l66.3,164.1c4.8,12,18.5,17.8,30.5,13l72.3-29.2
	c12-4.8,17.8-18.5,13-30.5l-66.3-164.1C267.7,957.2,254,951.4,242,956.3z"/>
<path class="st1" d="M184.4,979.4L230,961l1.2,2.8c1.3,3.2,1.3,6.8-0.1,10c-1.4,3.2-3.9,5.7-7.1,7l-21,8.5c-3.2,1.3-6.8,1.3-10-0.1
	c-3.2-1.4-5.7-3.9-7-7.1l-1.2-2.8L184.4,979.4z"/>
<path class="st1" d="M284.6,1173.5c7.2,0,13.1-5.8,13.1-13.1c0-7.2-5.8-13.1-13.1-13.1c-7.2,0-13.1,5.8-13.1,13.1
	C271.6,1167.6,277.4,1173.5,284.6,1173.5z"/>
<path class="st1" d="M193.6,1041.3c-0.8-0.2-1.4-0.6-1.9-1.2l-5.4-13.5v-1.1c0.5-0.8,0.9-1.2,1.2-1.2l72.2-29.2
	c0.2-0.1,0.5-0.2,0.8-0.2c0.3,0,0.6,0,0.8,0.2c0.3,0.1,0.5,0.3,0.7,0.5c0.2,0.2,0.3,0.5,0.4,0.7l5,13.1c0.2,0.4,0.2,0.9,0,1.3
	c-0.1,0.4-0.4,0.8-0.8,1l-72.2,29.2L193.6,1041.3z M190.5,1027.1l3.8,9.6l68.8-27.7l-3.8-9.6L190.5,1027.1z"/>
<path class="st1" d="M204.3,1057.8c-0.4-0.1-0.8-0.3-1.1-0.5c-0.3-0.3-0.6-0.6-0.8-1c-0.1-0.2-0.2-0.5-0.2-0.7c0-0.2,0-0.5,0.2-0.7
	c0.1-0.2,0.3-0.4,0.5-0.6s0.5-0.2,0.7-0.3l58.4-23.8c0.5-0.2,1.1-0.2,1.6,0c0.5,0.2,0.9,0.6,1.1,1.1c0.2,0.5,0.2,1.1,0,1.6
	c-0.2,0.5-0.6,0.9-1.1,1.1l-58.4,23.4L204.3,1057.8z"/>
<path class="st1" d="M210.1,1072.1c-0.4,0-0.8-0.1-1.1-0.3c-0.3-0.2-0.6-0.5-0.8-0.9c-0.1-0.2-0.2-0.5-0.2-0.8c0-0.3,0-0.6,0.2-0.8
	c0.1-0.3,0.3-0.5,0.5-0.7c0.2-0.2,0.5-0.3,0.7-0.4l43-17.3c0.2-0.1,0.5-0.2,0.8-0.2c0.3,0,0.6,0,0.8,0.2s0.5,0.3,0.7,0.5
	c0.2,0.2,0.3,0.5,0.4,0.7c0.4,0.8-0.4,1.9-1.2,2.3l-43,17.3L210.1,1072.1z"/>
<path class="st1" d="M224.7,1108.6c-0.8,0-1.5-0.4-1.5-1.2c-0.2-0.5-0.2-1-0.1-1.5c0.1-0.5,0.4-0.9,0.8-1.2l58.8-23.8
	c0.8-0.4,1.9,0.4,2.3,1.2c0.2,0.5,0.2,1,0.1,1.5c-0.1,0.5-0.4,0.9-0.8,1.2l-58.8,23.4L224.7,1108.6z"/>
<path class="st1" d="M231.2,1123.9c-0.4,0-0.8-0.1-1.1-0.3c-0.3-0.2-0.6-0.5-0.8-0.9c-0.4-1.2,0-1.9,1.2-2.7l30.7-12.3
	c0.2-0.1,0.5-0.2,0.8-0.2c0.3,0,0.6,0.1,0.8,0.2c0.3,0.1,0.5,0.3,0.7,0.5c0.2,0.2,0.3,0.5,0.4,0.7c0.4,0.8-0.4,1.9-1.2,2.3
	l-31.1,12.7H231.2z"/>
<path class="st1" d="M240.8,1148.5c-0.8,0-1.2-0.4-1.5-1.2c-0.1-0.2-0.2-0.5-0.2-0.8c0-0.3,0-0.6,0.2-0.8c0.1-0.2,0.3-0.5,0.5-0.7
	c0.2-0.2,0.5-0.3,0.7-0.4l58.4-23.4c0.4-0.2,0.9-0.2,1.3,0c0.4,0.1,0.8,0.4,1,0.8c0.2,0.5,0.2,1,0.1,1.5c-0.1,0.5-0.4,0.9-0.8,1.2
	l-58.8,23.8H240.8z"/>
<path class="st5" d="M522.1,923H416.8c-9.1,0-16.5,7.4-16.5,16.5v54.6c0,9.1,7.4,16.5,16.5,16.5h105.3c9.1,0,16.5-7.4,16.5-16.5
	v-54.6C538.6,930.4,531.2,923,522.1,923z"/>
<path class="st1" d="M454.8,949.9v33.8l45.7-19.2L454.8,949.9z"/>
<path class="st0" d="M1550.6,392c38.4,0,69.6-31.1,69.6-69.5s-31.1-69.5-69.6-69.5c-38.4,0-69.5,31.1-69.5,69.5
	S1512.2,392,1550.6,392z"/>
<path class="st1" d="M1521.4,405.8c-14.2,0-28-4.2-39.7-12.1c-11.8-7.9-20.9-19.1-26.3-32.1c-5.4-13.1-6.8-27.5-4-41.3
	c2.8-13.9,9.6-26.6,19.7-36.6c10-10,22.8-16.8,36.7-19.5c13.9-2.7,28.3-1.2,41.3,4.2c13,5.5,24.2,14.7,32,26.5
	c7.8,11.8,11.9,25.7,11.9,39.8c-0.1,18.9-7.7,37-21.1,50.3C1558.4,398.3,1540.3,405.8,1521.4,405.8z M1521.4,267.1
	c-13.4,0-26.4,4-37.6,11.4c-11.1,7.4-19.8,18-24.9,30.3c-5.1,12.4-6.5,26-3.8,39.1c2.6,13.1,9.1,25.2,18.5,34.6
	c9.4,9.5,21.5,15.9,34.6,18.5c13.1,2.6,26.7,1.3,39.1-3.8c12.4-5.1,22.9-13.8,30.3-24.9c7.4-11.1,11.4-24.2,11.4-37.6
	c0-17.9-7.1-35.1-19.8-47.8C1556.6,274.2,1539.4,267.1,1521.4,267.1z"/>
<path class="st3" d="M341.5,426.2c22.3,0,40.3-18.1,40.3-40.3c0-22.3-18.1-40.3-40.3-40.3s-40.3,18.1-40.3,40.3
	C301.2,408.1,319.2,426.2,341.5,426.2z"/>
<path class="st1" d="M363,413.5c-8.4,0-16.5-2.5-23.5-7.1c-7-4.6-12.4-11.2-15.6-19s-4-16.2-2.4-24.4c1.6-8.2,5.7-15.7,11.6-21.6
	c5.9-5.9,13.4-9.9,21.6-11.6c8.2-1.6,16.7-0.8,24.4,2.4c7.7,3.2,14.3,8.6,19,15.6c4.6,6.9,7.1,15.1,7.1,23.5
	c0,11.2-4.5,22-12.4,29.9S374.2,413.5,363,413.5z M363,333.2c-7.6,0-15.1,2.3-21.4,6.5c-6.3,4.2-11.2,10.3-14.1,17.3
	c-2.9,7-3.6,14.8-2.1,22.3c1.5,7.5,5.2,14.3,10.6,19.7c5.4,5.4,12.3,9,19.8,10.4S371,410,378,407c7-3,13-8,17.2-14.3
	c4.2-6.4,6.4-13.8,6.3-21.5c0-5-1-10-2.9-14.6c-1.9-4.6-4.8-8.9-8.3-12.4c-3.6-3.5-7.8-6.3-12.5-8.2S368,333.1,363,333.2z"/>
<path class="st5" d="M81.4,698.6l33.4-124.9l56.9,98.7L81.4,698.6z"/>
<path class="st1" d="M61.8,693.2l-1.2-0.8c-0.3-0.2-0.5-0.5-0.5-0.9c-0.1-0.4,0-0.7,0.2-1l33.4-124.9c0-0.8,0.8-1.2,1.5-1.2
	c0.4-0.1,0.8-0.1,1.1,0c0.4,0.1,0.6,0.4,0.8,0.8L154,664v1.9l-1.2,1.2l-90.3,25.7L61.8,693.2z M96,571.4L64.9,688.2l84.5-24.2
	L96,571.4z"/>
<path class="st0" d="M1314,470l11.5-43.8l30,34.6L1314,470z"/>
<path class="st1" d="M1292.8,466.1l-1.1-0.8c-0.4-0.4-0.8-1.2-0.4-1.5l11.5-44.2c0.4-0.4,0.8-1.2,1.5-1.2c0.3-0.2,0.7-0.2,1-0.2
	s0.7,0.3,0.9,0.5l30,34.6c0.4,0.6,0.5,1.3,0.4,1.9c-0.4,0.8-0.8,1.2-1.5,1.2l-41.5,9.6H1292.8z M1305.5,424.3l-10,37.3l35.7-8.1
	L1305.5,424.3z"/>
<path class="st3" d="M1507.4,573.4l-65.7-28l-28,65.6l65.7,28L1507.4,573.4z"/>
<path class="st1" d="M1453.4,609.1h-0.8l-65.7-28l-1.1-1.2v-1.5l28-65.3c0.3-0.8,0.6-1.2,1.2-1.2h1.5l65.7,28
	c0.4,0.3,0.7,0.7,0.8,1.2c0.1,0.5,0.1,1-0.1,1.5l-28.1,65.3l-0.8,1.2H1453.4z M1390.4,578.3l61.8,26.5l26.5-62.2l-61.9-26.5
	L1390.4,578.3z"/>
<path class="st0" d="M235.8,1328.5l-38.1-12.2l-12.2,38.1l38.1,12.2L235.8,1328.5z"/>
<path class="st1" d="M216.6,1359.1h-0.4l-38-11.9c-0.8-0.3-1.2-0.6-1.2-1.2c-0.4-0.4-0.4-0.8-0.4-1.5l12.3-38
	c0.4-0.8,1.5-1.5,2.3-1.2l38.4,12.3l1.2,0.8v1.5l-12.3,37.7c-0.1,0.4-0.3,0.8-0.7,1.1S217.1,1359.1,216.6,1359.1z M180.9,1343.7
	l34.6,10.8l11.1-34.2l-34.6-11.2L180.9,1343.7z"/>
<path class="st4" d="M578.4,542.4l-54.7-24.5L399.4,795.8l54.7,24.5L578.4,542.4z"/>
<path class="st1" d="M454.8,822.3h-0.8l-54.6-24.2c-0.3-0.1-0.5-0.2-0.7-0.4c-0.2-0.2-0.4-0.4-0.5-0.7c-0.1-0.3-0.2-0.5-0.2-0.8
	c0-0.3,0.1-0.6,0.2-0.8l124.1-277.8c0.5-0.8,0.9-1.2,1.2-1.2h1.5l54.6,24.6c0.4,0.2,0.7,0.6,0.8,1c0.1,0.4,0.1,0.9,0,1.3
	L456.4,821.5c0,0.4-0.4,0.8-1.2,0.8H454.8z M402.6,795l51.1,22.7l122.6-274.3l-51.1-23.1L402.6,795z"/>
<path class="st1" d="M571.3,561h-0.8l-37.7-16.5c-0.4-0.3-0.7-0.7-0.8-1.2c-0.1-0.5-0.1-1,0.1-1.5c0.4-0.8,1.5-1.5,2.3-0.8
	l37.7,16.5c0.3,0.1,0.5,0.2,0.7,0.4c0.2,0.2,0.4,0.4,0.5,0.7c0.1,0.3,0.2,0.5,0.2,0.8c0,0.3-0.1,0.6-0.2,0.8
	c-0.2,0.3-0.5,0.5-0.8,0.7C572,561.1,571.6,561.1,571.3,561z"/>
<path class="st1" d="M563.2,579.1h-0.8l-27.3-12.3c-0.4-0.3-0.6-0.6-0.8-1.1c-0.1-0.4-0.1-0.9,0.1-1.3c0.2-0.4,0.5-0.7,0.9-0.9
	c0.4-0.2,0.9-0.2,1.3-0.1l27.3,11.9c1.2,0.8,1.5,1.5,1.2,2.7c-0.2,0.4-0.4,0.7-0.8,0.9C564,579,563.6,579.1,563.2,579.1z"/>
<path class="st1" d="M553.2,596.4h-0.8l-37.7-16.5c-0.2-0.1-0.4-0.3-0.6-0.5c-0.2-0.2-0.3-0.4-0.4-0.7s-0.1-0.5-0.1-0.8
	s0.1-0.5,0.3-0.7c0.4-0.8,1.5-1.5,2.3-0.8l37.7,16.5c0.3,0.1,0.5,0.2,0.7,0.4c0.2,0.2,0.4,0.4,0.5,0.7c0.1,0.3,0.2,0.5,0.2,0.8
	c0,0.3-0.1,0.6-0.2,0.8c-0.2,0.3-0.5,0.5-0.8,0.7C553.9,596.4,553.6,596.5,553.2,596.4z"/>
<path class="st1" d="M545.1,614.4h-0.8l-27.3-12.3c-0.3-0.1-0.5-0.2-0.7-0.4c-0.2-0.2-0.4-0.4-0.5-0.7c-0.1-0.3-0.2-0.5-0.2-0.8
	c0-0.3,0.1-0.6,0.2-0.8c0.3-0.4,0.7-0.7,1.2-0.8c0.5-0.1,1-0.1,1.5,0.1l27.3,11.9c0.8,0.8,1.5,1.9,0.8,2.7
	C545.9,614.1,545.9,614.4,545.1,614.4z"/>
<path class="st1" d="M537.1,632.5h-0.8l-37.7-16.9c-0.3,0-0.5-0.1-0.7-0.3c-0.2-0.1-0.4-0.3-0.5-0.6s-0.2-0.5-0.2-0.7
	c0-0.3,0.1-0.5,0.2-0.7c0.2-0.5,0.6-0.8,1.1-1.1c0.5-0.2,1-0.2,1.6-0.1l37.7,16.9c0.8,0.4,1.5,1.5,0.8,2.3
	C537.8,632.1,537.8,632.5,537.1,632.5z"/>
<path class="st1" d="M529,650.6h-0.8L501,638.3c-0.3,0-0.5-0.1-0.7-0.3c-0.2-0.1-0.4-0.3-0.5-0.6c-0.1-0.2-0.2-0.5-0.2-0.7
	c0-0.3,0.1-0.5,0.2-0.7c0.1-0.3,0.2-0.5,0.4-0.7c0.2-0.2,0.4-0.4,0.7-0.5c0.3-0.1,0.5-0.2,0.8-0.2c0.3,0,0.6,0.1,0.8,0.2l27.3,12.3
	c0.4,0.2,0.7,0.6,0.8,1c0.1,0.4,0.1,0.9,0,1.3C530.2,650.2,529.8,650.6,529,650.6z"/>
<path class="st1" d="M522.9,669.8h-0.8l-37.7-16.5c-0.3-0.1-0.5-0.2-0.7-0.4c-0.2-0.2-0.4-0.4-0.5-0.7c-0.1-0.3-0.2-0.5-0.2-0.8
	s0.1-0.6,0.2-0.8c0.3-0.4,0.7-0.7,1.2-0.8c0.5-0.1,1-0.1,1.5,0.1l37.7,16.5c0.4,0.3,0.7,0.7,0.8,1.2c0.1,0.5,0.1,1-0.1,1.5
	C524.4,669.4,523.6,669.8,522.9,669.8z"/>
<path class="st1" d="M514.8,687.8H514l-27.3-12.3c-0.3-0.1-0.5-0.2-0.7-0.4c-0.2-0.2-0.4-0.4-0.5-0.7c-0.1-0.3-0.2-0.5-0.2-0.8
	c0-0.3,0.1-0.6,0.2-0.8c0.3-0.4,0.7-0.7,1.2-0.8c0.5-0.1,1-0.1,1.5,0.1l27.3,12.3c0.4,0.2,0.7,0.6,0.8,1c0.1,0.4,0.1,0.9,0,1.3
	C515.9,687.4,515.6,687.8,514.8,687.8z"/>
<path class="st1" d="M502.5,710.1h-0.8l-37.7-16.9c-0.3,0-0.5-0.1-0.7-0.3c-0.2-0.1-0.4-0.3-0.5-0.6c-0.1-0.2-0.2-0.5-0.2-0.7
	c0-0.3,0.1-0.5,0.2-0.7c0.1-0.3,0.2-0.5,0.4-0.7c0.2-0.2,0.4-0.4,0.7-0.5c0.3-0.1,0.5-0.2,0.8-0.2c0.3,0,0.6,0.1,0.8,0.2l37.7,16.9
	c0.4,0.2,0.7,0.6,0.8,1c0.1,0.4,0.1,0.9,0,1.3C503.6,709.7,503.3,710.1,502.5,710.1z"/>
<path class="st1" d="M494.4,728.6h-1.2L466,716.3c-0.4-0.2-0.7-0.6-0.8-1c-0.1-0.4-0.1-0.9,0-1.3c0.1-0.3,0.2-0.5,0.4-0.7
	c0.2-0.2,0.4-0.4,0.7-0.5c0.3-0.1,0.5-0.2,0.8-0.2c0.3,0,0.6,0.1,0.8,0.2l27.3,12.3c0.4,0.3,0.7,0.7,0.8,1.2c0.1,0.5,0.1,1-0.1,1.5
	L494.4,728.6z"/>
<path class="st1" d="M486,746.6h-0.8l-37.3-16.5c-1.2-0.8-1.5-1.5-1.2-2.7c0.1-0.3,0.2-0.5,0.4-0.7c0.2-0.2,0.4-0.4,0.7-0.5
	c0.3-0.1,0.5-0.2,0.8-0.2c0.3,0,0.6,0.1,0.8,0.2l37.3,16.9c0.3,0.1,0.5,0.2,0.7,0.4c0.2,0.2,0.4,0.4,0.5,0.7
	c0.1,0.3,0.2,0.5,0.2,0.8c0,0.3-0.1,0.6-0.2,0.8c-0.2,0.3-0.5,0.5-0.8,0.7C486.7,746.7,486.3,746.7,486,746.6z"/>
<path class="st1" d="M477.9,764.7h-0.8l-27.3-11.9c-0.4-0.3-0.7-0.7-0.8-1.2c-0.1-0.5-0.1-1,0.1-1.5c0.4-0.8,1.5-1.5,2.3-0.8
	l27.3,11.9c0.3,0.1,0.5,0.2,0.7,0.4c0.2,0.2,0.4,0.4,0.5,0.7c0.1,0.3,0.2,0.5,0.2,0.8c0,0.3-0.1,0.6-0.2,0.8
	c-0.2,0.3-0.5,0.5-0.8,0.7C478.6,764.7,478.3,764.7,477.9,764.7z"/>
<path class="st1" d="M468.7,786.2h-0.8l-37.7-16.9c-0.3,0-0.5-0.1-0.7-0.3c-0.2-0.1-0.4-0.3-0.5-0.6c-0.1-0.2-0.2-0.5-0.2-0.7
	c0-0.3,0.1-0.5,0.2-0.7c0.1-0.3,0.2-0.5,0.4-0.7c0.2-0.2,0.4-0.4,0.7-0.5c0.3-0.1,0.5-0.2,0.8-0.2c0.3,0,0.6,0.1,0.8,0.2l37.7,16.9
	c0.4,0.3,0.7,0.7,0.8,1.2s0.1,1-0.1,1.5L468.7,786.2z"/>
<path class="st1" d="M460.2,804.2h-0.8l-27.3-11.9c-0.4-0.3-0.6-0.8-0.8-1.2c-0.1-0.5-0.1-1,0-1.5c0-0.3,0.1-0.5,0.3-0.7
	c0.1-0.2,0.3-0.4,0.6-0.5c0.2-0.1,0.5-0.2,0.7-0.2c0.3,0,0.5,0.1,0.7,0.2l27.7,12.3c0.4,0.3,0.7,0.7,0.8,1.2c0.1,0.5,0.1,1-0.1,1.5
	c-0.2,0.3-0.5,0.5-0.8,0.7C461,804.3,460.6,804.3,460.2,804.2z"/>
<path class="st3" d="M1518.4,1285.7h-1.2l-34.2-18.1c-0.5-0.3-0.8-0.7-0.9-1.2c-0.1-0.5-0.1-1,0.2-1.5c0.3-0.5,0.7-0.8,1.2-0.9
	c0.5-0.2,1-0.1,1.5,0.2l34.2,18.1c0.4,0.3,0.6,0.8,0.8,1.2c0.1,0.5,0.1,1,0,1.5c-0.2,0.2-0.4,0.4-0.7,0.6
	C1518.9,1285.6,1518.7,1285.7,1518.4,1285.7z"/>
<path class="st5" d="M1071.9,586c-0.4-0.1-0.8-0.3-1.2-0.5c-0.3-0.3-0.6-0.6-0.8-1l-18.1-68.8c-0.1-0.3-0.1-0.5,0-0.8
	c0-0.3,0.2-0.5,0.3-0.7c0.1-0.2,0.3-0.4,0.5-0.5c0.2-0.1,0.5-0.2,0.7-0.3c0.8-0.4,1.9,0.4,2.3,1.2l18.1,69.2
	c0.4,0.8-0.4,1.9-1.5,2.3H1071.9z"/>
<path class="st2" d="M190.5,777l-1.5-0.8c-0.3-0.4-0.4-0.9-0.4-1.4c0.1-0.5,0.3-1,0.7-1.3l42.3-36.5c1.2-0.8,2.3-0.8,2.7,0
	c0.4,0.4,0.5,0.8,0.5,1.3s-0.2,1-0.5,1.3l-42.6,36.9L190.5,777z"/>
<path class="st1" d="M115.6,1182.7h-1.2l-68.8-46.9c-0.3-0.3-0.6-0.8-0.6-1.3c-0.1-0.5,0-1,0.2-1.4c0.1-0.2,0.3-0.4,0.5-0.6
	c0.2-0.2,0.4-0.3,0.7-0.4c0.3-0.1,0.5-0.1,0.8-0.1c0.3,0,0.5,0.1,0.7,0.2l68.8,46.9c0.4,0.3,0.7,0.8,0.7,1.3c0.1,0.5-0.1,1-0.4,1.4
	C116.7,1182.7,116.3,1182.7,115.6,1182.7z"/>
<path class="st3" d="M1697.8,1283.8c16.5,0,30-13.4,30-30c0-16.6-13.4-30-30-30c-16.6,0-30,13.4-30,30
	C1667.8,1270.3,1681.2,1283.8,1697.8,1283.8z"/>
<path class="st1" d="M1685.1,1276.4c-4.4,0.5-9,0-13.2-1.3s-8.2-3.6-11.5-6.6c-3.3-3-6-6.7-7.8-10.8c-1.8-4.1-2.8-8.5-2.8-13
	c0-4.5,0.9-8.9,2.8-13s4.5-7.8,7.8-10.8c3.3-3,7.3-5.2,11.5-6.6s8.8-1.8,13.2-1.3c4.5-0.5,9,0,13.2,1.3c4.3,1.4,8.2,3.6,11.5,6.6
	c3.3,3,6,6.7,7.8,10.8c1.8,4.1,2.8,8.5,2.8,13c0,4.5-0.9,8.9-2.8,13c-1.8,4.1-4.5,7.8-7.8,10.8c-3.3,3-7.3,5.2-11.5,6.6
	C1694.1,1276.5,1689.6,1276.9,1685.1,1276.4z M1685.1,1216.9c-5.6,0-11,1.7-15.6,4.8c-4.6,3.1-8.2,7.5-10.3,12.7
	c-2.1,5.1-2.6,10.8-1.5,16.2c1.1,5.4,3.8,10.4,7.8,14.4c4,3.9,9,6.5,14.5,7.6c5.5,1,11.1,0.4,16.2-1.8c5.1-2.2,9.5-5.8,12.5-10.5
	s4.6-10.1,4.5-15.7c-0.1-7.4-3.1-14.4-8.3-19.6C1699.6,1219.8,1692.5,1216.9,1685.1,1216.9z"/>
<path class="st1" d="M1314.7,1048.2l-1.5-0.8l-41.5-48.4c-0.3-0.2-0.5-0.5-0.6-0.9c-0.1-0.3-0.2-0.7-0.2-1.1l1.2-1.2l81.8-34.6
	c0.4-0.2,0.8-0.3,1.2-0.2c0.4,0.1,0.8,0.3,1.1,0.6c0.3,0.3,0.4,0.7,0.5,1.1c0.1,0.4,0,0.8-0.1,1.2l-40.3,83c0,0.3-0.1,0.6-0.3,0.8
	c-0.2,0.2-0.5,0.3-0.8,0.3H1314.7z M1276.3,998.3l38,44.6l36.5-76.1L1276.3,998.3z"/>
<path class="st5" d="M1292.1,1005.6l81.4-34.6l-40,83L1292.1,1005.6z"/>
</svg>
