<?xml version="1.0" encoding="utf-8"?>
<!-- Generator: Adobe Illustrator 26.0.2, SVG Export Plug-In . SVG Version: 6.00 Build 0)  -->
<svg version="1.1" id="Layer_1" xmlns="http://www.w3.org/2000/svg" xmlns:xlink="http://www.w3.org/1999/xlink" x="0px" y="0px"
	 viewBox="0 0 2000 2000" style="enable-background:new 0 0 2000 2000;" xml:space="preserve">
<style type="text/css">
	.yellow {fill:#F7AE38;}
	.st1{fill:#02133B;}
	.st2{fill:#FAD478;}
	.st3{fill:#F14146;}
	.st4{fill:#FFFFFF;}
	.st5{fill:#3A81E1;}
  .invisible {
    opacity: 0;
  }

  .pulse-bright {
    animation: yellowFillPulse 4s infinite;
    animation-timing-function: ease-in-out;
  }

  .floaty-lightbulb {
    animation: scaleUpDown 3s infinite;
  }

  @keyframes yellowFillPulse {
    0% { fill: #F7AE38; }
    50% { fill: #FFDD1D; }
    100% { fill: #F7AE38; }
  }

    @keyframes scaleUpDown {
    0% { transform: scale(1.0); }
    50% { transform: scale(1.0); }
    100% { transform: scale(1.0); }
  } 
</style>
<g>
  <path class="yellow pulse-bright" d="M925.9,364.3c0,21.4-5.9,42.4-17,60.7c-11.1,18.3-27,33.2-46,43.1l-11.5,112.2h-85.7l-7.7-111
    c-18.6-9.2-34.4-23.1-45.8-40.5c-11.4-17.3-17.9-37.4-19-58.1c-1-20.7,3.5-41.3,13.1-59.7c9.6-18.4,23.9-33.9,41.5-44.9
    c17.6-11,37.8-17.1,58.5-17.6c20.7-0.6,41.2,4.4,59.4,14.4c18.2,10,33.3,24.7,43.9,42.5S925.8,343.6,925.9,364.3z"/>
  <path class="st1" d="M857.9,521.1h-96.4c-0.5,0-1-0.2-1.4-0.6c-0.4-0.4-0.6-0.8-0.6-1.4c0-0.5,0.2-1,0.6-1.4
    c0.4-0.4,0.8-0.6,1.4-0.6h96.4c0.5,0,1,0.2,1.4,0.6c0.4,0.4,0.6,0.8,0.6,1.4c-0.1,0.5-0.3,0.9-0.6,1.3
    C858.8,520.8,858.4,521,857.9,521.1z"/>
  <path class="st1" d="M852.9,552.2h-87.6c-0.5,0-1-0.2-1.4-0.6c-0.4-0.4-0.6-0.8-0.6-1.4c0-0.5,0.2-1,0.6-1.4
    c0.4-0.4,0.8-0.6,1.4-0.6h87.6c0.5,0,1,0.2,1.4,0.6c0.4,0.4,0.6,0.8,0.6,1.4c0,0.5-0.2,1-0.6,1.4C853.9,552,853.4,552.2,852.9,552.2
    z"/>
  <path class="st1" d="M837.9,521.1c-0.5-0.1-1-0.4-1.4-0.8c-0.4-0.4-0.5-1-0.5-1.5l2.7-140.2l-53.8-1.2v141.8
    c-0.1,0.5-0.3,0.9-0.6,1.3c-0.3,0.3-0.8,0.6-1.3,0.6c-0.5,0-1-0.2-1.4-0.6c-0.4-0.4-0.6-0.8-0.6-1.4V377.4h-17.3
    c-4-0.7-7.6-2.7-10.2-5.8c-2.6-3.1-4-7-4-11.1c0-4,1.5-7.9,4.2-11c2.7-3,6.3-5,10.3-5.6h3.8c2.2,0,4.4,0.4,6.5,1.3
    c2.1,0.9,3.9,2.1,5.5,3.7c1.6,1.6,2.8,3.4,3.7,5.5c0.8,2.1,1.3,4.2,1.3,6.5v13.1l53.8,1.2v-14.6c0-4.4,1.7-8.6,4.8-11.7
    c3.1-3.1,7.3-4.8,11.7-4.8c2.2,0,4.4,0.4,6.5,1.3c2.1,0.9,3.9,2.1,5.5,3.7c1.6,1.6,2.8,3.4,3.7,5.5c0.9,2.1,1.3,4.2,1.3,6.5v1.9
    c-0.2,4.4-1.9,8.7-5,11.9c-3.4,3-7.8,4.7-12.3,4.6h-12.7l-2.7,140.6c-0.2,0.3-0.4,0.5-0.6,0.7C838.5,520.9,838.2,521,837.9,521.1z
    M842.5,374.7h13.1c3.4,0,6.7-1.2,9.2-3.5c2.4-2.5,3.7-5.8,3.8-9.2v-1.5c0-3.5-1.4-6.8-3.8-9.2c-2.4-2.5-5.8-3.8-9.2-3.8
    c-3.4,0-6.6,1.3-9,3.7c-2.4,2.4-3.7,5.6-3.7,9L842.5,374.7z M764.1,347.4c-1.7,0-3.4,0.3-5,1c-1.6,0.7-3,1.6-4.2,2.8
    c-1.2,1.2-2.2,2.7-2.8,4.2c-0.7,1.6-1,3.3-1,5c0,3.4,1.3,6.6,3.7,9c2.4,2.4,5.6,3.7,9,3.7H781v-12.7c0-3.5-1.4-6.8-3.8-9.2
    s-5.8-3.8-9.2-3.8H764.1z"/>
  <path class="st2" d="M672.3,297.5h-0.8l-59.2-39.6c-0.2-0.2-0.4-0.3-0.5-0.6c-0.1-0.2-0.2-0.5-0.2-0.7c0-0.2,0-0.5,0-0.7
    c0.1-0.2,0.2-0.5,0.3-0.7c0.3-0.4,0.7-0.7,1.2-0.8c0.5-0.1,1-0.1,1.5,0.1l58.8,39.6c0.2,0.1,0.4,0.3,0.6,0.5
    c0.2,0.2,0.3,0.4,0.4,0.7c0.1,0.3,0.1,0.5,0.1,0.8c0,0.3-0.1,0.5-0.3,0.7C673.8,297.5,673.1,297.5,672.3,297.5z"/>
  <path class="st2" d="M739.2,237.5l-1.9-0.8l-36.9-60.3c-0.2-0.2-0.3-0.4-0.3-0.7c-0.1-0.2-0.1-0.5,0-0.7c0-0.2,0.1-0.5,0.2-0.7
    c0.1-0.2,0.3-0.4,0.5-0.6c1.2-0.4,2.3-0.4,2.7,0.8l37.3,59.9c0.4,1.2,0.4,2.3-0.8,2.7L739.2,237.5z"/>
  <path class="st2" d="M835.2,222.2c-0.5,0-1-0.2-1.4-0.6c-0.4-0.4-0.6-0.8-0.6-1.4v-65.3c0-0.5,0.2-1,0.6-1.4
    c0.4-0.4,0.8-0.6,1.4-0.6c0.5,0,1,0.2,1.4,0.6c0.4,0.4,0.6,0.8,0.6,1.4v65.3c0,0.5-0.2,1-0.6,1.4C836.2,222,835.7,222.2,835.2,222.2
    z"/>
  <path class="st2" d="M912.8,246.8h-1.2c-1.2-0.4-1.2-1.5-0.8-2.7l39.6-57.2c0.3-0.4,0.8-0.7,1.3-0.8c0.5-0.1,1,0.1,1.4,0.4
    c0.4,0.3,0.7,0.8,0.7,1.3c0.1,0.5-0.1,1-0.4,1.4L914.4,246L912.8,246.8z"/>
  <path class="st2" d="M952,316.3c-0.8,0-1.2-0.4-1.5-1.2c-0.4-0.8-0.4-1.9,0.8-2.7l69.5-38c0.8-0.8,1.9-0.4,2.7,0.8
    c0.2,0.4,0.2,0.9,0,1.3c-0.1,0.4-0.4,0.8-0.8,1l-69.5,38.4L952,316.3z"/>
  <path class="st1" d="M900.2,327.4c-0.8,0-1.2-0.4-1.5-1.2c-3.9-10-9.7-19.2-17.2-26.9c-7.5-7.7-16.4-13.9-26.3-18.1
    c-0.4-0.2-0.8-0.5-1-0.9c-0.2-0.4-0.3-0.9-0.1-1.4c0.1-0.3,0.2-0.5,0.4-0.7c0.2-0.2,0.4-0.4,0.7-0.5c0.3-0.1,0.5-0.2,0.8-0.2
    c0.3,0,0.6,0.1,0.8,0.2c10.4,4.3,19.8,10.8,27.6,18.9c7.8,8.1,13.8,17.8,17.7,28.4c0.1,0.2,0.2,0.5,0.2,0.7c0,0.3,0,0.5-0.2,0.7
    c-0.1,0.2-0.3,0.4-0.5,0.6c-0.2,0.1-0.5,0.2-0.7,0.3H900.2z"/>
    </g>
</svg>